STARTFONT 2.1
COMMENT "$ucs-fonts: 6x13B.bdf,v 1.26 2006-01-05 20:03:17+00 mgk25 Rel $"
COMMENT "Send bug reports to Markus Kuhn <http://www.cl.cam.ac.uk/~mgk25/>"
FONT -Misc-Fixed-Bold-R-SemiCondensed--13-120-75-75-C-60-ISO10646-1
SIZE 13 78 78
FONTBOUNDINGBOX 6 13 0 -2
STARTPROPERTIES 22
FONTNAME_REGISTRY ""
FOUNDRY "Misc"
FAMILY_NAME "Fixed"
WEIGHT_NAME "Bold"
SLANT "R"
SETWIDTH_NAME "SemiCondensed"
ADD_STYLE_NAME ""
PIXEL_SIZE 13
POINT_SIZE 120
RESOLUTION_X 75
RESOLUTION_Y 75
SPACING "C"
AVERAGE_WIDTH 60
CHARSET_REGISTRY "ISO10646"
CHARSET_ENCODING "1"
DEFAULT_CHAR 0
FONT_DESCENT 2
FONT_ASCENT 11
COPYRIGHT "Public domain font.  Share and enjoy."
_XMBDFED_INFO "Edited with xmbdfed 4.5."
CAP_HEIGHT 9
X_HEIGHT 6
ENDPROPERTIES
CHARS 419
STARTCHAR char0
ENCODING 0
SWIDTH 426 0
DWIDTH 6 0
BBX 6 13 0 -2
BITMAP
00
A8
A8
00
88
88
00
88
88
00
A8
A8
00
ENDCHAR
STARTCHAR space
ENCODING 32
SWIDTH 426 0
DWIDTH 6 0
BBX 6 13 0 -2
BITMAP
00
00
00
00
00
00
00
00
00
00
00
00
00
ENDCHAR
STARTCHAR exclam
ENCODING 33
SWIDTH 426 0
DWIDTH 6 0
BBX 6 13 0 -2
BITMAP
00
00
30
30
30
30
30
30
30
00
30
00
00
ENDCHAR
STARTCHAR quotedbl
ENCODING 34
SWIDTH 426 0
DWIDTH 6 0
BBX 6 13 0 -2
BITMAP
00
00
D8
D8
D8
00
00
00
00
00
00
00
00
ENDCHAR
STARTCHAR numbersign
ENCODING 35
SWIDTH 426 0
DWIDTH 6 0
BBX 6 13 0 -2
BITMAP
00
00
00
78
78
FC
78
FC
78
78
00
00
00
ENDCHAR
STARTCHAR dollar
ENCODING 36
SWIDTH 426 0
DWIDTH 6 0
BBX 6 13 0 -2
BITMAP
00
00
00
30
78
F0
78
3C
78
30
00
00
00
ENDCHAR
STARTCHAR percent
ENCODING 37
SWIDTH 426 0
DWIDTH 6 0
BBX 6 13 0 -2
BITMAP
00
00
6C
FC
78
18
30
60
78
FC
D8
00
00
ENDCHAR
STARTCHAR ampersand
ENCODING 38
SWIDTH 426 0
DWIDTH 6 0
BBX 6 13 0 -2
BITMAP
00
00
00
00
60
F0
F0
60
FC
D8
7C
00
00
ENDCHAR
STARTCHAR quotesingle
ENCODING 39
SWIDTH 426 0
DWIDTH 6 0
BBX 6 13 0 -2
BITMAP
00
00
30
30
30
00
00
00
00
00
00
00
00
ENDCHAR
STARTCHAR parenleft
ENCODING 40
SWIDTH 426 0
DWIDTH 6 0
BBX 6 13 0 -2
BITMAP
00
18
30
30
60
60
60
60
60
30
30
18
00
ENDCHAR
STARTCHAR parenright
ENCODING 41
SWIDTH 426 0
DWIDTH 6 0
BBX 6 13 0 -2
BITMAP
00
60
30
30
18
18
18
18
18
30
30
60
00
ENDCHAR
STARTCHAR asterisk
ENCODING 42
SWIDTH 426 0
DWIDTH 6 0
BBX 6 13 0 -2
BITMAP
00
00
00
00
CC
78
FC
78
CC
00
00
00
00
ENDCHAR
STARTCHAR plus
ENCODING 43
SWIDTH 426 0
DWIDTH 6 0
BBX 6 13 0 -2
BITMAP
00
00
00
00
30
30
FC
30
30
00
00
00
00
ENDCHAR
STARTCHAR comma
ENCODING 44
SWIDTH 426 0
DWIDTH 6 0
BBX 6 13 0 -2
BITMAP
00
00
00
00
00
00
00
00
00
38
30
60
00
ENDCHAR
STARTCHAR hyphen
ENCODING 45
SWIDTH 426 0
DWIDTH 6 0
BBX 6 13 0 -2
BITMAP
00
00
00
00
00
00
FC
00
00
00
00
00
00
ENDCHAR
STARTCHAR period
ENCODING 46
SWIDTH 426 0
DWIDTH 6 0
BBX 6 13 0 -2
BITMAP
00
00
00
00
00
00
00
00
00
30
78
30
00
ENDCHAR
STARTCHAR slash
ENCODING 47
SWIDTH 426 0
DWIDTH 6 0
BBX 6 13 0 -2
BITMAP
00
00
0C
0C
18
18
30
60
60
C0
C0
00
00
ENDCHAR
STARTCHAR zero
ENCODING 48
SWIDTH 426 0
DWIDTH 6 0
BBX 6 13 0 -2
BITMAP
00
00
30
78
CC
CC
CC
CC
CC
78
30
00
00
ENDCHAR
STARTCHAR one
ENCODING 49
SWIDTH 426 0
DWIDTH 6 0
BBX 6 13 0 -2
BITMAP
00
00
30
70
F0
30
30
30
30
30
FC
00
00
ENDCHAR
STARTCHAR two
ENCODING 50
SWIDTH 426 0
DWIDTH 6 0
BBX 6 13 0 -2
BITMAP
00
00
78
CC
CC
0C
18
30
60
C0
FC
00
00
ENDCHAR
STARTCHAR three
ENCODING 51
SWIDTH 426 0
DWIDTH 6 0
BBX 6 13 0 -2
BITMAP
00
00
FC
0C
18
30
78
0C
0C
CC
78
00
00
ENDCHAR
STARTCHAR four
ENCODING 52
SWIDTH 426 0
DWIDTH 6 0
BBX 6 13 0 -2
BITMAP
00
00
18
18
38
78
58
D8
FC
18
18
00
00
ENDCHAR
STARTCHAR five
ENCODING 53
SWIDTH 426 0
DWIDTH 6 0
BBX 6 13 0 -2
BITMAP
00
00
FC
C0
C0
F8
EC
0C
0C
CC
78
00
00
ENDCHAR
STARTCHAR six
ENCODING 54
SWIDTH 426 0
DWIDTH 6 0
BBX 6 13 0 -2
BITMAP
00
00
38
60
C0
C0
F8
EC
CC
CC
78
00
00
ENDCHAR
STARTCHAR seven
ENCODING 55
SWIDTH 426 0
DWIDTH 6 0
BBX 6 13 0 -2
BITMAP
00
00
FC
0C
18
18
30
30
60
60
60
00
00
ENDCHAR
STARTCHAR eight
ENCODING 56
SWIDTH 426 0
DWIDTH 6 0
BBX 6 13 0 -2
BITMAP
00
00
78
CC
CC
CC
78
CC
CC
CC
78
00
00
ENDCHAR
STARTCHAR nine
ENCODING 57
SWIDTH 426 0
DWIDTH 6 0
BBX 6 13 0 -2
BITMAP
00
00
78
CC
CC
DC
7C
0C
0C
18
70
00
00
ENDCHAR
STARTCHAR colon
ENCODING 58
SWIDTH 426 0
DWIDTH 6 0
BBX 6 13 0 -2
BITMAP
00
00
00
30
78
30
00
00
30
78
30
00
00
ENDCHAR
STARTCHAR semicolon
ENCODING 59
SWIDTH 426 0
DWIDTH 6 0
BBX 6 13 0 -2
BITMAP
00
00
00
00
30
78
30
00
00
38
30
60
00
ENDCHAR
STARTCHAR less
ENCODING 60
SWIDTH 426 0
DWIDTH 6 0
BBX 6 13 0 -2
BITMAP
00
00
0C
18
30
60
C0
60
30
18
0C
00
00
ENDCHAR
STARTCHAR equal
ENCODING 61
SWIDTH 426 0
DWIDTH 6 0
BBX 6 13 0 -2
BITMAP
00
00
00
00
00
FC
00
00
FC
00
00
00
00
ENDCHAR
STARTCHAR greater
ENCODING 62
SWIDTH 426 0
DWIDTH 6 0
BBX 6 13 0 -2
BITMAP
00
00
C0
60
30
18
0C
18
30
60
C0
00
00
ENDCHAR
STARTCHAR question
ENCODING 63
SWIDTH 426 0
DWIDTH 6 0
BBX 6 13 0 -2
BITMAP
00
00
78
CC
CC
0C
18
30
30
00
30
00
00
ENDCHAR
STARTCHAR at
ENCODING 64
SWIDTH 426 0
DWIDTH 6 0
BBX 6 13 0 -2
BITMAP
00
00
78
CC
CC
DC
FC
FC
F8
C0
7C
00
00
ENDCHAR
STARTCHAR A
ENCODING 65
SWIDTH 426 0
DWIDTH 6 0
BBX 6 13 0 -2
BITMAP
00
00
30
78
CC
CC
CC
FC
CC
CC
CC
00
00
ENDCHAR
STARTCHAR B
ENCODING 66
SWIDTH 426 0
DWIDTH 6 0
BBX 6 13 0 -2
BITMAP
00
00
F8
6C
6C
6C
78
6C
6C
6C
F8
00
00
ENDCHAR
STARTCHAR C
ENCODING 67
SWIDTH 426 0
DWIDTH 6 0
BBX 6 13 0 -2
BITMAP
00
00
78
CC
C0
C0
C0
C0
C0
CC
78
00
00
ENDCHAR
STARTCHAR D
ENCODING 68
SWIDTH 426 0
DWIDTH 6 0
BBX 6 13 0 -2
BITMAP
00
00
F8
6C
6C
6C
6C
6C
6C
6C
F8
00
00
ENDCHAR
STARTCHAR E
ENCODING 69
SWIDTH 426 0
DWIDTH 6 0
BBX 6 13 0 -2
BITMAP
00
00
FC
C0
C0
C0
F8
C0
C0
C0
FC
00
00
ENDCHAR
STARTCHAR F
ENCODING 70
SWIDTH 426 0
DWIDTH 6 0
BBX 6 13 0 -2
BITMAP
00
00
FC
C0
C0
C0
F8
C0
C0
C0
C0
00
00
ENDCHAR
STARTCHAR G
ENCODING 71
SWIDTH 426 0
DWIDTH 6 0
BBX 6 13 0 -2
BITMAP
00
00
78
CC
C0
C0
C0
DC
CC
CC
78
00
00
ENDCHAR
STARTCHAR H
ENCODING 72
SWIDTH 426 0
DWIDTH 6 0
BBX 6 13 0 -2
BITMAP
00
00
CC
CC
CC
CC
FC
CC
CC
CC
CC
00
00
ENDCHAR
STARTCHAR I
ENCODING 73
SWIDTH 426 0
DWIDTH 6 0
BBX 6 13 0 -2
BITMAP
00
00
78
30
30
30
30
30
30
30
78
00
00
ENDCHAR
STARTCHAR J
ENCODING 74
SWIDTH 426 0
DWIDTH 6 0
BBX 6 13 0 -2
BITMAP
00
00
3C
0C
0C
0C
0C
0C
0C
CC
78
00
00
ENDCHAR
STARTCHAR K
ENCODING 75
SWIDTH 426 0
DWIDTH 6 0
BBX 6 13 0 -2
BITMAP
00
00
CC
CC
D8
F0
E0
F0
D8
CC
CC
00
00
ENDCHAR
STARTCHAR L
ENCODING 76
SWIDTH 426 0
DWIDTH 6 0
BBX 6 13 0 -2
BITMAP
00
00
C0
C0
C0
C0
C0
C0
C0
C0
FC
00
00
ENDCHAR
STARTCHAR M
ENCODING 77
SWIDTH 426 0
DWIDTH 6 0
BBX 6 13 0 -2
BITMAP
00
00
CC
CC
FC
FC
FC
CC
CC
CC
CC
00
00
ENDCHAR
STARTCHAR N
ENCODING 78
SWIDTH 426 0
DWIDTH 6 0
BBX 6 13 0 -2
BITMAP
00
00
CC
EC
EC
FC
FC
DC
DC
CC
CC
00
00
ENDCHAR
STARTCHAR O
ENCODING 79
SWIDTH 426 0
DWIDTH 6 0
BBX 6 13 0 -2
BITMAP
00
00
78
CC
CC
CC
CC
CC
CC
CC
78
00
00
ENDCHAR
STARTCHAR P
ENCODING 80
SWIDTH 426 0
DWIDTH 6 0
BBX 6 13 0 -2
BITMAP
00
00
F8
CC
CC
CC
F8
C0
C0
C0
C0
00
00
ENDCHAR
STARTCHAR Q
ENCODING 81
SWIDTH 426 0
DWIDTH 6 0
BBX 6 13 0 -2
BITMAP
00
00
78
CC
CC
CC
CC
CC
CC
FC
78
0C
00
ENDCHAR
STARTCHAR R
ENCODING 82
SWIDTH 426 0
DWIDTH 6 0
BBX 6 13 0 -2
BITMAP
00
00
F8
CC
CC
CC
F8
F0
D8
CC
CC
00
00
ENDCHAR
STARTCHAR S
ENCODING 83
SWIDTH 426 0
DWIDTH 6 0
BBX 6 13 0 -2
BITMAP
00
00
78
CC
C0
C0
78
0C
0C
CC
78
00
00
ENDCHAR
STARTCHAR T
ENCODING 84
SWIDTH 426 0
DWIDTH 6 0
BBX 6 13 0 -2
BITMAP
00
00
FC
30
30
30
30
30
30
30
30
00
00
ENDCHAR
STARTCHAR U
ENCODING 85
SWIDTH 426 0
DWIDTH 6 0
BBX 6 13 0 -2
BITMAP
00
00
CC
CC
CC
CC
CC
CC
CC
CC
78
00
00
ENDCHAR
STARTCHAR V
ENCODING 86
SWIDTH 426 0
DWIDTH 6 0
BBX 6 13 0 -2
BITMAP
00
00
CC
CC
CC
CC
78
78
78
30
30
00
00
ENDCHAR
STARTCHAR W
ENCODING 87
SWIDTH 426 0
DWIDTH 6 0
BBX 6 13 0 -2
BITMAP
00
00
CC
CC
CC
CC
FC
FC
FC
FC
CC
00
00
ENDCHAR
STARTCHAR X
ENCODING 88
SWIDTH 426 0
DWIDTH 6 0
BBX 6 13 0 -2
BITMAP
00
00
CC
CC
78
78
30
78
78
CC
CC
00
00
ENDCHAR
STARTCHAR Y
ENCODING 89
SWIDTH 426 0
DWIDTH 6 0
BBX 6 13 0 -2
BITMAP
00
00
CC
CC
78
78
30
30
30
30
30
00
00
ENDCHAR
STARTCHAR Z
ENCODING 90
SWIDTH 426 0
DWIDTH 6 0
BBX 6 13 0 -2
BITMAP
00
00
FC
0C
18
18
30
60
60
C0
FC
00
00
ENDCHAR
STARTCHAR bracketleft
ENCODING 91
SWIDTH 426 0
DWIDTH 6 0
BBX 6 13 0 -2
BITMAP
00
78
60
60
60
60
60
60
60
60
60
78
00
ENDCHAR
STARTCHAR backslash
ENCODING 92
SWIDTH 426 0
DWIDTH 6 0
BBX 6 13 0 -2
BITMAP
00
00
C0
C0
60
60
30
18
18
0C
0C
00
00
ENDCHAR
STARTCHAR bracketright
ENCODING 93
SWIDTH 426 0
DWIDTH 6 0
BBX 6 13 0 -2
BITMAP
00
78
18
18
18
18
18
18
18
18
18
78
00
ENDCHAR
STARTCHAR asciicircum
ENCODING 94
SWIDTH 426 0
DWIDTH 6 0
BBX 6 13 0 -2
BITMAP
00
00
30
78
CC
00
00
00
00
00
00
00
00
ENDCHAR
STARTCHAR underscore
ENCODING 95
SWIDTH 426 0
DWIDTH 6 0
BBX 6 13 0 -2
BITMAP
00
00
00
00
00
00
00
00
00
00
00
FC
00
ENDCHAR
STARTCHAR grave
ENCODING 96
SWIDTH 426 0
DWIDTH 6 0
BBX 6 13 0 -2
BITMAP
00
60
30
00
00
00
00
00
00
00
00
00
00
ENDCHAR
STARTCHAR a
ENCODING 97
SWIDTH 426 0
DWIDTH 6 0
BBX 6 13 0 -2
BITMAP
00
00
00
00
00
78
0C
7C
CC
DC
6C
00
00
ENDCHAR
STARTCHAR b
ENCODING 98
SWIDTH 426 0
DWIDTH 6 0
BBX 6 13 0 -2
BITMAP
00
00
C0
C0
C0
D8
EC
CC
CC
EC
D8
00
00
ENDCHAR
STARTCHAR c
ENCODING 99
SWIDTH 426 0
DWIDTH 6 0
BBX 6 13 0 -2
BITMAP
00
00
00
00
00
78
CC
C0
C0
CC
78
00
00
ENDCHAR
STARTCHAR d
ENCODING 100
SWIDTH 426 0
DWIDTH 6 0
BBX 6 13 0 -2
BITMAP
00
00
0C
0C
0C
6C
DC
CC
CC
DC
6C
00
00
ENDCHAR
STARTCHAR e
ENCODING 101
SWIDTH 426 0
DWIDTH 6 0
BBX 6 13 0 -2
BITMAP
00
00
00
00
00
78
CC
FC
C0
C0
78
00
00
ENDCHAR
STARTCHAR f
ENCODING 102
SWIDTH 426 0
DWIDTH 6 0
BBX 6 13 0 -2
BITMAP
00
00
38
6C
60
60
F8
60
60
60
60
00
00
ENDCHAR
STARTCHAR g
ENCODING 103
SWIDTH 426 0
DWIDTH 6 0
BBX 6 13 0 -2
BITMAP
00
00
00
00
00
7C
D8
D8
70
C0
78
CC
78
ENDCHAR
STARTCHAR h
ENCODING 104
SWIDTH 426 0
DWIDTH 6 0
BBX 6 13 0 -2
BITMAP
00
00
C0
C0
C0
D8
EC
CC
CC
CC
CC
00
00
ENDCHAR
STARTCHAR i
ENCODING 105
SWIDTH 426 0
DWIDTH 6 0
BBX 6 13 0 -2
BITMAP
00
00
30
30
00
70
30
30
30
30
78
00
00
ENDCHAR
STARTCHAR j
ENCODING 106
SWIDTH 426 0
DWIDTH 6 0
BBX 6 13 0 -2
BITMAP
00
00
18
18
00
38
18
18
18
18
D8
D8
70
ENDCHAR
STARTCHAR k
ENCODING 107
SWIDTH 426 0
DWIDTH 6 0
BBX 6 13 0 -2
BITMAP
00
00
C0
C0
C0
D8
F0
E0
F0
D8
CC
00
00
ENDCHAR
STARTCHAR l
ENCODING 108
SWIDTH 426 0
DWIDTH 6 0
BBX 6 13 0 -2
BITMAP
00
00
70
30
30
30
30
30
30
30
78
00
00
ENDCHAR
STARTCHAR m
ENCODING 109
SWIDTH 426 0
DWIDTH 6 0
BBX 6 13 0 -2
BITMAP
00
00
00
00
00
F8
FC
FC
FC
FC
CC
00
00
ENDCHAR
STARTCHAR n
ENCODING 110
SWIDTH 426 0
DWIDTH 6 0
BBX 6 13 0 -2
BITMAP
00
00
00
00
00
D8
EC
CC
CC
CC
CC
00
00
ENDCHAR
STARTCHAR o
ENCODING 111
SWIDTH 426 0
DWIDTH 6 0
BBX 6 13 0 -2
BITMAP
00
00
00
00
00
78
CC
CC
CC
CC
78
00
00
ENDCHAR
STARTCHAR p
ENCODING 112
SWIDTH 426 0
DWIDTH 6 0
BBX 6 13 0 -2
BITMAP
00
00
00
00
00
D8
EC
CC
EC
D8
C0
C0
C0
ENDCHAR
STARTCHAR q
ENCODING 113
SWIDTH 426 0
DWIDTH 6 0
BBX 6 13 0 -2
BITMAP
00
00
00
00
00
6C
DC
CC
DC
6C
0C
0C
0C
ENDCHAR
STARTCHAR r
ENCODING 114
SWIDTH 426 0
DWIDTH 6 0
BBX 6 13 0 -2
BITMAP
00
00
00
00
00
D8
EC
C0
C0
C0
C0
00
00
ENDCHAR
STARTCHAR s
ENCODING 115
SWIDTH 426 0
DWIDTH 6 0
BBX 6 13 0 -2
BITMAP
00
00
00
00
00
78
CC
70
18
CC
78
00
00
ENDCHAR
STARTCHAR t
ENCODING 116
SWIDTH 426 0
DWIDTH 6 0
BBX 6 13 0 -2
BITMAP
00
00
00
60
60
F8
60
60
60
6C
38
00
00
ENDCHAR
STARTCHAR u
ENCODING 117
SWIDTH 426 0
DWIDTH 6 0
BBX 6 13 0 -2
BITMAP
00
00
00
00
00
CC
CC
CC
CC
DC
6C
00
00
ENDCHAR
STARTCHAR v
ENCODING 118
SWIDTH 426 0
DWIDTH 6 0
BBX 6 13 0 -2
BITMAP
00
00
00
00
00
CC
CC
CC
78
78
30
00
00
ENDCHAR
STARTCHAR w
ENCODING 119
SWIDTH 426 0
DWIDTH 6 0
BBX 6 13 0 -2
BITMAP
00
00
00
00
00
CC
CC
FC
FC
FC
48
00
00
ENDCHAR
STARTCHAR x
ENCODING 120
SWIDTH 426 0
DWIDTH 6 0
BBX 6 13 0 -2
BITMAP
00
00
00
00
00
CC
78
30
30
78
CC
00
00
ENDCHAR
STARTCHAR y
ENCODING 121
SWIDTH 426 0
DWIDTH 6 0
BBX 6 13 0 -2
BITMAP
00
00
00
00
00
CC
CC
CC
DC
6C
0C
CC
78
ENDCHAR
STARTCHAR z
ENCODING 122
SWIDTH 426 0
DWIDTH 6 0
BBX 6 13 0 -2
BITMAP
00
00
00
00
00
FC
18
30
60
C0
FC
00
00
ENDCHAR
STARTCHAR braceleft
ENCODING 123
SWIDTH 426 0
DWIDTH 6 0
BBX 6 13 0 -2
BITMAP
00
38
60
60
60
30
E0
30
60
60
60
38
00
ENDCHAR
STARTCHAR bar
ENCODING 124
SWIDTH 426 0
DWIDTH 6 0
BBX 6 13 0 -2
BITMAP
00
00
30
30
30
30
30
30
30
30
30
00
00
ENDCHAR
STARTCHAR braceright
ENCODING 125
SWIDTH 426 0
DWIDTH 6 0
BBX 6 13 0 -2
BITMAP
00
E0
30
30
30
60
38
60
30
30
30
E0
00
ENDCHAR
STARTCHAR asciitilde
ENCODING 126
SWIDTH 426 0
DWIDTH 6 0
BBX 6 13 0 -2
BITMAP
00
00
68
F8
90
00
00
00
00
00
00
00
00
ENDCHAR
STARTCHAR space
ENCODING 160
SWIDTH 426 0
DWIDTH 6 0
BBX 6 13 0 -2
BITMAP
00
00
00
00
00
00
00
00
00
00
00
00
00
ENDCHAR
STARTCHAR exclamdown
ENCODING 161
SWIDTH 426 0
DWIDTH 6 0
BBX 6 13 0 -2
BITMAP
00
30
30
00
30
30
30
30
30
30
30
00
00
ENDCHAR
STARTCHAR cent
ENCODING 162
SWIDTH 426 0
DWIDTH 6 0
BBX 6 13 0 -2
BITMAP
00
00
10
78
D4
D0
D0
D4
78
10
00
00
00
ENDCHAR
STARTCHAR sterling
ENCODING 163
SWIDTH 426 0
DWIDTH 6 0
BBX 6 13 0 -2
BITMAP
00
00
38
6C
60
60
F8
60
60
64
F8
00
00
ENDCHAR
STARTCHAR currency
ENCODING 164
SWIDTH 426 0
DWIDTH 6 0
BBX 6 13 0 -2
BITMAP
00
00
00
00
CC
FC
48
48
FC
CC
00
00
00
ENDCHAR
STARTCHAR yen
ENCODING 165
SWIDTH 426 0
DWIDTH 6 0
BBX 6 13 0 -2
BITMAP
00
00
CC
CC
78
78
FC
30
FC
30
30
00
00
ENDCHAR
STARTCHAR brokenbar
ENCODING 166
SWIDTH 426 0
DWIDTH 6 0
BBX 6 13 0 -2
BITMAP
00
30
30
30
30
00
00
30
30
30
30
00
00
ENDCHAR
STARTCHAR section
ENCODING 167
SWIDTH 426 0
DWIDTH 6 0
BBX 6 13 0 -2
BITMAP
00
78
CC
C0
78
CC
CC
78
0C
CC
78
00
00
ENDCHAR
STARTCHAR dieresis
ENCODING 168
SWIDTH 426 0
DWIDTH 6 0
BBX 6 13 0 -2
BITMAP
00
00
CC
CC
00
00
00
00
00
00
00
00
00
ENDCHAR
STARTCHAR copyright
ENCODING 169
SWIDTH 426 0
DWIDTH 6 0
BBX 6 13 0 -2
BITMAP
00
00
78
CC
B4
EC
E4
EC
B4
CC
78
00
00
ENDCHAR
STARTCHAR ordfeminine
ENCODING 170
SWIDTH 426 0
DWIDTH 6 0
BBX 6 13 0 -2
BITMAP
00
00
F8
0C
FC
8C
FC
00
FC
00
00
00
00
ENDCHAR
STARTCHAR guillemotleft
ENCODING 171
SWIDTH 426 0
DWIDTH 6 0
BBX 6 13 0 -2
BITMAP
00
00
00
34
68
D0
A0
D0
68
34
00
00
00
ENDCHAR
STARTCHAR logicalnot
ENCODING 172
SWIDTH 426 0
DWIDTH 6 0
BBX 6 13 0 -2
BITMAP
00
00
00
00
00
FC
FC
04
04
00
00
00
00
ENDCHAR
STARTCHAR hyphen
ENCODING 173
SWIDTH 426 0
DWIDTH 6 0
BBX 6 13 0 -2
BITMAP
00
00
00
00
00
00
78
00
00
00
00
00
00
ENDCHAR
STARTCHAR registered
ENCODING 174
SWIDTH 426 0
DWIDTH 6 0
BBX 6 13 0 -2
BITMAP
00
00
78
CC
BC
AC
BC
B4
AC
CC
78
00
00
ENDCHAR
STARTCHAR macron
ENCODING 175
SWIDTH 426 0
DWIDTH 6 0
BBX 6 13 0 -2
BITMAP
00
00
F8
F8
00
00
00
00
00
00
00
00
00
ENDCHAR
STARTCHAR degree
ENCODING 176
SWIDTH 426 0
DWIDTH 6 0
BBX 6 13 0 -2
BITMAP
00
00
78
CC
CC
78
00
00
00
00
00
00
00
ENDCHAR
STARTCHAR plusminus
ENCODING 177
SWIDTH 426 0
DWIDTH 6 0
BBX 6 13 0 -2
BITMAP
00
00
30
30
FC
FC
30
30
00
FC
FC
00
00
ENDCHAR
STARTCHAR twosuperior
ENCODING 178
SWIDTH 426 0
DWIDTH 6 0
BBX 6 13 0 -2
BITMAP
00
E0
B0
30
60
C0
F0
00
00
00
00
00
00
ENDCHAR
STARTCHAR threesuperior
ENCODING 179
SWIDTH 426 0
DWIDTH 6 0
BBX 6 13 0 -2
BITMAP
00
E0
B0
60
30
B0
E0
00
00
00
00
00
00
ENDCHAR
STARTCHAR acute
ENCODING 180
SWIDTH 426 0
DWIDTH 6 0
BBX 6 13 0 -2
BITMAP
00
30
60
00
00
00
00
00
00
00
00
00
00
ENDCHAR
STARTCHAR mu
ENCODING 181
SWIDTH 426 0
DWIDTH 6 0
BBX 6 13 0 -2
BITMAP
00
00
00
00
00
CC
CC
CC
CC
CC
FC
80
80
ENDCHAR
STARTCHAR paragraph
ENCODING 182
SWIDTH 426 0
DWIDTH 6 0
BBX 6 13 0 -2
BITMAP
00
00
7C
FC
F4
F4
F4
74
34
34
34
00
00
ENDCHAR
STARTCHAR periodcentered
ENCODING 183
SWIDTH 426 0
DWIDTH 6 0
BBX 6 13 0 -2
BITMAP
00
00
00
00
00
30
30
00
00
00
00
00
00
ENDCHAR
STARTCHAR cedilla
ENCODING 184
SWIDTH 426 0
DWIDTH 6 0
BBX 6 13 0 -2
BITMAP
00
00
00
00
00
00
00
00
00
00
00
30
60
ENDCHAR
STARTCHAR onesuperior
ENCODING 185
SWIDTH 426 0
DWIDTH 6 0
BBX 6 13 0 -2
BITMAP
00
60
E0
60
60
60
F0
00
00
00
00
00
00
ENDCHAR
STARTCHAR ordmasculine
ENCODING 186
SWIDTH 426 0
DWIDTH 6 0
BBX 6 13 0 -2
BITMAP
00
70
F8
88
F8
70
00
F8
00
00
00
00
00
ENDCHAR
STARTCHAR guillemotright
ENCODING 187
SWIDTH 426 0
DWIDTH 6 0
BBX 6 13 0 -2
BITMAP
00
00
00
B0
58
2C
14
2C
58
B0
00
00
00
ENDCHAR
STARTCHAR onequarter
ENCODING 188
SWIDTH 426 0
DWIDTH 6 0
BBX 6 13 0 -2
BITMAP
00
60
E0
60
60
64
FC
1C
34
3C
0C
00
00
ENDCHAR
STARTCHAR onehalf
ENCODING 189
SWIDTH 426 0
DWIDTH 6 0
BBX 6 13 0 -2
BITMAP
00
60
E0
60
60
78
EC
0C
18
30
3C
00
00
ENDCHAR
STARTCHAR threequarters
ENCODING 190
SWIDTH 426 0
DWIDTH 6 0
BBX 6 13 0 -2
BITMAP
00
E0
B0
60
30
B4
EC
1C
34
3C
0C
00
00
ENDCHAR
STARTCHAR questiondown
ENCODING 191
SWIDTH 426 0
DWIDTH 6 0
BBX 6 13 0 -2
BITMAP
00
30
30
00
30
30
60
C0
CC
CC
78
00
00
ENDCHAR
STARTCHAR Agrave
ENCODING 192
SWIDTH 426 0
DWIDTH 6 0
BBX 6 13 0 -2
BITMAP
00
60
30
00
30
78
CC
CC
FC
CC
CC
00
00
ENDCHAR
STARTCHAR Aacute
ENCODING 193
SWIDTH 426 0
DWIDTH 6 0
BBX 6 13 0 -2
BITMAP
00
18
30
00
30
78
CC
CC
FC
CC
CC
00
00
ENDCHAR
STARTCHAR Acircumflex
ENCODING 194
SWIDTH 426 0
DWIDTH 6 0
BBX 6 13 0 -2
BITMAP
00
38
6C
00
30
78
CC
CC
FC
CC
CC
00
00
ENDCHAR
STARTCHAR Atilde
ENCODING 195
SWIDTH 426 0
DWIDTH 6 0
BBX 6 13 0 -2
BITMAP
00
34
58
00
30
78
CC
CC
FC
CC
CC
00
00
ENDCHAR
STARTCHAR Adieresis
ENCODING 196
SWIDTH 426 0
DWIDTH 6 0
BBX 6 13 0 -2
BITMAP
00
CC
CC
00
30
78
CC
CC
FC
CC
CC
00
00
ENDCHAR
STARTCHAR Aring
ENCODING 197
SWIDTH 426 0
DWIDTH 6 0
BBX 6 13 0 -2
BITMAP
00
30
48
78
30
78
CC
CC
FC
CC
CC
00
00
ENDCHAR
STARTCHAR AE
ENCODING 198
SWIDTH 426 0
DWIDTH 6 0
BBX 6 13 0 -2
BITMAP
00
00
7C
B0
B0
B0
B8
F0
F0
B0
BC
00
00
ENDCHAR
STARTCHAR Ccedilla
ENCODING 199
SWIDTH 426 0
DWIDTH 6 0
BBX 6 13 0 -2
BITMAP
00
00
78
CC
C0
C0
C0
C0
C0
CC
78
30
60
ENDCHAR
STARTCHAR Egrave
ENCODING 200
SWIDTH 426 0
DWIDTH 6 0
BBX 6 13 0 -2
BITMAP
00
60
30
00
FC
C0
C0
F8
C0
C0
FC
00
00
ENDCHAR
STARTCHAR Eacute
ENCODING 201
SWIDTH 426 0
DWIDTH 6 0
BBX 6 13 0 -2
BITMAP
00
18
30
00
FC
C0
C0
F8
C0
C0
FC
00
00
ENDCHAR
STARTCHAR Ecircumflex
ENCODING 202
SWIDTH 426 0
DWIDTH 6 0
BBX 6 13 0 -2
BITMAP
00
38
6C
00
FC
C0
C0
F8
C0
C0
FC
00
00
ENDCHAR
STARTCHAR Edieresis
ENCODING 203
SWIDTH 426 0
DWIDTH 6 0
BBX 6 13 0 -2
BITMAP
00
CC
CC
00
FC
C0
C0
F8
C0
C0
FC
00
00
ENDCHAR
STARTCHAR Igrave
ENCODING 204
SWIDTH 426 0
DWIDTH 6 0
BBX 6 13 0 -2
BITMAP
00
60
30
00
78
30
30
30
30
30
78
00
00
ENDCHAR
STARTCHAR Iacute
ENCODING 205
SWIDTH 426 0
DWIDTH 6 0
BBX 6 13 0 -2
BITMAP
00
18
30
00
78
30
30
30
30
30
78
00
00
ENDCHAR
STARTCHAR Icircumflex
ENCODING 206
SWIDTH 426 0
DWIDTH 6 0
BBX 6 13 0 -2
BITMAP
00
70
D8
00
78
30
30
30
30
30
78
00
00
ENDCHAR
STARTCHAR Idieresis
ENCODING 207
SWIDTH 426 0
DWIDTH 6 0
BBX 6 13 0 -2
BITMAP
00
CC
CC
00
78
30
30
30
30
30
78
00
00
ENDCHAR
STARTCHAR Eth
ENCODING 208
SWIDTH 426 0
DWIDTH 6 0
BBX 6 13 0 -2
BITMAP
00
00
F8
6C
6C
6C
EC
6C
6C
6C
F8
00
00
ENDCHAR
STARTCHAR Ntilde
ENCODING 209
SWIDTH 426 0
DWIDTH 6 0
BBX 6 13 0 -2
BITMAP
00
34
58
00
CC
EC
EC
FC
DC
DC
CC
00
00
ENDCHAR
STARTCHAR Ograve
ENCODING 210
SWIDTH 426 0
DWIDTH 6 0
BBX 6 13 0 -2
BITMAP
00
60
30
00
78
CC
CC
CC
CC
CC
78
00
00
ENDCHAR
STARTCHAR Oacute
ENCODING 211
SWIDTH 426 0
DWIDTH 6 0
BBX 6 13 0 -2
BITMAP
00
18
30
00
78
CC
CC
CC
CC
CC
78
00
00
ENDCHAR
STARTCHAR Ocircumflex
ENCODING 212
SWIDTH 426 0
DWIDTH 6 0
BBX 6 13 0 -2
BITMAP
00
38
6C
00
78
CC
CC
CC
CC
CC
78
00
00
ENDCHAR
STARTCHAR Otilde
ENCODING 213
SWIDTH 426 0
DWIDTH 6 0
BBX 6 13 0 -2
BITMAP
00
34
58
00
78
CC
CC
CC
CC
CC
78
00
00
ENDCHAR
STARTCHAR Odieresis
ENCODING 214
SWIDTH 426 0
DWIDTH 6 0
BBX 6 13 0 -2
BITMAP
00
CC
CC
00
78
CC
CC
CC
CC
CC
78
00
00
ENDCHAR
STARTCHAR multiply
ENCODING 215
SWIDTH 426 0
DWIDTH 6 0
BBX 6 13 0 -2
BITMAP
00
00
00
00
00
CC
78
30
78
CC
00
00
00
ENDCHAR
STARTCHAR Oslash
ENCODING 216
SWIDTH 426 0
DWIDTH 6 0
BBX 6 13 0 -2
BITMAP
00
00
00
04
78
DC
DC
CC
EC
EC
78
80
00
ENDCHAR
STARTCHAR Ugrave
ENCODING 217
SWIDTH 426 0
DWIDTH 6 0
BBX 6 13 0 -2
BITMAP
00
60
30
00
CC
CC
CC
CC
CC
CC
78
00
00
ENDCHAR
STARTCHAR Uacute
ENCODING 218
SWIDTH 426 0
DWIDTH 6 0
BBX 6 13 0 -2
BITMAP
00
18
30
00
CC
CC
CC
CC
CC
CC
78
00
00
ENDCHAR
STARTCHAR Ucircumflex
ENCODING 219
SWIDTH 426 0
DWIDTH 6 0
BBX 6 13 0 -2
BITMAP
00
38
6C
00
CC
CC
CC
CC
CC
CC
78
00
00
ENDCHAR
STARTCHAR Udieresis
ENCODING 220
SWIDTH 426 0
DWIDTH 6 0
BBX 6 13 0 -2
BITMAP
00
6C
6C
00
CC
CC
CC
CC
CC
CC
78
00
00
ENDCHAR
STARTCHAR Yacute
ENCODING 221
SWIDTH 426 0
DWIDTH 6 0
BBX 6 13 0 -2
BITMAP
00
18
30
00
CC
48
78
30
30
30
30
00
00
ENDCHAR
STARTCHAR Thorn
ENCODING 222
SWIDTH 426 0
DWIDTH 6 0
BBX 6 13 0 -2
BITMAP
00
00
C0
F8
CC
CC
CC
F8
C0
C0
C0
00
00
ENDCHAR
STARTCHAR germandbls
ENCODING 223
SWIDTH 426 0
DWIDTH 6 0
BBX 6 13 0 -2
BITMAP
00
00
00
78
CC
CC
F8
CC
CC
CC
F8
80
00
ENDCHAR
STARTCHAR agrave
ENCODING 224
SWIDTH 426 0
DWIDTH 6 0
BBX 6 13 0 -2
BITMAP
00
00
60
30
00
78
0C
7C
CC
DC
6C
00
00
ENDCHAR
STARTCHAR aacute
ENCODING 225
SWIDTH 426 0
DWIDTH 6 0
BBX 6 13 0 -2
BITMAP
00
00
18
30
00
78
0C
7C
CC
DC
6C
00
00
ENDCHAR
STARTCHAR acircumflex
ENCODING 226
SWIDTH 426 0
DWIDTH 6 0
BBX 6 13 0 -2
BITMAP
00
00
38
6C
00
78
0C
7C
CC
DC
6C
00
00
ENDCHAR
STARTCHAR atilde
ENCODING 227
SWIDTH 426 0
DWIDTH 6 0
BBX 6 13 0 -2
BITMAP
00
00
34
58
00
78
0C
7C
CC
DC
6C
00
00
ENDCHAR
STARTCHAR adieresis
ENCODING 228
SWIDTH 426 0
DWIDTH 6 0
BBX 6 13 0 -2
BITMAP
00
00
6C
6C
00
78
0C
7C
CC
DC
6C
00
00
ENDCHAR
STARTCHAR aring
ENCODING 229
SWIDTH 426 0
DWIDTH 6 0
BBX 6 13 0 -2
BITMAP
00
38
28
38
00
78
0C
7C
CC
DC
6C
00
00
ENDCHAR
STARTCHAR ae
ENCODING 230
SWIDTH 426 0
DWIDTH 6 0
BBX 6 13 0 -2
BITMAP
00
00
00
00
00
78
34
78
B0
B4
68
00
00
ENDCHAR
STARTCHAR ccedilla
ENCODING 231
SWIDTH 426 0
DWIDTH 6 0
BBX 6 13 0 -2
BITMAP
00
00
00
00
00
78
CC
C0
C0
CC
78
30
60
ENDCHAR
STARTCHAR egrave
ENCODING 232
SWIDTH 426 0
DWIDTH 6 0
BBX 6 13 0 -2
BITMAP
00
00
60
30
00
78
CC
FC
C0
C0
78
00
00
ENDCHAR
STARTCHAR eacute
ENCODING 233
SWIDTH 426 0
DWIDTH 6 0
BBX 6 13 0 -2
BITMAP
00
00
18
30
00
78
CC
FC
C0
C0
78
00
00
ENDCHAR
STARTCHAR ecircumflex
ENCODING 234
SWIDTH 426 0
DWIDTH 6 0
BBX 6 13 0 -2
BITMAP
00
00
38
6C
00
78
CC
FC
C0
C0
78
00
00
ENDCHAR
STARTCHAR edieresis
ENCODING 235
SWIDTH 426 0
DWIDTH 6 0
BBX 6 13 0 -2
BITMAP
00
00
6C
6C
00
78
CC
FC
C0
C0
78
00
00
ENDCHAR
STARTCHAR igrave
ENCODING 236
SWIDTH 426 0
DWIDTH 6 0
BBX 6 13 0 -2
BITMAP
00
00
60
30
00
70
30
30
30
30
78
00
00
ENDCHAR
STARTCHAR iacute
ENCODING 237
SWIDTH 426 0
DWIDTH 6 0
BBX 6 13 0 -2
BITMAP
00
00
18
30
00
70
30
30
30
30
78
00
00
ENDCHAR
STARTCHAR icircumflex
ENCODING 238
SWIDTH 426 0
DWIDTH 6 0
BBX 6 13 0 -2
BITMAP
00
00
70
D8
00
70
30
30
30
30
78
00
00
ENDCHAR
STARTCHAR idieresis
ENCODING 239
SWIDTH 426 0
DWIDTH 6 0
BBX 6 13 0 -2
BITMAP
00
00
D8
D8
00
70
30
30
30
30
78
00
00
ENDCHAR
STARTCHAR eth
ENCODING 240
SWIDTH 426 0
DWIDTH 6 0
BBX 6 13 0 -2
BITMAP
00
D8
70
F0
98
78
CC
CC
CC
CC
78
00
00
ENDCHAR
STARTCHAR ntilde
ENCODING 241
SWIDTH 426 0
DWIDTH 6 0
BBX 6 13 0 -2
BITMAP
00
00
34
58
00
D8
EC
CC
CC
CC
CC
00
00
ENDCHAR
STARTCHAR ograve
ENCODING 242
SWIDTH 426 0
DWIDTH 6 0
BBX 6 13 0 -2
BITMAP
00
00
60
30
00
78
CC
CC
CC
CC
78
00
00
ENDCHAR
STARTCHAR oacute
ENCODING 243
SWIDTH 426 0
DWIDTH 6 0
BBX 6 13 0 -2
BITMAP
00
00
18
30
00
78
CC
CC
CC
CC
78
00
00
ENDCHAR
STARTCHAR ocircumflex
ENCODING 244
SWIDTH 426 0
DWIDTH 6 0
BBX 6 13 0 -2
BITMAP
00
00
38
6C
00
78
CC
CC
CC
CC
78
00
00
ENDCHAR
STARTCHAR otilde
ENCODING 245
SWIDTH 426 0
DWIDTH 6 0
BBX 6 13 0 -2
BITMAP
00
00
34
58
00
78
CC
CC
CC
CC
78
00
00
ENDCHAR
STARTCHAR odieresis
ENCODING 246
SWIDTH 426 0
DWIDTH 6 0
BBX 6 13 0 -2
BITMAP
00
00
CC
CC
00
78
CC
CC
CC
CC
78
00
00
ENDCHAR
STARTCHAR divide
ENCODING 247
SWIDTH 426 0
DWIDTH 6 0
BBX 6 13 0 -2
BITMAP
00
00
00
30
30
00
FC
00
30
30
00
00
00
ENDCHAR
STARTCHAR oslash
ENCODING 248
SWIDTH 426 0
DWIDTH 6 0
BBX 6 13 0 -2
BITMAP
00
00
00
04
78
CC
DC
CC
EC
CC
78
80
00
ENDCHAR
STARTCHAR ugrave
ENCODING 249
SWIDTH 426 0
DWIDTH 6 0
BBX 6 13 0 -2
BITMAP
00
00
60
30
00
CC
CC
CC
CC
DC
6C
00
00
ENDCHAR
STARTCHAR uacute
ENCODING 250
SWIDTH 426 0
DWIDTH 6 0
BBX 6 13 0 -2
BITMAP
00
00
18
30
00
CC
CC
CC
CC
DC
6C
00
00
ENDCHAR
STARTCHAR ucircumflex
ENCODING 251
SWIDTH 426 0
DWIDTH 6 0
BBX 6 13 0 -2
BITMAP
00
00
38
6C
00
CC
CC
CC
CC
DC
6C
00
00
ENDCHAR
STARTCHAR udieresis
ENCODING 252
SWIDTH 426 0
DWIDTH 6 0
BBX 6 13 0 -2
BITMAP
00
00
CC
CC
00
CC
CC
CC
CC
DC
6C
00
00
ENDCHAR
STARTCHAR yacute
ENCODING 253
SWIDTH 426 0
DWIDTH 6 0
BBX 6 13 0 -2
BITMAP
00
00
18
30
00
CC
CC
CC
DC
6C
0C
CC
78
ENDCHAR
STARTCHAR thorn
ENCODING 254
SWIDTH 426 0
DWIDTH 6 0
BBX 6 13 0 -2
BITMAP
00
00
00
C0
C0
D8
EC
CC
EC
D8
C0
C0
C0
ENDCHAR
STARTCHAR ydieresis
ENCODING 255
SWIDTH 426 0
DWIDTH 6 0
BBX 6 13 0 -2
BITMAP
00
00
CC
CC
00
CC
CC
CC
DC
6C
0C
CC
78
ENDCHAR
STARTCHAR Amacron
ENCODING 256
SWIDTH 426 0
DWIDTH 6 0
BBX 6 13 0 -2
BITMAP
00
78
00
30
78
CC
CC
FC
CC
CC
CC
00
00
ENDCHAR
STARTCHAR amacron
ENCODING 257
SWIDTH 426 0
DWIDTH 6 0
BBX 6 13 0 -2
BITMAP
00
00
00
7C
00
78
0C
7C
CC
DC
6C
00
00
ENDCHAR
STARTCHAR Abreve
ENCODING 258
SWIDTH 426 0
DWIDTH 6 0
BBX 6 13 0 -2
BITMAP
00
44
38
00
30
78
CC
CC
FC
CC
CC
00
00
ENDCHAR
STARTCHAR abreve
ENCODING 259
SWIDTH 426 0
DWIDTH 6 0
BBX 6 13 0 -2
BITMAP
00
00
44
38
00
78
0C
7C
CC
DC
6C
00
00
ENDCHAR
STARTCHAR Aogonek
ENCODING 260
SWIDTH 426 0
DWIDTH 6 0
BBX 6 13 0 -2
BITMAP
00
00
30
78
CC
CC
CC
FC
CC
CC
CC
0C
04
ENDCHAR
STARTCHAR aogonek
ENCODING 261
SWIDTH 426 0
DWIDTH 6 0
BBX 6 13 0 -2
BITMAP
00
00
00
00
00
78
0C
7C
CC
DC
6C
0C
04
ENDCHAR
STARTCHAR Cacute
ENCODING 262
SWIDTH 426 0
DWIDTH 6 0
BBX 6 13 0 -2
BITMAP
00
18
30
00
78
CC
C0
C0
C0
CC
78
00
00
ENDCHAR
STARTCHAR cacute
ENCODING 263
SWIDTH 426 0
DWIDTH 6 0
BBX 6 13 0 -2
BITMAP
00
00
18
30
00
78
CC
C0
C0
CC
78
00
00
ENDCHAR
STARTCHAR Ccircumflex
ENCODING 264
SWIDTH 426 0
DWIDTH 6 0
BBX 6 13 0 -2
BITMAP
00
38
6C
00
78
CC
C0
C0
C0
CC
78
00
00
ENDCHAR
STARTCHAR ccircumflex
ENCODING 265
SWIDTH 426 0
DWIDTH 6 0
BBX 6 13 0 -2
BITMAP
00
00
38
6C
00
78
CC
C0
C0
CC
78
00
00
ENDCHAR
STARTCHAR Cdotaccent
ENCODING 266
SWIDTH 426 0
DWIDTH 6 0
BBX 6 13 0 -2
BITMAP
00
30
30
00
78
CC
C0
C0
C0
CC
78
00
00
ENDCHAR
STARTCHAR cdotaccent
ENCODING 267
SWIDTH 426 0
DWIDTH 6 0
BBX 6 13 0 -2
BITMAP
00
00
30
30
00
78
CC
C0
C0
CC
78
00
00
ENDCHAR
STARTCHAR Ccaron
ENCODING 268
SWIDTH 426 0
DWIDTH 6 0
BBX 6 13 0 -2
BITMAP
00
6C
38
00
78
CC
C0
C0
C0
CC
78
00
00
ENDCHAR
STARTCHAR ccaron
ENCODING 269
SWIDTH 426 0
DWIDTH 6 0
BBX 6 13 0 -2
BITMAP
00
00
6C
38
00
78
CC
C0
C0
CC
78
00
00
ENDCHAR
STARTCHAR Dcaron
ENCODING 270
SWIDTH 426 0
DWIDTH 6 0
BBX 6 13 0 -2
BITMAP
00
6C
38
00
F8
6C
6C
6C
6C
6C
F8
00
00
ENDCHAR
STARTCHAR dcaron
ENCODING 271
SWIDTH 426 0
DWIDTH 6 0
BBX 6 13 0 -2
BITMAP
00
6C
38
00
0C
0C
6C
DC
CC
DC
6C
00
00
ENDCHAR
STARTCHAR Dcroat
ENCODING 272
SWIDTH 426 0
DWIDTH 6 0
BBX 6 13 0 -2
BITMAP
00
00
F8
6C
6C
6C
FC
6C
6C
6C
F8
00
00
ENDCHAR
STARTCHAR dcroat
ENCODING 273
SWIDTH 426 0
DWIDTH 6 0
BBX 6 13 0 -2
BITMAP
00
00
0C
7C
0C
6C
DC
CC
CC
DC
6C
00
00
ENDCHAR
STARTCHAR Emacron
ENCODING 274
SWIDTH 426 0
DWIDTH 6 0
BBX 6 13 0 -2
BITMAP
00
7C
00
FC
C0
C0
F8
C0
C0
C0
FC
00
00
ENDCHAR
STARTCHAR emacron
ENCODING 275
SWIDTH 426 0
DWIDTH 6 0
BBX 6 13 0 -2
BITMAP
00
00
00
7C
00
78
CC
FC
C0
C0
78
00
00
ENDCHAR
STARTCHAR Ebreve
ENCODING 276
SWIDTH 426 0
DWIDTH 6 0
BBX 6 13 0 -2
BITMAP
00
44
38
00
FC
C0
C0
F8
C0
C0
FC
00
00
ENDCHAR
STARTCHAR ebreve
ENCODING 277
SWIDTH 426 0
DWIDTH 6 0
BBX 6 13 0 -2
BITMAP
00
00
44
38
00
78
CC
FC
C0
C0
78
00
00
ENDCHAR
STARTCHAR Edotaccent
ENCODING 278
SWIDTH 426 0
DWIDTH 6 0
BBX 6 13 0 -2
BITMAP
00
30
30
00
FC
C0
C0
F8
C0
C0
FC
00
00
ENDCHAR
STARTCHAR edotaccent
ENCODING 279
SWIDTH 426 0
DWIDTH 6 0
BBX 6 13 0 -2
BITMAP
00
00
30
30
00
78
CC
FC
C0
C0
78
00
00
ENDCHAR
STARTCHAR Eogonek
ENCODING 280
SWIDTH 426 0
DWIDTH 6 0
BBX 6 13 0 -2
BITMAP
00
00
FC
C0
C0
C0
F8
C0
C0
C0
FC
20
10
ENDCHAR
STARTCHAR eogonek
ENCODING 281
SWIDTH 426 0
DWIDTH 6 0
BBX 6 13 0 -2
BITMAP
00
00
00
00
00
78
CC
FC
C0
C0
78
20
10
ENDCHAR
STARTCHAR Ecaron
ENCODING 282
SWIDTH 426 0
DWIDTH 6 0
BBX 6 13 0 -2
BITMAP
00
6C
38
00
FC
C0
C0
F8
C0
C0
FC
00
00
ENDCHAR
STARTCHAR ecaron
ENCODING 283
SWIDTH 426 0
DWIDTH 6 0
BBX 6 13 0 -2
BITMAP
00
00
6C
38
00
78
CC
FC
C0
C0
78
00
00
ENDCHAR
STARTCHAR Gcircumflex
ENCODING 284
SWIDTH 426 0
DWIDTH 6 0
BBX 6 13 0 -2
BITMAP
00
38
6C
00
78
CC
C0
C0
DC
CC
78
00
00
ENDCHAR
STARTCHAR gcircumflex
ENCODING 285
SWIDTH 426 0
DWIDTH 6 0
BBX 6 13 0 -2
BITMAP
00
00
38
6C
00
7C
D8
D8
70
C0
78
CC
78
ENDCHAR
STARTCHAR Gbreve
ENCODING 286
SWIDTH 426 0
DWIDTH 6 0
BBX 6 13 0 -2
BITMAP
00
44
38
00
78
CC
C0
C0
DC
CC
78
00
00
ENDCHAR
STARTCHAR gbreve
ENCODING 287
SWIDTH 426 0
DWIDTH 6 0
BBX 6 13 0 -2
BITMAP
00
00
44
38
00
7C
D8
D8
70
C0
78
CC
78
ENDCHAR
STARTCHAR Gdotaccent
ENCODING 288
SWIDTH 426 0
DWIDTH 6 0
BBX 6 13 0 -2
BITMAP
00
30
30
00
78
CC
C0
C0
DC
CC
78
00
00
ENDCHAR
STARTCHAR gdotaccent
ENCODING 289
SWIDTH 426 0
DWIDTH 6 0
BBX 6 13 0 -2
BITMAP
00
00
30
30
00
7C
D8
D8
70
C0
78
CC
78
ENDCHAR
STARTCHAR Gcommaaccent
ENCODING 290
SWIDTH 426 0
DWIDTH 6 0
BBX 6 13 0 -2
BITMAP
00
00
78
CC
C0
C0
C0
DC
CC
CC
78
10
20
ENDCHAR
STARTCHAR gcommaaccent
ENCODING 291
SWIDTH 426 0
DWIDTH 6 0
BBX 6 13 0 -2
BITMAP
00
0C
18
18
00
7C
D8
D8
70
C0
78
CC
78
ENDCHAR
STARTCHAR Hcircumflex
ENCODING 292
SWIDTH 426 0
DWIDTH 6 0
BBX 6 13 0 -2
BITMAP
00
38
6C
00
CC
CC
CC
FC
CC
CC
CC
00
00
ENDCHAR
STARTCHAR hcircumflex
ENCODING 293
SWIDTH 426 0
DWIDTH 6 0
BBX 6 13 0 -2
BITMAP
00
38
6C
00
C0
C0
D8
EC
CC
CC
CC
00
00
ENDCHAR
STARTCHAR Hbar
ENCODING 294
SWIDTH 426 0
DWIDTH 6 0
BBX 6 13 0 -2
BITMAP
00
00
CC
CC
FC
CC
FC
CC
CC
CC
CC
00
00
ENDCHAR
STARTCHAR hbar
ENCODING 295
SWIDTH 426 0
DWIDTH 6 0
BBX 6 13 0 -2
BITMAP
00
00
C0
F8
C0
D8
EC
CC
CC
CC
CC
00
00
ENDCHAR
STARTCHAR Itilde
ENCODING 296
SWIDTH 426 0
DWIDTH 6 0
BBX 6 13 0 -2
BITMAP
00
68
B0
00
F0
60
60
60
60
60
F0
00
00
ENDCHAR
STARTCHAR itilde
ENCODING 297
SWIDTH 426 0
DWIDTH 6 0
BBX 6 13 0 -2
BITMAP
00
00
68
B0
00
E0
60
60
60
60
F0
00
00
ENDCHAR
STARTCHAR Imacron
ENCODING 298
SWIDTH 426 0
DWIDTH 6 0
BBX 6 13 0 -2
BITMAP
00
78
00
78
30
30
30
30
30
30
78
00
00
ENDCHAR
STARTCHAR imacron
ENCODING 299
SWIDTH 426 0
DWIDTH 6 0
BBX 6 13 0 -2
BITMAP
00
00
00
78
00
70
30
30
30
30
78
00
00
ENDCHAR
STARTCHAR Ibreve
ENCODING 300
SWIDTH 426 0
DWIDTH 6 0
BBX 6 13 0 -2
BITMAP
00
88
70
00
F0
60
60
60
60
60
F0
00
00
ENDCHAR
STARTCHAR ibreve
ENCODING 301
SWIDTH 426 0
DWIDTH 6 0
BBX 6 13 0 -2
BITMAP
00
00
88
70
00
70
30
30
30
30
78
00
00
ENDCHAR
STARTCHAR Iogonek
ENCODING 302
SWIDTH 426 0
DWIDTH 6 0
BBX 6 13 0 -2
BITMAP
00
00
78
30
30
30
30
30
30
30
78
20
10
ENDCHAR
STARTCHAR iogonek
ENCODING 303
SWIDTH 426 0
DWIDTH 6 0
BBX 6 13 0 -2
BITMAP
00
00
30
30
00
70
30
30
30
30
78
20
10
ENDCHAR
STARTCHAR Idotaccent
ENCODING 304
SWIDTH 426 0
DWIDTH 6 0
BBX 6 13 0 -2
BITMAP
00
30
30
00
78
30
30
30
30
30
78
00
00
ENDCHAR
STARTCHAR dotlessi
ENCODING 305
SWIDTH 426 0
DWIDTH 6 0
BBX 6 13 0 -2
BITMAP
00
00
00
00
00
70
30
30
30
30
78
00
00
ENDCHAR
STARTCHAR IJ
ENCODING 306
SWIDTH 426 0
DWIDTH 6 0
BBX 6 13 0 -2
BITMAP
00
00
DC
CC
CC
CC
CC
CC
CC
EC
D8
00
00
ENDCHAR
STARTCHAR ij
ENCODING 307
SWIDTH 426 0
DWIDTH 6 0
BBX 6 13 0 -2
BITMAP
00
00
CC
CC
00
DC
CC
CC
CC
CC
EC
2C
18
ENDCHAR
STARTCHAR Jcircumflex
ENCODING 308
SWIDTH 426 0
DWIDTH 6 0
BBX 6 13 0 -2
BITMAP
00
38
6C
00
3C
0C
0C
0C
0C
CC
78
00
00
ENDCHAR
STARTCHAR jcircumflex
ENCODING 309
SWIDTH 426 0
DWIDTH 6 0
BBX 6 13 0 -2
BITMAP
00
00
38
6C
00
38
18
18
18
18
D8
D8
70
ENDCHAR
STARTCHAR Kcommaaccent
ENCODING 310
SWIDTH 426 0
DWIDTH 6 0
BBX 6 13 0 -2
BITMAP
00
00
CC
CC
D8
F0
E0
F0
D8
CC
CC
60
C0
ENDCHAR
STARTCHAR kcommaaccent
ENCODING 311
SWIDTH 426 0
DWIDTH 6 0
BBX 6 13 0 -2
BITMAP
00
00
C0
C0
C0
D8
F0
E0
F0
D8
CC
60
C0
ENDCHAR
STARTCHAR kgreenlandic
ENCODING 312
SWIDTH 426 0
DWIDTH 6 0
BBX 6 13 0 -2
BITMAP
00
00
00
00
00
CC
D8
F0
F0
D8
CC
00
00
ENDCHAR
STARTCHAR Lacute
ENCODING 313
SWIDTH 426 0
DWIDTH 6 0
BBX 6 13 0 -2
BITMAP
00
18
30
00
C0
C0
C0
C0
C0
C0
FC
00
00
ENDCHAR
STARTCHAR lacute
ENCODING 314
SWIDTH 426 0
DWIDTH 6 0
BBX 6 13 0 -2
BITMAP
00
18
30
00
70
30
30
30
30
30
78
00
00
ENDCHAR
STARTCHAR Lcommaaccent
ENCODING 315
SWIDTH 426 0
DWIDTH 6 0
BBX 6 13 0 -2
BITMAP
00
00
C0
C0
C0
C0
C0
C0
C0
C0
FC
30
60
ENDCHAR
STARTCHAR lcommaaccent
ENCODING 316
SWIDTH 426 0
DWIDTH 6 0
BBX 6 13 0 -2
BITMAP
00
00
70
30
30
30
30
30
30
30
78
30
60
ENDCHAR
STARTCHAR Lcaron
ENCODING 317
SWIDTH 426 0
DWIDTH 6 0
BBX 6 13 0 -2
BITMAP
00
D8
70
00
C0
C0
C0
C0
C0
C0
FC
00
00
ENDCHAR
STARTCHAR lcaron
ENCODING 318
SWIDTH 426 0
DWIDTH 6 0
BBX 6 13 0 -2
BITMAP
00
D8
70
00
70
30
30
30
30
30
78
00
00
ENDCHAR
STARTCHAR Ldot
ENCODING 319
SWIDTH 426 0
DWIDTH 6 0
BBX 6 13 0 -2
BITMAP
00
00
C0
C0
C0
D8
D8
C0
C0
C0
FC
00
00
ENDCHAR
STARTCHAR ldot
ENCODING 320
SWIDTH 426 0
DWIDTH 6 0
BBX 6 13 0 -2
BITMAP
00
00
E0
60
60
6C
6C
60
60
60
F0
00
00
ENDCHAR
STARTCHAR Lslash
ENCODING 321
SWIDTH 426 0
DWIDTH 6 0
BBX 6 13 0 -2
BITMAP
00
00
60
60
68
70
60
E0
60
60
7C
00
00
ENDCHAR
STARTCHAR lslash
ENCODING 322
SWIDTH 426 0
DWIDTH 6 0
BBX 6 13 0 -2
BITMAP
00
00
E0
60
68
70
60
E0
60
60
F0
00
00
ENDCHAR
STARTCHAR Nacute
ENCODING 323
SWIDTH 426 0
DWIDTH 6 0
BBX 6 13 0 -2
BITMAP
00
18
30
00
CC
EC
EC
FC
DC
CC
CC
00
00
ENDCHAR
STARTCHAR nacute
ENCODING 324
SWIDTH 426 0
DWIDTH 6 0
BBX 6 13 0 -2
BITMAP
00
00
18
30
00
D8
EC
CC
CC
CC
CC
00
00
ENDCHAR
STARTCHAR Ncommaaccent
ENCODING 325
SWIDTH 426 0
DWIDTH 6 0
BBX 6 13 0 -2
BITMAP
00
00
CC
EC
EC
FC
FC
DC
DC
CC
CC
60
C0
ENDCHAR
STARTCHAR ncommaaccent
ENCODING 326
SWIDTH 426 0
DWIDTH 6 0
BBX 6 13 0 -2
BITMAP
00
00
00
00
00
D8
EC
CC
CC
CC
CC
60
C0
ENDCHAR
STARTCHAR Ncaron
ENCODING 327
SWIDTH 426 0
DWIDTH 6 0
BBX 6 13 0 -2
BITMAP
00
6C
38
00
CC
EC
EC
FC
DC
CC
CC
00
00
ENDCHAR
STARTCHAR ncaron
ENCODING 328
SWIDTH 426 0
DWIDTH 6 0
BBX 6 13 0 -2
BITMAP
00
00
6C
38
00
D8
EC
CC
CC
CC
CC
00
00
ENDCHAR
STARTCHAR napostrophe
ENCODING 329
SWIDTH 426 0
DWIDTH 6 0
BBX 6 13 0 -2
BITMAP
00
60
60
C0
00
D8
EC
CC
CC
CC
CC
00
00
ENDCHAR
STARTCHAR Eng
ENCODING 330
SWIDTH 426 0
DWIDTH 6 0
BBX 6 13 0 -2
BITMAP
00
00
CC
EC
EC
FC
FC
DC
DC
CC
CC
2C
18
ENDCHAR
STARTCHAR eng
ENCODING 331
SWIDTH 426 0
DWIDTH 6 0
BBX 6 13 0 -2
BITMAP
00
00
00
00
00
D8
EC
CC
CC
CC
CC
2C
18
ENDCHAR
STARTCHAR Omacron
ENCODING 332
SWIDTH 426 0
DWIDTH 6 0
BBX 6 13 0 -2
BITMAP
00
7C
00
78
CC
CC
CC
CC
CC
CC
78
00
00
ENDCHAR
STARTCHAR omacron
ENCODING 333
SWIDTH 426 0
DWIDTH 6 0
BBX 6 13 0 -2
BITMAP
00
00
00
7C
00
78
CC
CC
CC
CC
78
00
00
ENDCHAR
STARTCHAR Obreve
ENCODING 334
SWIDTH 426 0
DWIDTH 6 0
BBX 6 13 0 -2
BITMAP
00
44
38
00
78
CC
CC
CC
CC
CC
78
00
00
ENDCHAR
STARTCHAR obreve
ENCODING 335
SWIDTH 426 0
DWIDTH 6 0
BBX 6 13 0 -2
BITMAP
00
00
44
38
00
78
CC
CC
CC
CC
78
00
00
ENDCHAR
STARTCHAR Ohungarumlaut
ENCODING 336
SWIDTH 426 0
DWIDTH 6 0
BBX 6 13 0 -2
BITMAP
00
6C
48
00
78
CC
CC
CC
CC
CC
78
00
00
ENDCHAR
STARTCHAR ohungarumlaut
ENCODING 337
SWIDTH 426 0
DWIDTH 6 0
BBX 6 13 0 -2
BITMAP
00
00
6C
48
00
78
CC
CC
CC
CC
78
00
00
ENDCHAR
STARTCHAR OE
ENCODING 338
SWIDTH 426 0
DWIDTH 6 0
BBX 6 13 0 -2
BITMAP
00
00
7C
D8
D8
D8
DC
D8
D8
D8
7C
00
00
ENDCHAR
STARTCHAR oe
ENCODING 339
SWIDTH 426 0
DWIDTH 6 0
BBX 6 13 0 -2
BITMAP
00
00
00
00
00
78
D4
D8
D0
D4
78
00
00
ENDCHAR
STARTCHAR Racute
ENCODING 340
SWIDTH 426 0
DWIDTH 6 0
BBX 6 13 0 -2
BITMAP
00
18
30
00
F8
CC
CC
F8
F0
D8
CC
00
00
ENDCHAR
STARTCHAR racute
ENCODING 341
SWIDTH 426 0
DWIDTH 6 0
BBX 6 13 0 -2
BITMAP
00
00
18
30
00
F8
EC
C0
C0
C0
C0
00
00
ENDCHAR
STARTCHAR Rcommaaccent
ENCODING 342
SWIDTH 426 0
DWIDTH 6 0
BBX 6 13 0 -2
BITMAP
00
00
F8
CC
CC
CC
F8
F0
D8
CC
CC
60
C0
ENDCHAR
STARTCHAR rcommaaccent
ENCODING 343
SWIDTH 426 0
DWIDTH 6 0
BBX 6 13 0 -2
BITMAP
00
00
00
00
00
F8
EC
C0
C0
C0
C0
60
C0
ENDCHAR
STARTCHAR Rcaron
ENCODING 344
SWIDTH 426 0
DWIDTH 6 0
BBX 6 13 0 -2
BITMAP
00
D8
70
00
F8
CC
CC
F8
F0
D8
CC
00
00
ENDCHAR
STARTCHAR rcaron
ENCODING 345
SWIDTH 426 0
DWIDTH 6 0
BBX 6 13 0 -2
BITMAP
00
00
D8
70
00
D8
EC
C0
C0
C0
C0
00
00
ENDCHAR
STARTCHAR Sacute
ENCODING 346
SWIDTH 426 0
DWIDTH 6 0
BBX 6 13 0 -2
BITMAP
00
18
30
00
78
CC
C0
78
0C
CC
78
00
00
ENDCHAR
STARTCHAR sacute
ENCODING 347
SWIDTH 426 0
DWIDTH 6 0
BBX 6 13 0 -2
BITMAP
00
00
18
30
00
78
CC
70
18
CC
78
00
00
ENDCHAR
STARTCHAR Scircumflex
ENCODING 348
SWIDTH 426 0
DWIDTH 6 0
BBX 6 13 0 -2
BITMAP
00
38
6C
00
78
CC
C0
78
0C
CC
78
00
00
ENDCHAR
STARTCHAR scircumflex
ENCODING 349
SWIDTH 426 0
DWIDTH 6 0
BBX 6 13 0 -2
BITMAP
00
00
38
6C
00
78
CC
70
18
CC
78
00
00
ENDCHAR
STARTCHAR Scedilla
ENCODING 350
SWIDTH 426 0
DWIDTH 6 0
BBX 6 13 0 -2
BITMAP
00
00
78
CC
C0
C0
78
0C
0C
CC
78
30
60
ENDCHAR
STARTCHAR scedilla
ENCODING 351
SWIDTH 426 0
DWIDTH 6 0
BBX 6 13 0 -2
BITMAP
00
00
00
00
00
78
CC
70
18
CC
78
30
60
ENDCHAR
STARTCHAR Scaron
ENCODING 352
SWIDTH 426 0
DWIDTH 6 0
BBX 6 13 0 -2
BITMAP
00
6C
38
00
78
CC
C0
78
0C
CC
78
00
00
ENDCHAR
STARTCHAR scaron
ENCODING 353
SWIDTH 426 0
DWIDTH 6 0
BBX 6 13 0 -2
BITMAP
00
00
6C
38
00
78
CC
70
18
CC
78
00
00
ENDCHAR
STARTCHAR Tcommaaccent
ENCODING 354
SWIDTH 426 0
DWIDTH 6 0
BBX 6 13 0 -2
BITMAP
00
00
FC
30
30
30
30
30
30
30
30
18
30
ENDCHAR
STARTCHAR tcommaaccent
ENCODING 355
SWIDTH 426 0
DWIDTH 6 0
BBX 6 13 0 -2
BITMAP
00
00
00
60
60
F8
60
60
60
6C
38
18
30
ENDCHAR
STARTCHAR Tcaron
ENCODING 356
SWIDTH 426 0
DWIDTH 6 0
BBX 6 13 0 -2
BITMAP
00
6C
38
00
FC
30
30
30
30
30
30
00
00
ENDCHAR
STARTCHAR tcaron
ENCODING 357
SWIDTH 426 0
DWIDTH 6 0
BBX 6 13 0 -2
BITMAP
00
D8
70
00
60
60
F8
60
60
6C
38
00
00
ENDCHAR
STARTCHAR Tbar
ENCODING 358
SWIDTH 426 0
DWIDTH 6 0
BBX 6 13 0 -2
BITMAP
00
00
FC
30
30
78
30
30
30
30
30
00
00
ENDCHAR
STARTCHAR tbar
ENCODING 359
SWIDTH 426 0
DWIDTH 6 0
BBX 6 13 0 -2
BITMAP
00
00
00
60
60
F8
60
F0
60
6C
38
00
00
ENDCHAR
STARTCHAR Utilde
ENCODING 360
SWIDTH 426 0
DWIDTH 6 0
BBX 6 13 0 -2
BITMAP
00
34
58
00
CC
CC
CC
CC
CC
CC
78
00
00
ENDCHAR
STARTCHAR utilde
ENCODING 361
SWIDTH 426 0
DWIDTH 6 0
BBX 6 13 0 -2
BITMAP
00
00
34
58
00
CC
CC
CC
CC
DC
6C
00
00
ENDCHAR
STARTCHAR Umacron
ENCODING 362
SWIDTH 426 0
DWIDTH 6 0
BBX 6 13 0 -2
BITMAP
00
7C
00
CC
CC
CC
CC
CC
CC
CC
78
00
00
ENDCHAR
STARTCHAR umacron
ENCODING 363
SWIDTH 426 0
DWIDTH 6 0
BBX 6 13 0 -2
BITMAP
00
00
00
7C
00
CC
CC
CC
CC
DC
6C
00
00
ENDCHAR
STARTCHAR Ubreve
ENCODING 364
SWIDTH 426 0
DWIDTH 6 0
BBX 6 13 0 -2
BITMAP
00
44
38
00
CC
CC
CC
CC
CC
CC
78
00
00
ENDCHAR
STARTCHAR ubreve
ENCODING 365
SWIDTH 426 0
DWIDTH 6 0
BBX 6 13 0 -2
BITMAP
00
00
44
38
00
CC
CC
CC
CC
DC
6C
00
00
ENDCHAR
STARTCHAR Uring
ENCODING 366
SWIDTH 426 0
DWIDTH 6 0
BBX 6 13 0 -2
BITMAP
78
48
78
00
CC
CC
CC
CC
CC
CC
78
00
00
ENDCHAR
STARTCHAR uring
ENCODING 367
SWIDTH 426 0
DWIDTH 6 0
BBX 6 13 0 -2
BITMAP
00
78
48
78
00
CC
CC
CC
CC
DC
6C
00
00
ENDCHAR
STARTCHAR Uhungarumlaut
ENCODING 368
SWIDTH 426 0
DWIDTH 6 0
BBX 6 13 0 -2
BITMAP
00
6C
48
00
CC
CC
CC
CC
CC
CC
78
00
00
ENDCHAR
STARTCHAR uhungarumlaut
ENCODING 369
SWIDTH 426 0
DWIDTH 6 0
BBX 6 13 0 -2
BITMAP
00
00
6C
48
00
CC
CC
CC
CC
DC
6C
00
00
ENDCHAR
STARTCHAR Uogonek
ENCODING 370
SWIDTH 426 0
DWIDTH 6 0
BBX 6 13 0 -2
BITMAP
00
00
CC
CC
CC
CC
CC
CC
CC
CC
78
30
18
ENDCHAR
STARTCHAR uogonek
ENCODING 371
SWIDTH 426 0
DWIDTH 6 0
BBX 6 13 0 -2
BITMAP
00
00
00
00
00
CC
CC
CC
CC
DC
74
30
18
ENDCHAR
STARTCHAR Wcircumflex
ENCODING 372
SWIDTH 426 0
DWIDTH 6 0
BBX 6 13 0 -2
BITMAP
00
38
6C
00
CC
CC
CC
FC
FC
FC
CC
00
00
ENDCHAR
STARTCHAR wcircumflex
ENCODING 373
SWIDTH 426 0
DWIDTH 6 0
BBX 6 13 0 -2
BITMAP
00
00
38
6C
00
CC
CC
FC
FC
FC
48
00
00
ENDCHAR
STARTCHAR Ycircumflex
ENCODING 374
SWIDTH 426 0
DWIDTH 6 0
BBX 6 13 0 -2
BITMAP
00
38
6C
00
CC
CC
78
78
30
30
30
00
00
ENDCHAR
STARTCHAR ycircumflex
ENCODING 375
SWIDTH 426 0
DWIDTH 6 0
BBX 6 13 0 -2
BITMAP
00
00
38
6C
00
CC
CC
CC
DC
6C
0C
CC
78
ENDCHAR
STARTCHAR Ydieresis
ENCODING 376
SWIDTH 426 0
DWIDTH 6 0
BBX 6 13 0 -2
BITMAP
00
CC
CC
00
CC
CC
78
78
30
30
30
00
00
ENDCHAR
STARTCHAR Zacute
ENCODING 377
SWIDTH 426 0
DWIDTH 6 0
BBX 6 13 0 -2
BITMAP
00
18
30
00
FC
0C
18
30
60
C0
FC
00
00
ENDCHAR
STARTCHAR zacute
ENCODING 378
SWIDTH 426 0
DWIDTH 6 0
BBX 6 13 0 -2
BITMAP
00
00
18
30
00
FC
18
30
60
C0
FC
00
00
ENDCHAR
STARTCHAR Zdotaccent
ENCODING 379
SWIDTH 426 0
DWIDTH 6 0
BBX 6 13 0 -2
BITMAP
00
30
30
00
FC
0C
18
30
60
C0
FC
00
00
ENDCHAR
STARTCHAR zdotaccent
ENCODING 380
SWIDTH 426 0
DWIDTH 6 0
BBX 6 13 0 -2
BITMAP
00
00
30
30
00
FC
18
30
60
C0
FC
00
00
ENDCHAR
STARTCHAR Zcaron
ENCODING 381
SWIDTH 426 0
DWIDTH 6 0
BBX 6 13 0 -2
BITMAP
00
6C
38
00
FC
0C
18
30
60
C0
FC
00
00
ENDCHAR
STARTCHAR zcaron
ENCODING 382
SWIDTH 426 0
DWIDTH 6 0
BBX 6 13 0 -2
BITMAP
00
00
6C
38
00
FC
18
30
60
C0
FC
00
00
ENDCHAR
STARTCHAR longs
ENCODING 383
SWIDTH 426 0
DWIDTH 6 0
BBX 6 13 0 -2
BITMAP
00
00
38
6C
60
60
E0
60
60
60
60
00
00
ENDCHAR
STARTCHAR uni0180
ENCODING 384
SWIDTH 426 0
DWIDTH 6 0
BBX 6 13 0 -2
BITMAP
00
00
60
F0
60
78
6C
6C
6C
6C
78
00
00
ENDCHAR
STARTCHAR uni0181
ENCODING 385
SWIDTH 426 0
DWIDTH 6 0
BBX 6 13 0 -2
BITMAP
00
00
78
EC
EC
6C
78
6C
6C
6C
78
00
00
ENDCHAR
STARTCHAR uni0182
ENCODING 386
SWIDTH 426 0
DWIDTH 6 0
BBX 6 13 0 -2
BITMAP
00
00
FC
CC
C0
F8
CC
CC
CC
CC
F8
00
00
ENDCHAR
STARTCHAR uni0183
ENCODING 387
SWIDTH 426 0
DWIDTH 6 0
BBX 6 13 0 -2
BITMAP
00
00
F8
D8
C0
F0
D8
D8
D8
D8
F0
00
00
ENDCHAR
STARTCHAR uni0184
ENCODING 388
SWIDTH 426 0
DWIDTH 6 0
BBX 6 13 0 -2
BITMAP
00
00
60
E0
E0
78
6C
6C
6C
6C
78
00
00
ENDCHAR
STARTCHAR uni0185
ENCODING 389
SWIDTH 426 0
DWIDTH 6 0
BBX 6 13 0 -2
BITMAP
00
00
60
E0
E0
70
68
68
68
68
70
00
00
ENDCHAR
STARTCHAR uni0186
ENCODING 390
SWIDTH 426 0
DWIDTH 6 0
BBX 6 13 0 -2
BITMAP
00
00
78
CC
0C
0C
0C
0C
0C
CC
78
00
00
ENDCHAR
STARTCHAR uni0187
ENCODING 391
SWIDTH 426 0
DWIDTH 6 0
BBX 6 13 0 -2
BITMAP
00
04
78
CC
C0
C0
C0
C0
C0
CC
78
00
00
ENDCHAR
STARTCHAR uni0188
ENCODING 392
SWIDTH 426 0
DWIDTH 6 0
BBX 6 13 0 -2
BITMAP
00
00
00
00
04
78
CC
C0
C0
CC
78
00
00
ENDCHAR
STARTCHAR uni0189
ENCODING 393
SWIDTH 426 0
DWIDTH 6 0
BBX 6 13 0 -2
BITMAP
00
00
F8
6C
6C
6C
FC
6C
6C
6C
F8
00
00
ENDCHAR
STARTCHAR uni018A
ENCODING 394
SWIDTH 426 0
DWIDTH 6 0
BBX 6 13 0 -2
BITMAP
00
00
78
EC
EC
6C
6C
6C
6C
6C
F8
00
00
ENDCHAR
STARTCHAR uni018B
ENCODING 395
SWIDTH 426 0
DWIDTH 6 0
BBX 6 13 0 -2
BITMAP
00
00
FC
CC
0C
7C
CC
CC
CC
CC
7C
00
00
ENDCHAR
STARTCHAR uni018C
ENCODING 396
SWIDTH 426 0
DWIDTH 6 0
BBX 6 13 0 -2
BITMAP
00
00
F8
D8
18
78
D8
D8
D8
D8
78
00
00
ENDCHAR
STARTCHAR uni018D
ENCODING 397
SWIDTH 426 0
DWIDTH 6 0
BBX 6 13 0 -2
BITMAP
00
00
00
00
00
78
CC
CC
CC
78
0C
CC
78
ENDCHAR
STARTCHAR uni018E
ENCODING 398
SWIDTH 426 0
DWIDTH 6 0
BBX 6 13 0 -2
BITMAP
00
00
FC
0C
0C
0C
7C
0C
0C
0C
FC
00
00
ENDCHAR
STARTCHAR uni018F
ENCODING 399
SWIDTH 426 0
DWIDTH 6 0
BBX 6 13 0 -2
BITMAP
00
00
78
CC
0C
0C
FC
CC
CC
CC
78
00
00
ENDCHAR
STARTCHAR uni0190
ENCODING 400
SWIDTH 426 0
DWIDTH 6 0
BBX 6 13 0 -2
BITMAP
00
00
78
CC
C0
C0
70
C0
CC
CC
78
00
00
ENDCHAR
STARTCHAR uni0191
ENCODING 401
SWIDTH 426 0
DWIDTH 6 0
BBX 6 13 0 -2
BITMAP
00
00
7C
60
60
60
7C
60
60
60
60
60
C0
ENDCHAR
STARTCHAR florin
ENCODING 402
SWIDTH 426 0
DWIDTH 6 0
BBX 6 13 0 -2
BITMAP
00
00
38
6C
60
60
F8
60
60
60
60
60
C0
ENDCHAR
STARTCHAR uni0193
ENCODING 403
SWIDTH 426 0
DWIDTH 6 0
BBX 6 13 0 -2
BITMAP
00
04
78
CC
C0
C0
C0
DC
CC
CC
78
00
00
ENDCHAR
STARTCHAR uni0194
ENCODING 404
SWIDTH 426 0
DWIDTH 6 0
BBX 6 13 0 -2
BITMAP
00
00
00
00
00
CC
CC
78
30
30
78
78
30
ENDCHAR
STARTCHAR Ohorn
ENCODING 416
SWIDTH 426 0
DWIDTH 6 0
BBX 6 13 0 -2
BITMAP
00
00
74
DC
D8
D8
D8
D8
D8
D8
70
00
00
ENDCHAR
STARTCHAR ohorn
ENCODING 417
SWIDTH 426 0
DWIDTH 6 0
BBX 6 13 0 -2
BITMAP
00
00
00
00
00
74
DC
D8
D8
D8
70
00
00
ENDCHAR
STARTCHAR Uhorn
ENCODING 431
SWIDTH 426 0
DWIDTH 6 0
BBX 6 13 0 -2
BITMAP
00
00
DC
DC
D8
D8
D8
D8
D8
D8
70
00
00
ENDCHAR
STARTCHAR uhorn
ENCODING 432
SWIDTH 426 0
DWIDTH 6 0
BBX 6 13 0 -2
BITMAP
00
00
00
00
00
DC
DC
D8
D8
F8
78
00
00
ENDCHAR
STARTCHAR uni01C0
ENCODING 448
SWIDTH 426 0
DWIDTH 6 0
BBX 6 13 0 -2
BITMAP
00
00
30
30
30
30
30
30
30
30
30
30
30
ENDCHAR
STARTCHAR uni01C1
ENCODING 449
SWIDTH 426 0
DWIDTH 6 0
BBX 6 13 0 -2
BITMAP
00
00
D8
D8
D8
D8
D8
D8
D8
D8
D8
D8
D8
ENDCHAR
STARTCHAR uni01C2
ENCODING 450
SWIDTH 426 0
DWIDTH 6 0
BBX 6 13 0 -2
BITMAP
00
00
00
00
30
30
FC
30
FC
30
30
00
00
ENDCHAR
STARTCHAR uni01C3
ENCODING 451
SWIDTH 426 0
DWIDTH 6 0
BBX 6 13 0 -2
BITMAP
00
00
30
30
30
30
30
30
30
00
30
00
00
ENDCHAR
STARTCHAR uni01CD
ENCODING 461
SWIDTH 426 0
DWIDTH 6 0
BBX 6 13 0 -2
BITMAP
00
6C
38
00
30
78
CC
CC
FC
CC
CC
00
00
ENDCHAR
STARTCHAR uni01CE
ENCODING 462
SWIDTH 426 0
DWIDTH 6 0
BBX 6 13 0 -2
BITMAP
00
00
6C
38
00
78
0C
7C
CC
DC
6C
00
00
ENDCHAR
STARTCHAR uni01CF
ENCODING 463
SWIDTH 426 0
DWIDTH 6 0
BBX 6 13 0 -2
BITMAP
00
6C
38
00
78
30
30
30
30
30
78
00
00
ENDCHAR
STARTCHAR uni01D0
ENCODING 464
SWIDTH 426 0
DWIDTH 6 0
BBX 6 13 0 -2
BITMAP
00
00
D8
70
00
70
30
30
30
30
78
00
00
ENDCHAR
STARTCHAR uni01D1
ENCODING 465
SWIDTH 426 0
DWIDTH 6 0
BBX 6 13 0 -2
BITMAP
00
6C
38
00
78
CC
CC
CC
CC
CC
78
00
00
ENDCHAR
STARTCHAR uni01D2
ENCODING 466
SWIDTH 426 0
DWIDTH 6 0
BBX 6 13 0 -2
BITMAP
00
00
6C
38
00
78
CC
CC
CC
CC
78
00
00
ENDCHAR
STARTCHAR uni01D3
ENCODING 467
SWIDTH 426 0
DWIDTH 6 0
BBX 6 13 0 -2
BITMAP
00
6C
38
00
CC
CC
CC
CC
CC
CC
78
00
00
ENDCHAR
STARTCHAR uni01D4
ENCODING 468
SWIDTH 426 0
DWIDTH 6 0
BBX 6 13 0 -2
BITMAP
00
00
6C
38
00
CC
CC
CC
CC
DC
6C
00
00
ENDCHAR
STARTCHAR Gcaron
ENCODING 486
SWIDTH 426 0
DWIDTH 6 0
BBX 6 13 0 -2
BITMAP
00
6C
38
00
78
CC
C0
DC
CC
CC
78
00
00
ENDCHAR
STARTCHAR gcaron
ENCODING 487
SWIDTH 426 0
DWIDTH 6 0
BBX 6 13 0 -2
BITMAP
00
6C
38
00
00
7C
CC
CC
CC
7C
0C
CC
78
ENDCHAR
STARTCHAR uni01E8
ENCODING 488
SWIDTH 426 0
DWIDTH 6 0
BBX 6 13 0 -2
BITMAP
00
6C
38
00
CC
D8
F0
E0
F0
D8
CC
00
00
ENDCHAR
STARTCHAR uni01E9
ENCODING 489
SWIDTH 426 0
DWIDTH 6 0
BBX 6 13 0 -2
BITMAP
00
D8
70
00
C0
C0
D8
F0
E0
F0
D8
00
00
ENDCHAR
STARTCHAR Scommaaccent
ENCODING 536
SWIDTH 426 0
DWIDTH 6 0
BBX 6 13 0 -2
BITMAP
00
00
78
CC
C0
C0
78
0C
0C
CC
78
30
60
ENDCHAR
STARTCHAR scommaaccent
ENCODING 537
SWIDTH 426 0
DWIDTH 6 0
BBX 6 13 0 -2
BITMAP
00
00
00
00
00
78
CC
70
18
CC
78
30
60
ENDCHAR
STARTCHAR Tcommaaccent
ENCODING 538
SWIDTH 426 0
DWIDTH 6 0
BBX 6 13 0 -2
BITMAP
00
00
FC
30
30
30
30
30
30
30
30
18
30
ENDCHAR
STARTCHAR tcommaaccent
ENCODING 539
SWIDTH 426 0
DWIDTH 6 0
BBX 6 13 0 -2
BITMAP
00
00
00
60
60
F8
60
60
60
6C
38
18
30
ENDCHAR
STARTCHAR uni2010
ENCODING 8208
SWIDTH 426 0
DWIDTH 6 0
BBX 6 13 0 -2
BITMAP
00
00
00
00
00
00
78
00
00
00
00
00
00
ENDCHAR
STARTCHAR uni2011
ENCODING 8209
SWIDTH 426 0
DWIDTH 6 0
BBX 6 13 0 -2
BITMAP
00
00
00
00
00
00
78
00
00
00
00
00
00
ENDCHAR
STARTCHAR figuredash
ENCODING 8210
SWIDTH 426 0
DWIDTH 6 0
BBX 6 13 0 -2
BITMAP
00
00
00
00
00
00
FC
00
00
00
00
00
00
ENDCHAR
STARTCHAR endash
ENCODING 8211
SWIDTH 426 0
DWIDTH 6 0
BBX 6 13 0 -2
BITMAP
00
00
00
00
00
00
F8
00
00
00
00
00
00
ENDCHAR
STARTCHAR emdash
ENCODING 8212
SWIDTH 426 0
DWIDTH 6 0
BBX 6 13 0 -2
BITMAP
00
00
00
00
00
00
FC
00
00
00
00
00
00
ENDCHAR
STARTCHAR afii00208
ENCODING 8213
SWIDTH 426 0
DWIDTH 6 0
BBX 6 13 0 -2
BITMAP
00
00
00
00
00
00
FC
00
00
00
00
00
00
ENDCHAR
STARTCHAR uni2016
ENCODING 8214
SWIDTH 426 0
DWIDTH 6 0
BBX 6 13 0 -2
BITMAP
00
00
D8
D8
D8
D8
D8
D8
D8
D8
D8
00
00
ENDCHAR
STARTCHAR underscoredbl
ENCODING 8215
SWIDTH 426 0
DWIDTH 6 0
BBX 6 13 0 -2
BITMAP
00
00
00
00
00
00
00
00
00
00
FC
00
FC
ENDCHAR
STARTCHAR quoteleft
ENCODING 8216
SWIDTH 426 0
DWIDTH 6 0
BBX 6 13 0 -2
BITMAP
00
00
30
60
70
00
00
00
00
00
00
00
00
ENDCHAR
STARTCHAR quoteright
ENCODING 8217
SWIDTH 426 0
DWIDTH 6 0
BBX 6 13 0 -2
BITMAP
00
00
70
30
60
00
00
00
00
00
00
00
00
ENDCHAR
STARTCHAR quotesinglbase
ENCODING 8218
SWIDTH 426 0
DWIDTH 6 0
BBX 6 13 0 -2
BITMAP
00
00
00
00
00
00
00
00
00
70
30
60
00
ENDCHAR
STARTCHAR quotereversed
ENCODING 8219
SWIDTH 426 0
DWIDTH 6 0
BBX 6 13 0 -2
BITMAP
00
00
70
60
30
00
00
00
00
00
00
00
00
ENDCHAR
STARTCHAR quotedblleft
ENCODING 8220
SWIDTH 426 0
DWIDTH 6 0
BBX 6 13 0 -2
BITMAP
00
00
6C
D8
FC
00
00
00
00
00
00
00
00
ENDCHAR
STARTCHAR quotedblright
ENCODING 8221
SWIDTH 426 0
DWIDTH 6 0
BBX 6 13 0 -2
BITMAP
00
00
FC
6C
D8
00
00
00
00
00
00
00
00
ENDCHAR
STARTCHAR quotedblbase
ENCODING 8222
SWIDTH 426 0
DWIDTH 6 0
BBX 6 13 0 -2
BITMAP
00
00
00
00
00
00
00
00
00
FC
6C
D8
00
ENDCHAR
STARTCHAR uni201F
ENCODING 8223
SWIDTH 426 0
DWIDTH 6 0
BBX 6 13 0 -2
BITMAP
00
00
FC
D8
6C
00
00
00
00
00
00
00
00
ENDCHAR
STARTCHAR dagger
ENCODING 8224
SWIDTH 426 0
DWIDTH 6 0
BBX 6 13 0 -2
BITMAP
00
00
30
30
FC
30
30
30
30
30
30
00
00
ENDCHAR
STARTCHAR daggerdbl
ENCODING 8225
SWIDTH 426 0
DWIDTH 6 0
BBX 6 13 0 -2
BITMAP
00
00
30
30
FC
30
30
30
FC
30
30
00
00
ENDCHAR
STARTCHAR bullet
ENCODING 8226
SWIDTH 426 0
DWIDTH 6 0
BBX 6 13 0 -2
BITMAP
00
00
00
00
00
30
78
78
30
00
00
00
00
ENDCHAR
STARTCHAR ellipsis
ENCODING 8230
SWIDTH 426 0
DWIDTH 6 0
BBX 6 13 0 -2
BITMAP
00
00
00
00
00
00
00
00
00
00
A8
00
00
ENDCHAR
STARTCHAR perthousand
ENCODING 8240
SWIDTH 426 0
DWIDTH 6 0
BBX 6 13 0 -2
BITMAP
00
00
6C
7C
18
18
30
60
60
FC
FC
00
00
ENDCHAR
STARTCHAR guilsinglleft
ENCODING 8249
SWIDTH 426 0
DWIDTH 6 0
BBX 6 13 0 -2
BITMAP
00
00
00
00
00
00
18
30
60
30
18
00
00
ENDCHAR
STARTCHAR guilsinglright
ENCODING 8250
SWIDTH 426 0
DWIDTH 6 0
BBX 6 13 0 -2
BITMAP
00
00
00
00
00
00
60
30
18
30
60
00
00
ENDCHAR
STARTCHAR uni203E
ENCODING 8254
SWIDTH 426 0
DWIDTH 6 0
BBX 6 13 0 -2
BITMAP
00
FC
00
00
00
00
00
00
00
00
00
00
00
ENDCHAR
STARTCHAR Euro
ENCODING 8364
SWIDTH 426 0
DWIDTH 6 0
BBX 6 13 0 -2
BITMAP
00
00
38
7C
60
F0
60
F0
60
7C
38
00
00
ENDCHAR
STARTCHAR arrowleft
ENCODING 8592
SWIDTH 426 0
DWIDTH 6 0
BBX 6 13 0 -2
BITMAP
00
00
00
00
00
20
60
FC
FC
60
20
00
00
ENDCHAR
STARTCHAR arrowup
ENCODING 8593
SWIDTH 426 0
DWIDTH 6 0
BBX 6 13 0 -2
BITMAP
00
00
00
00
30
78
FC
30
30
30
30
00
00
ENDCHAR
STARTCHAR arrowright
ENCODING 8594
SWIDTH 426 0
DWIDTH 6 0
BBX 6 13 0 -2
BITMAP
00
00
00
00
00
10
18
FC
FC
18
10
00
00
ENDCHAR
STARTCHAR arrowdown
ENCODING 8595
SWIDTH 426 0
DWIDTH 6 0
BBX 6 13 0 -2
BITMAP
00
00
00
00
30
30
30
30
FC
78
30
00
00
ENDCHAR
STARTCHAR SF100000
ENCODING 9472
SWIDTH 426 0
DWIDTH 6 0
BBX 6 13 0 -2
BITMAP
00
00
00
00
00
00
FC
FC
00
00
00
00
00
ENDCHAR
STARTCHAR SF110000
ENCODING 9474
SWIDTH 426 0
DWIDTH 6 0
BBX 6 13 0 -2
BITMAP
30
30
30
30
30
30
30
30
30
30
30
30
30
ENDCHAR
STARTCHAR SF010000
ENCODING 9484
SWIDTH 426 0
DWIDTH 6 0
BBX 6 13 0 -2
BITMAP
00
00
00
00
00
00
3C
3C
30
30
30
30
30
ENDCHAR
STARTCHAR SF030000
ENCODING 9488
SWIDTH 426 0
DWIDTH 6 0
BBX 6 13 0 -2
BITMAP
00
00
00
00
00
00
F0
F0
30
30
30
30
30
ENDCHAR
STARTCHAR SF020000
ENCODING 9492
SWIDTH 426 0
DWIDTH 6 0
BBX 6 13 0 -2
BITMAP
30
30
30
30
30
30
3C
3C
00
00
00
00
00
ENDCHAR
STARTCHAR SF040000
ENCODING 9496
SWIDTH 426 0
DWIDTH 6 0
BBX 6 13 0 -2
BITMAP
30
30
30
30
30
30
F0
F0
00
00
00
00
00
ENDCHAR
STARTCHAR SF080000
ENCODING 9500
SWIDTH 426 0
DWIDTH 6 0
BBX 6 13 0 -2
BITMAP
30
30
30
30
30
30
3C
3C
30
30
30
30
30
ENDCHAR
STARTCHAR SF090000
ENCODING 9508
SWIDTH 426 0
DWIDTH 6 0
BBX 6 13 0 -2
BITMAP
30
30
30
30
30
30
F0
F0
30
30
30
30
30
ENDCHAR
STARTCHAR SF060000
ENCODING 9516
SWIDTH 426 0
DWIDTH 6 0
BBX 6 13 0 -2
BITMAP
00
00
00
00
00
00
FC
FC
30
30
30
30
30
ENDCHAR
STARTCHAR SF070000
ENCODING 9524
SWIDTH 426 0
DWIDTH 6 0
BBX 6 13 0 -2
BITMAP
30
30
30
30
30
30
FC
FC
00
00
00
00
00
ENDCHAR
STARTCHAR SF050000
ENCODING 9532
SWIDTH 426 0
DWIDTH 6 0
BBX 6 13 0 -2
BITMAP
30
30
30
30
30
30
FC
FC
30
30
30
30
30
ENDCHAR
STARTCHAR uni256D
ENCODING 9581
SWIDTH 426 0
DWIDTH 6 0
BBX 6 13 0 -2
BITMAP
00
00
00
00
00
00
0C
1C
38
30
30
30
30
ENDCHAR
STARTCHAR uni256E
ENCODING 9582
SWIDTH 426 0
DWIDTH 6 0
BBX 6 13 0 -2
BITMAP
00
00
00
00
00
00
C0
E0
70
30
30
30
30
ENDCHAR
STARTCHAR uni256F
ENCODING 9583
SWIDTH 426 0
DWIDTH 6 0
BBX 6 13 0 -2
BITMAP
30
30
30
30
30
60
E0
80
00
00
00
00
00
ENDCHAR
STARTCHAR uni2570
ENCODING 9584
SWIDTH 426 0
DWIDTH 6 0
BBX 6 13 0 -2
BITMAP
30
30
30
30
30
38
1C
0C
00
00
00
00
00
ENDCHAR
STARTCHAR uni2571
ENCODING 9585
SWIDTH 426 0
DWIDTH 6 0
BBX 6 13 0 -2
BITMAP
0C
0C
18
18
18
30
30
30
60
60
60
C0
C0
ENDCHAR
STARTCHAR uni2572
ENCODING 9586
SWIDTH 426 0
DWIDTH 6 0
BBX 6 13 0 -2
BITMAP
C0
C0
60
60
60
30
30
30
18
18
18
0C
0C
ENDCHAR
STARTCHAR uni2573
ENCODING 9587
SWIDTH 426 0
DWIDTH 6 0
BBX 6 13 0 -2
BITMAP
CC
CC
78
78
78
30
30
30
78
78
78
CC
CC
ENDCHAR
STARTCHAR uni2574
ENCODING 9588
SWIDTH 426 0
DWIDTH 6 0
BBX 6 13 0 -2
BITMAP
00
00
00
00
00
00
E0
E0
00
00
00
00
00
ENDCHAR
STARTCHAR uni2575
ENCODING 9589
SWIDTH 426 0
DWIDTH 6 0
BBX 6 13 0 -2
BITMAP
30
30
30
30
30
30
30
00
00
00
00
00
00
ENDCHAR
STARTCHAR uni2576
ENCODING 9590
SWIDTH 426 0
DWIDTH 6 0
BBX 6 13 0 -2
BITMAP
00
00
00
00
00
00
3C
3C
00
00
00
00
00
ENDCHAR
STARTCHAR uni2577
ENCODING 9591
SWIDTH 426 0
DWIDTH 6 0
BBX 6 13 0 -2
BITMAP
00
00
00
00
00
00
30
30
30
30
30
30
30
ENDCHAR
STARTCHAR shade
ENCODING 9618
SWIDTH 426 0
DWIDTH 6 0
BBX 6 13 0 -2
BITMAP
A8
54
A8
54
A8
54
A8
54
A8
54
A8
54
A8
ENDCHAR
STARTCHAR uni25AE
ENCODING 9646
SWIDTH 426 0
DWIDTH 6 0
BBX 6 13 0 -2
BITMAP
00
F8
F8
F8
F8
F8
F8
F8
F8
F8
F8
F8
00
ENDCHAR
STARTCHAR uni25C6
ENCODING 9670
SWIDTH 426 0
DWIDTH 6 0
BBX 6 13 0 -2
BITMAP
00
00
00
00
30
78
FC
78
30
00
00
00
00
ENDCHAR
ENDFONT
