STARTFONT 2.1
COMMENT "$ucs-fonts: 9x15B.bdf,v 1.35 2006-01-05 20:03:17+00 mgk25 Rel $"
COMMENT "Send bug reports to Markus Kuhn <http://www.cl.cam.ac.uk/~mgk25/>"
FONT -Misc-Fixed-Bold-R-Normal--15-140-75-75-C-90-ISO10646-1
SIZE 11 75 75
FONTBOUNDINGBOX 9 15 0 -3
STARTPROPERTIES 22
FONTNAME_REGISTRY ""
FOUNDRY "Misc"
FAMILY_NAME "Fixed"
WEIGHT_NAME "Bold"
SLANT "R"
SETWIDTH_NAME "Normal"
ADD_STYLE_NAME ""
PIXEL_SIZE 15
POINT_SIZE 140
RESOLUTION_X 75
RESOLUTION_Y 75
SPACING "C"
AVERAGE_WIDTH 90
CHARSET_REGISTRY "ISO10646"
CHARSET_ENCODING "1"
DEFAULT_CHAR 0
FONT_DESCENT 3
FONT_ASCENT 12
COPYRIGHT "Public domain font.  Share and enjoy."
_XMBDFED_INFO "Edited with xmbdfed 4.5."
X_HEIGHT 7
CAP_HEIGHT 10
ENDPROPERTIES
CHARS 540
STARTCHAR char0
ENCODING 0
SWIDTH 785 0
DWIDTH 9 0
BBX 9 15 0 -3
BITMAP
0000
DB00
DB00
0000
C300
C300
0000
C300
C300
0000
DB00
DB00
0000
0000
0000
ENDCHAR
STARTCHAR space
ENCODING 32
SWIDTH 785 0
DWIDTH 9 0
BBX 9 15 0 -3
BITMAP
0000
0000
0000
0000
0000
0000
0000
0000
0000
0000
0000
0000
0000
0000
0000
ENDCHAR
STARTCHAR exclam
ENCODING 33
SWIDTH 785 0
DWIDTH 9 0
BBX 9 15 0 -3
BITMAP
0000
0000
1800
1800
1800
1800
1800
1800
1800
1800
0000
1800
0000
0000
0000
ENDCHAR
STARTCHAR quotedbl
ENCODING 34
SWIDTH 785 0
DWIDTH 9 0
BBX 9 15 0 -3
BITMAP
0000
0000
3600
3600
3600
0000
0000
0000
0000
0000
0000
0000
0000
0000
0000
ENDCHAR
STARTCHAR numbersign
ENCODING 35
SWIDTH 785 0
DWIDTH 9 0
BBX 9 15 0 -3
BITMAP
0000
0000
0000
3600
3600
7F00
3600
3600
7F00
3600
3600
0000
0000
0000
0000
ENDCHAR
STARTCHAR dollar
ENCODING 36
SWIDTH 785 0
DWIDTH 9 0
BBX 9 15 0 -3
BITMAP
0000
0000
0800
3E00
6B00
6800
7800
3E00
0F00
0B00
6B00
3E00
0800
0000
0000
ENDCHAR
STARTCHAR percent
ENCODING 37
SWIDTH 785 0
DWIDTH 9 0
BBX 9 15 0 -3
BITMAP
0000
0000
4300
E600
E600
4C00
1800
1800
3200
6700
6700
C200
0000
0000
0000
ENDCHAR
STARTCHAR ampersand
ENCODING 38
SWIDTH 785 0
DWIDTH 9 0
BBX 9 15 0 -3
BITMAP
0000
0000
3800
6C00
6C00
7800
3000
7900
CF00
C600
CE00
7B00
0000
0000
0000
ENDCHAR
STARTCHAR quotesingle
ENCODING 39
SWIDTH 785 0
DWIDTH 9 0
BBX 9 15 0 -3
BITMAP
0000
0000
1800
1800
1800
1800
0000
0000
0000
0000
0000
0000
0000
0000
0000
ENDCHAR
STARTCHAR parenleft
ENCODING 40
SWIDTH 785 0
DWIDTH 9 0
BBX 9 15 0 -3
BITMAP
0000
0600
0C00
1800
1800
3000
3000
3000
3000
1800
1800
0C00
0600
0000
0000
ENDCHAR
STARTCHAR parenright
ENCODING 41
SWIDTH 785 0
DWIDTH 9 0
BBX 9 15 0 -3
BITMAP
0000
3000
1800
0C00
0C00
0600
0600
0600
0600
0C00
0C00
1800
3000
0000
0000
ENDCHAR
STARTCHAR asterisk
ENCODING 42
SWIDTH 785 0
DWIDTH 9 0
BBX 9 15 0 -3
BITMAP
0000
0000
0000
0000
0000
3600
1C00
7F00
1C00
3600
0000
0000
0000
0000
0000
ENDCHAR
STARTCHAR plus
ENCODING 43
SWIDTH 785 0
DWIDTH 9 0
BBX 9 15 0 -3
BITMAP
0000
0000
0000
0000
1800
1800
1800
FF00
1800
1800
1800
0000
0000
0000
0000
ENDCHAR
STARTCHAR comma
ENCODING 44
SWIDTH 785 0
DWIDTH 9 0
BBX 9 15 0 -3
BITMAP
0000
0000
0000
0000
0000
0000
0000
0000
0000
0000
1C00
1C00
0C00
0C00
1800
ENDCHAR
STARTCHAR hyphen
ENCODING 45
SWIDTH 785 0
DWIDTH 9 0
BBX 9 15 0 -3
BITMAP
0000
0000
0000
0000
0000
0000
0000
FF00
0000
0000
0000
0000
0000
0000
0000
ENDCHAR
STARTCHAR period
ENCODING 46
SWIDTH 785 0
DWIDTH 9 0
BBX 9 15 0 -3
BITMAP
0000
0000
0000
0000
0000
0000
0000
0000
0000
0000
1800
3C00
1800
0000
0000
ENDCHAR
STARTCHAR slash
ENCODING 47
SWIDTH 785 0
DWIDTH 9 0
BBX 9 15 0 -3
BITMAP
0000
0000
0300
0600
0600
0C00
1800
1800
3000
6000
6000
C000
0000
0000
0000
ENDCHAR
STARTCHAR zero
ENCODING 48
SWIDTH 785 0
DWIDTH 9 0
BBX 9 15 0 -3
BITMAP
0000
0000
1800
3C00
6600
C300
C300
C300
C300
6600
3C00
1800
0000
0000
0000
ENDCHAR
STARTCHAR one
ENCODING 49
SWIDTH 785 0
DWIDTH 9 0
BBX 9 15 0 -3
BITMAP
0000
0000
1800
3800
7800
1800
1800
1800
1800
1800
1800
7E00
0000
0000
0000
ENDCHAR
STARTCHAR two
ENCODING 50
SWIDTH 785 0
DWIDTH 9 0
BBX 9 15 0 -3
BITMAP
0000
0000
3C00
6600
C300
0300
0600
0C00
1800
3000
6000
FF00
0000
0000
0000
ENDCHAR
STARTCHAR three
ENCODING 51
SWIDTH 785 0
DWIDTH 9 0
BBX 9 15 0 -3
BITMAP
0000
0000
7C00
C600
0300
0600
1C00
0600
0300
0300
C600
7C00
0000
0000
0000
ENDCHAR
STARTCHAR four
ENCODING 52
SWIDTH 785 0
DWIDTH 9 0
BBX 9 15 0 -3
BITMAP
0000
0000
0600
0E00
1E00
3600
6600
C600
FF00
0600
0600
0600
0000
0000
0000
ENDCHAR
STARTCHAR five
ENCODING 53
SWIDTH 785 0
DWIDTH 9 0
BBX 9 15 0 -3
BITMAP
0000
0000
FE00
C000
C000
DC00
E600
0300
0300
C300
6600
3C00
0000
0000
0000
ENDCHAR
STARTCHAR six
ENCODING 54
SWIDTH 785 0
DWIDTH 9 0
BBX 9 15 0 -3
BITMAP
0000
0000
3C00
6600
C200
C000
DC00
E600
C300
C300
6600
3C00
0000
0000
0000
ENDCHAR
STARTCHAR seven
ENCODING 55
SWIDTH 785 0
DWIDTH 9 0
BBX 9 15 0 -3
BITMAP
0000
0000
FF00
0300
0300
0600
0C00
0C00
1800
1800
1800
1800
0000
0000
0000
ENDCHAR
STARTCHAR eight
ENCODING 56
SWIDTH 785 0
DWIDTH 9 0
BBX 9 15 0 -3
BITMAP
0000
0000
3C00
6600
C300
6600
3C00
6600
C300
C300
6600
3C00
0000
0000
0000
ENDCHAR
STARTCHAR nine
ENCODING 57
SWIDTH 785 0
DWIDTH 9 0
BBX 9 15 0 -3
BITMAP
0000
0000
3C00
6600
C300
C300
6700
3B00
0300
4300
6600
3C00
0000
0000
0000
ENDCHAR
STARTCHAR colon
ENCODING 58
SWIDTH 785 0
DWIDTH 9 0
BBX 9 15 0 -3
BITMAP
0000
0000
0000
0000
0000
1800
3C00
1800
0000
0000
1800
3C00
1800
0000
0000
ENDCHAR
STARTCHAR semicolon
ENCODING 59
SWIDTH 785 0
DWIDTH 9 0
BBX 9 15 0 -3
BITMAP
0000
0000
0000
0000
0000
1800
3C00
1800
0000
0000
1C00
1C00
0C00
0C00
1800
ENDCHAR
STARTCHAR less
ENCODING 60
SWIDTH 785 0
DWIDTH 9 0
BBX 9 15 0 -3
BITMAP
0000
0000
0600
0C00
1800
3000
6000
6000
3000
1800
0C00
0600
0000
0000
0000
ENDCHAR
STARTCHAR equal
ENCODING 61
SWIDTH 785 0
DWIDTH 9 0
BBX 9 15 0 -3
BITMAP
0000
0000
0000
0000
0000
0000
FF00
0000
0000
FF00
0000
0000
0000
0000
0000
ENDCHAR
STARTCHAR greater
ENCODING 62
SWIDTH 785 0
DWIDTH 9 0
BBX 9 15 0 -3
BITMAP
0000
0000
6000
3000
1800
0C00
0600
0600
0C00
1800
3000
6000
0000
0000
0000
ENDCHAR
STARTCHAR question
ENCODING 63
SWIDTH 785 0
DWIDTH 9 0
BBX 9 15 0 -3
BITMAP
0000
0000
3E00
6300
6300
0300
0600
0C00
1800
0000
1800
1800
0000
0000
0000
ENDCHAR
STARTCHAR at
ENCODING 64
SWIDTH 785 0
DWIDTH 9 0
BBX 9 15 0 -3
BITMAP
0000
0000
3C00
6600
C300
CF00
DB00
DB00
CE00
C000
6300
3E00
0000
0000
0000
ENDCHAR
STARTCHAR A
ENCODING 65
SWIDTH 785 0
DWIDTH 9 0
BBX 9 15 0 -3
BITMAP
0000
0000
1800
3C00
6600
C300
C300
C300
FF00
C300
C300
C300
0000
0000
0000
ENDCHAR
STARTCHAR B
ENCODING 66
SWIDTH 785 0
DWIDTH 9 0
BBX 9 15 0 -3
BITMAP
0000
0000
FC00
C600
C300
C600
FC00
C600
C300
C300
C600
FC00
0000
0000
0000
ENDCHAR
STARTCHAR C
ENCODING 67
SWIDTH 785 0
DWIDTH 9 0
BBX 9 15 0 -3
BITMAP
0000
0000
3E00
6300
C100
C000
C000
C000
C000
C100
6300
3E00
0000
0000
0000
ENDCHAR
STARTCHAR D
ENCODING 68
SWIDTH 785 0
DWIDTH 9 0
BBX 9 15 0 -3
BITMAP
0000
0000
FC00
C600
C300
C300
C300
C300
C300
C300
C600
FC00
0000
0000
0000
ENDCHAR
STARTCHAR E
ENCODING 69
SWIDTH 785 0
DWIDTH 9 0
BBX 9 15 0 -3
BITMAP
0000
0000
7F00
6000
6000
6000
7E00
6000
6000
6000
6000
7F00
0000
0000
0000
ENDCHAR
STARTCHAR F
ENCODING 70
SWIDTH 785 0
DWIDTH 9 0
BBX 9 15 0 -3
BITMAP
0000
0000
FF00
C000
C000
C000
FC00
C000
C000
C000
C000
C000
0000
0000
0000
ENDCHAR
STARTCHAR G
ENCODING 71
SWIDTH 785 0
DWIDTH 9 0
BBX 9 15 0 -3
BITMAP
0000
0000
3E00
6300
C000
C000
C000
C700
C300
C300
6300
3E00
0000
0000
0000
ENDCHAR
STARTCHAR H
ENCODING 72
SWIDTH 785 0
DWIDTH 9 0
BBX 9 15 0 -3
BITMAP
0000
0000
C300
C300
C300
C300
FF00
C300
C300
C300
C300
C300
0000
0000
0000
ENDCHAR
STARTCHAR I
ENCODING 73
SWIDTH 785 0
DWIDTH 9 0
BBX 9 15 0 -3
BITMAP
0000
0000
7E00
1800
1800
1800
1800
1800
1800
1800
1800
7E00
0000
0000
0000
ENDCHAR
STARTCHAR J
ENCODING 74
SWIDTH 785 0
DWIDTH 9 0
BBX 9 15 0 -3
BITMAP
0000
0000
1E00
0600
0600
0600
0600
0600
0600
4600
6C00
3800
0000
0000
0000
ENDCHAR
STARTCHAR K
ENCODING 75
SWIDTH 785 0
DWIDTH 9 0
BBX 9 15 0 -3
BITMAP
0000
0000
C300
C600
CC00
D800
F000
F000
D800
CC00
C600
C300
0000
0000
0000
ENDCHAR
STARTCHAR L
ENCODING 76
SWIDTH 785 0
DWIDTH 9 0
BBX 9 15 0 -3
BITMAP
0000
0000
6000
6000
6000
6000
6000
6000
6000
6000
6000
7F00
0000
0000
0000
ENDCHAR
STARTCHAR M
ENCODING 77
SWIDTH 785 0
DWIDTH 9 0
BBX 9 15 0 -3
BITMAP
0000
0000
C300
E700
FF00
DB00
DB00
DB00
C300
C300
C300
C300
0000
0000
0000
ENDCHAR
STARTCHAR N
ENCODING 78
SWIDTH 785 0
DWIDTH 9 0
BBX 9 15 0 -3
BITMAP
0000
0000
C300
E300
F300
F300
DB00
DB00
CF00
C700
C700
C300
0000
0000
0000
ENDCHAR
STARTCHAR O
ENCODING 79
SWIDTH 785 0
DWIDTH 9 0
BBX 9 15 0 -3
BITMAP
0000
0000
3C00
6600
C300
C300
C300
C300
C300
C300
6600
3C00
0000
0000
0000
ENDCHAR
STARTCHAR P
ENCODING 80
SWIDTH 785 0
DWIDTH 9 0
BBX 9 15 0 -3
BITMAP
0000
0000
FE00
C300
C300
C300
FE00
C000
C000
C000
C000
C000
0000
0000
0000
ENDCHAR
STARTCHAR Q
ENCODING 81
SWIDTH 785 0
DWIDTH 9 0
BBX 9 15 0 -3
BITMAP
0000
0000
3C00
6600
C300
C300
C300
C300
DB00
CF00
6600
3D00
0000
0000
0000
ENDCHAR
STARTCHAR R
ENCODING 82
SWIDTH 785 0
DWIDTH 9 0
BBX 9 15 0 -3
BITMAP
0000
0000
FE00
C300
C300
C300
FE00
F800
CC00
C600
C300
C300
0000
0000
0000
ENDCHAR
STARTCHAR S
ENCODING 83
SWIDTH 785 0
DWIDTH 9 0
BBX 9 15 0 -3
BITMAP
0000
0000
7E00
C300
C000
C000
7E00
0300
0300
0300
C300
7E00
0000
0000
0000
ENDCHAR
STARTCHAR T
ENCODING 84
SWIDTH 785 0
DWIDTH 9 0
BBX 9 15 0 -3
BITMAP
0000
0000
FF00
1800
1800
1800
1800
1800
1800
1800
1800
1800
0000
0000
0000
ENDCHAR
STARTCHAR U
ENCODING 85
SWIDTH 785 0
DWIDTH 9 0
BBX 9 15 0 -3
BITMAP
0000
0000
C300
C300
C300
C300
C300
C300
C300
C300
6600
3C00
0000
0000
0000
ENDCHAR
STARTCHAR V
ENCODING 86
SWIDTH 785 0
DWIDTH 9 0
BBX 9 15 0 -3
BITMAP
0000
0000
C300
C300
C300
6600
6600
6600
3C00
3C00
1800
1800
0000
0000
0000
ENDCHAR
STARTCHAR W
ENCODING 87
SWIDTH 785 0
DWIDTH 9 0
BBX 9 15 0 -3
BITMAP
0000
0000
C300
C300
C300
C300
DB00
DB00
DB00
FF00
E700
C300
0000
0000
0000
ENDCHAR
STARTCHAR X
ENCODING 88
SWIDTH 785 0
DWIDTH 9 0
BBX 9 15 0 -3
BITMAP
0000
0000
C300
C300
6600
3C00
1800
1800
3C00
6600
C300
C300
0000
0000
0000
ENDCHAR
STARTCHAR Y
ENCODING 89
SWIDTH 785 0
DWIDTH 9 0
BBX 9 15 0 -3
BITMAP
0000
0000
C300
C300
6600
3C00
1800
1800
1800
1800
1800
1800
0000
0000
0000
ENDCHAR
STARTCHAR Z
ENCODING 90
SWIDTH 785 0
DWIDTH 9 0
BBX 9 15 0 -3
BITMAP
0000
0000
7F00
0300
0300
0600
0C00
1800
3000
6000
6000
7F00
0000
0000
0000
ENDCHAR
STARTCHAR bracketleft
ENCODING 91
SWIDTH 785 0
DWIDTH 9 0
BBX 9 15 0 -3
BITMAP
0000
3E00
3000
3000
3000
3000
3000
3000
3000
3000
3000
3000
3E00
0000
0000
ENDCHAR
STARTCHAR backslash
ENCODING 92
SWIDTH 785 0
DWIDTH 9 0
BBX 9 15 0 -3
BITMAP
0000
0000
C000
6000
6000
3000
1800
1800
0C00
0600
0600
0300
0000
0000
0000
ENDCHAR
STARTCHAR bracketright
ENCODING 93
SWIDTH 785 0
DWIDTH 9 0
BBX 9 15 0 -3
BITMAP
0000
3E00
0600
0600
0600
0600
0600
0600
0600
0600
0600
0600
3E00
0000
0000
ENDCHAR
STARTCHAR asciicircum
ENCODING 94
SWIDTH 785 0
DWIDTH 9 0
BBX 9 15 0 -3
BITMAP
0000
0000
1800
3C00
6600
4200
0000
0000
0000
0000
0000
0000
0000
0000
0000
ENDCHAR
STARTCHAR underscore
ENCODING 95
SWIDTH 785 0
DWIDTH 9 0
BBX 9 15 0 -3
BITMAP
0000
0000
0000
0000
0000
0000
0000
0000
0000
0000
0000
0000
FF00
0000
0000
ENDCHAR
STARTCHAR grave
ENCODING 96
SWIDTH 785 0
DWIDTH 9 0
BBX 9 15 0 -3
BITMAP
0000
3000
1800
0C00
0000
0000
0000
0000
0000
0000
0000
0000
0000
0000
0000
ENDCHAR
STARTCHAR a
ENCODING 97
SWIDTH 785 0
DWIDTH 9 0
BBX 9 15 0 -3
BITMAP
0000
0000
0000
0000
0000
3E00
6300
0300
7F00
C300
C700
7B00
0000
0000
0000
ENDCHAR
STARTCHAR b
ENCODING 98
SWIDTH 785 0
DWIDTH 9 0
BBX 9 15 0 -3
BITMAP
0000
0000
C000
C000
C000
DC00
E600
C300
C300
C300
E600
DC00
0000
0000
0000
ENDCHAR
STARTCHAR c
ENCODING 99
SWIDTH 785 0
DWIDTH 9 0
BBX 9 15 0 -3
BITMAP
0000
0000
0000
0000
0000
3E00
6300
C000
C000
C000
6300
3E00
0000
0000
0000
ENDCHAR
STARTCHAR d
ENCODING 100
SWIDTH 785 0
DWIDTH 9 0
BBX 9 15 0 -3
BITMAP
0000
0000
0300
0300
0300
3B00
6700
C300
C300
C300
6700
3B00
0000
0000
0000
ENDCHAR
STARTCHAR e
ENCODING 101
SWIDTH 785 0
DWIDTH 9 0
BBX 9 15 0 -3
BITMAP
0000
0000
0000
0000
0000
3C00
6600
C300
FF00
C000
6300
3E00
0000
0000
0000
ENDCHAR
STARTCHAR f
ENCODING 102
SWIDTH 785 0
DWIDTH 9 0
BBX 9 15 0 -3
BITMAP
0000
0000
1E00
3300
3300
3000
3000
FC00
3000
3000
3000
3000
0000
0000
0000
ENDCHAR
STARTCHAR g
ENCODING 103
SWIDTH 785 0
DWIDTH 9 0
BBX 9 15 0 -3
BITMAP
0000
0000
0000
0000
0000
7D00
C700
C600
C600
7C00
C000
7E00
C300
C300
7E00
ENDCHAR
STARTCHAR h
ENCODING 104
SWIDTH 785 0
DWIDTH 9 0
BBX 9 15 0 -3
BITMAP
0000
0000
C000
C000
C000
DC00
E600
C300
C300
C300
C300
C300
0000
0000
0000
ENDCHAR
STARTCHAR i
ENCODING 105
SWIDTH 785 0
DWIDTH 9 0
BBX 9 15 0 -3
BITMAP
0000
0000
1800
1800
0000
3800
1800
1800
1800
1800
1800
7E00
0000
0000
0000
ENDCHAR
STARTCHAR j
ENCODING 106
SWIDTH 785 0
DWIDTH 9 0
BBX 9 15 0 -3
BITMAP
0000
0000
0300
0300
0000
0F00
0300
0300
0300
0300
0300
6300
6300
6300
3E00
ENDCHAR
STARTCHAR k
ENCODING 107
SWIDTH 785 0
DWIDTH 9 0
BBX 9 15 0 -3
BITMAP
0000
0000
6000
6000
6000
6600
6C00
7800
7800
6C00
6600
6300
0000
0000
0000
ENDCHAR
STARTCHAR l
ENCODING 108
SWIDTH 785 0
DWIDTH 9 0
BBX 9 15 0 -3
BITMAP
0000
0000
3800
1800
1800
1800
1800
1800
1800
1800
1800
7E00
0000
0000
0000
ENDCHAR
STARTCHAR m
ENCODING 109
SWIDTH 785 0
DWIDTH 9 0
BBX 9 15 0 -3
BITMAP
0000
0000
0000
0000
0000
B600
DB00
DB00
DB00
DB00
DB00
DB00
0000
0000
0000
ENDCHAR
STARTCHAR n
ENCODING 110
SWIDTH 785 0
DWIDTH 9 0
BBX 9 15 0 -3
BITMAP
0000
0000
0000
0000
0000
DC00
E600
C300
C300
C300
C300
C300
0000
0000
0000
ENDCHAR
STARTCHAR o
ENCODING 111
SWIDTH 785 0
DWIDTH 9 0
BBX 9 15 0 -3
BITMAP
0000
0000
0000
0000
0000
3C00
6600
C300
C300
C300
6600
3C00
0000
0000
0000
ENDCHAR
STARTCHAR p
ENCODING 112
SWIDTH 785 0
DWIDTH 9 0
BBX 9 15 0 -3
BITMAP
0000
0000
0000
0000
0000
DC00
E600
C300
C300
C300
E600
DC00
C000
C000
C000
ENDCHAR
STARTCHAR q
ENCODING 113
SWIDTH 785 0
DWIDTH 9 0
BBX 9 15 0 -3
BITMAP
0000
0000
0000
0000
0000
3B00
6700
C300
C300
C300
6700
3B00
0300
0300
0300
ENDCHAR
STARTCHAR r
ENCODING 114
SWIDTH 785 0
DWIDTH 9 0
BBX 9 15 0 -3
BITMAP
0000
0000
0000
0000
0000
DE00
7300
6000
6000
6000
6000
6000
0000
0000
0000
ENDCHAR
STARTCHAR s
ENCODING 115
SWIDTH 785 0
DWIDTH 9 0
BBX 9 15 0 -3
BITMAP
0000
0000
0000
0000
0000
7E00
C300
C000
7E00
0300
C300
7E00
0000
0000
0000
ENDCHAR
STARTCHAR t
ENCODING 116
SWIDTH 785 0
DWIDTH 9 0
BBX 9 15 0 -3
BITMAP
0000
0000
0000
3000
3000
FC00
3000
3000
3000
3000
3300
1E00
0000
0000
0000
ENDCHAR
STARTCHAR u
ENCODING 117
SWIDTH 785 0
DWIDTH 9 0
BBX 9 15 0 -3
BITMAP
0000
0000
0000
0000
0000
C300
C300
C300
C300
C300
6700
3B00
0000
0000
0000
ENDCHAR
STARTCHAR v
ENCODING 118
SWIDTH 785 0
DWIDTH 9 0
BBX 9 15 0 -3
BITMAP
0000
0000
0000
0000
0000
C300
C300
6600
6600
3C00
3C00
1800
0000
0000
0000
ENDCHAR
STARTCHAR w
ENCODING 119
SWIDTH 785 0
DWIDTH 9 0
BBX 9 15 0 -3
BITMAP
0000
0000
0000
0000
0000
C300
C300
DB00
DB00
DB00
FF00
6600
0000
0000
0000
ENDCHAR
STARTCHAR x
ENCODING 120
SWIDTH 785 0
DWIDTH 9 0
BBX 9 15 0 -3
BITMAP
0000
0000
0000
0000
0000
C300
6600
3C00
1800
3C00
6600
C300
0000
0000
0000
ENDCHAR
STARTCHAR y
ENCODING 121
SWIDTH 785 0
DWIDTH 9 0
BBX 9 15 0 -3
BITMAP
0000
0000
0000
0000
0000
C300
C300
C300
C300
C300
6700
3B00
0300
C600
7C00
ENDCHAR
STARTCHAR z
ENCODING 122
SWIDTH 785 0
DWIDTH 9 0
BBX 9 15 0 -3
BITMAP
0000
0000
0000
0000
0000
7E00
0600
0C00
1800
3000
6000
7E00
0000
0000
0000
ENDCHAR
STARTCHAR braceleft
ENCODING 123
SWIDTH 785 0
DWIDTH 9 0
BBX 9 15 0 -3
BITMAP
0000
0E00
1800
1800
1800
1800
3000
3000
1800
1800
1800
1800
0E00
0000
0000
ENDCHAR
STARTCHAR bar
ENCODING 124
SWIDTH 785 0
DWIDTH 9 0
BBX 9 15 0 -3
BITMAP
0000
0000
1800
1800
1800
1800
1800
1800
1800
1800
1800
1800
0000
0000
0000
ENDCHAR
STARTCHAR braceright
ENCODING 125
SWIDTH 785 0
DWIDTH 9 0
BBX 9 15 0 -3
BITMAP
0000
3800
0C00
0C00
0C00
0C00
0600
0600
0C00
0C00
0C00
0C00
3800
0000
0000
ENDCHAR
STARTCHAR asciitilde
ENCODING 126
SWIDTH 785 0
DWIDTH 9 0
BBX 9 15 0 -3
BITMAP
0000
0000
7300
DB00
CE00
0000
0000
0000
0000
0000
0000
0000
0000
0000
0000
ENDCHAR
STARTCHAR space
ENCODING 160
SWIDTH 785 0
DWIDTH 9 0
BBX 9 15 0 -3
BITMAP
0000
0000
0000
0000
0000
0000
0000
0000
0000
0000
0000
0000
0000
0000
0000
ENDCHAR
STARTCHAR exclamdown
ENCODING 161
SWIDTH 785 0
DWIDTH 9 0
BBX 9 15 0 -3
BITMAP
0000
0000
0C00
0000
0C00
0C00
0C00
0C00
0C00
0C00
0C00
0C00
0000
0000
0000
ENDCHAR
STARTCHAR cent
ENCODING 162
SWIDTH 785 0
DWIDTH 9 0
BBX 9 15 0 -3
BITMAP
0000
0000
0000
0000
0200
3E00
6700
6800
6800
7300
3E00
2000
0000
0000
0000
ENDCHAR
STARTCHAR sterling
ENCODING 163
SWIDTH 785 0
DWIDTH 9 0
BBX 9 15 0 -3
BITMAP
0000
0000
0000
1E00
3300
3000
3000
7C00
3000
3000
F800
BF00
E000
0000
0000
ENDCHAR
STARTCHAR currency
ENCODING 164
SWIDTH 785 0
DWIDTH 9 0
BBX 9 15 0 -3
BITMAP
0000
0000
0000
6300
7F00
3600
2200
3600
7F00
6300
0000
0000
0000
0000
0000
ENDCHAR
STARTCHAR yen
ENCODING 165
SWIDTH 785 0
DWIDTH 9 0
BBX 9 15 0 -3
BITMAP
0000
0000
C300
C300
6600
3C00
7E00
1800
7E00
1800
1800
1800
0000
0000
0000
ENDCHAR
STARTCHAR brokenbar
ENCODING 166
SWIDTH 785 0
DWIDTH 9 0
BBX 9 15 0 -3
BITMAP
0000
0000
0C00
0C00
0C00
0C00
0C00
0000
0000
0C00
0C00
0C00
0C00
0000
0000
ENDCHAR
STARTCHAR section
ENCODING 167
SWIDTH 785 0
DWIDTH 9 0
BBX 9 15 0 -3
BITMAP
0000
0000
3C00
6600
6000
3C00
6600
6600
6600
3C00
0600
6600
3C00
0000
0000
ENDCHAR
STARTCHAR dieresis
ENCODING 168
SWIDTH 785 0
DWIDTH 9 0
BBX 9 15 0 -3
BITMAP
0000
6600
6600
0000
0000
0000
0000
0000
0000
0000
0000
0000
0000
0000
0000
ENDCHAR
STARTCHAR copyright
ENCODING 169
SWIDTH 785 0
DWIDTH 9 0
BBX 9 15 0 -3
BITMAP
0000
3C00
7E00
C300
BD00
A500
A100
A500
BD00
C300
7E00
3C00
0000
0000
0000
ENDCHAR
STARTCHAR ordfeminine
ENCODING 170
SWIDTH 785 0
DWIDTH 9 0
BBX 9 15 0 -3
BITMAP
0000
0000
7800
0C00
7C00
4C00
7C00
0000
7C00
0000
0000
0000
0000
0000
0000
ENDCHAR
STARTCHAR guillemotleft
ENCODING 171
SWIDTH 785 0
DWIDTH 9 0
BBX 9 15 0 -3
BITMAP
0000
0000
0000
1B00
3600
6C00
D800
D800
6C00
3600
1B00
0000
0000
0000
0000
ENDCHAR
STARTCHAR logicalnot
ENCODING 172
SWIDTH 785 0
DWIDTH 9 0
BBX 9 15 0 -3
BITMAP
0000
0000
0000
0000
0000
7F00
7F00
0300
0300
0300
0000
0000
0000
0000
0000
ENDCHAR
STARTCHAR hyphen
ENCODING 173
SWIDTH 785 0
DWIDTH 9 0
BBX 9 15 0 -3
BITMAP
0000
0000
0000
0000
0000
0000
0000
7E00
0000
0000
0000
0000
0000
0000
0000
ENDCHAR
STARTCHAR registered
ENCODING 174
SWIDTH 785 0
DWIDTH 9 0
BBX 9 15 0 -3
BITMAP
0000
3C00
7E00
C300
BD00
A500
BD00
A900
AD00
C300
7E00
3C00
0000
0000
0000
ENDCHAR
STARTCHAR macron
ENCODING 175
SWIDTH 785 0
DWIDTH 9 0
BBX 9 15 0 -3
BITMAP
0000
7E00
7E00
0000
0000
0000
0000
0000
0000
0000
0000
0000
0000
0000
0000
ENDCHAR
STARTCHAR degree
ENCODING 176
SWIDTH 785 0
DWIDTH 9 0
BBX 9 15 0 -3
BITMAP
0000
0000
1E00
3300
3300
1E00
0000
0000
0000
0000
0000
0000
0000
0000
0000
ENDCHAR
STARTCHAR plusminus
ENCODING 177
SWIDTH 785 0
DWIDTH 9 0
BBX 9 15 0 -3
BITMAP
0000
0000
1800
1800
1800
FF00
FF00
1800
1800
1800
FF00
FF00
0000
0000
0000
ENDCHAR
STARTCHAR twosuperior
ENCODING 178
SWIDTH 785 0
DWIDTH 9 0
BBX 9 15 0 -3
BITMAP
0000
3800
4C00
0C00
1800
3000
6000
7C00
0000
0000
0000
0000
0000
0000
0000
ENDCHAR
STARTCHAR threesuperior
ENCODING 179
SWIDTH 785 0
DWIDTH 9 0
BBX 9 15 0 -3
BITMAP
0000
3800
4C00
0C00
1800
0C00
4C00
3800
0000
0000
0000
0000
0000
0000
0000
ENDCHAR
STARTCHAR acute
ENCODING 180
SWIDTH 785 0
DWIDTH 9 0
BBX 9 15 0 -3
BITMAP
0000
0C00
1800
3000
0000
0000
0000
0000
0000
0000
0000
0000
0000
0000
0000
ENDCHAR
STARTCHAR mu
ENCODING 181
SWIDTH 785 0
DWIDTH 9 0
BBX 9 15 0 -3
BITMAP
0000
0000
0000
0000
0000
6300
6300
6300
6300
6300
7700
7D00
6000
6000
6000
ENDCHAR
STARTCHAR paragraph
ENCODING 182
SWIDTH 785 0
DWIDTH 9 0
BBX 9 15 0 -3
BITMAP
0000
0000
3F00
7F00
7B00
7B00
7B00
3B00
1B00
1B00
1B00
1B00
0000
0000
0000
ENDCHAR
STARTCHAR periodcentered
ENCODING 183
SWIDTH 785 0
DWIDTH 9 0
BBX 9 15 0 -3
BITMAP
0000
0000
0000
0000
0000
0000
0800
1C00
0800
0000
0000
0000
0000
0000
0000
ENDCHAR
STARTCHAR cedilla
ENCODING 184
SWIDTH 785 0
DWIDTH 9 0
BBX 9 15 0 -3
BITMAP
0000
0000
0000
0000
0000
0000
0000
0000
0000
0000
0000
0000
0600
3600
1C00
ENDCHAR
STARTCHAR onesuperior
ENCODING 185
SWIDTH 785 0
DWIDTH 9 0
BBX 9 15 0 -3
BITMAP
0000
3000
7000
3000
3000
3000
3000
7800
0000
0000
0000
0000
0000
0000
0000
ENDCHAR
STARTCHAR ordmasculine
ENCODING 186
SWIDTH 785 0
DWIDTH 9 0
BBX 9 15 0 -3
BITMAP
0000
0000
3800
6C00
6C00
3800
0000
7C00
0000
0000
0000
0000
0000
0000
0000
ENDCHAR
STARTCHAR guillemotright
ENCODING 187
SWIDTH 785 0
DWIDTH 9 0
BBX 9 15 0 -3
BITMAP
0000
0000
0000
D800
6C00
3600
1B00
1B00
3600
6C00
D800
0000
0000
0000
0000
ENDCHAR
STARTCHAR onequarter
ENCODING 188
SWIDTH 785 0
DWIDTH 9 0
BBX 9 15 0 -3
BITMAP
0000
6000
E000
6000
6000
6100
6300
F700
0F00
1B00
1F00
0300
0000
0000
0000
ENDCHAR
STARTCHAR onehalf
ENCODING 189
SWIDTH 785 0
DWIDTH 9 0
BBX 9 15 0 -3
BITMAP
0000
6000
E000
6000
6000
6E00
7300
F300
0600
0C00
1800
1F00
0000
0000
0000
ENDCHAR
STARTCHAR threequarters
ENCODING 190
SWIDTH 785 0
DWIDTH 9 0
BBX 9 15 0 -3
BITMAP
0000
7000
9800
1800
3000
1900
9B00
7700
0F00
1B00
1F00
0300
0000
0000
0000
ENDCHAR
STARTCHAR questiondown
ENCODING 191
SWIDTH 785 0
DWIDTH 9 0
BBX 9 15 0 -3
BITMAP
0000
0000
0C00
0C00
0000
0C00
1800
3000
6000
6300
6300
3E00
0000
0000
0000
ENDCHAR
STARTCHAR Agrave
ENCODING 192
SWIDTH 785 0
DWIDTH 9 0
BBX 9 15 0 -3
BITMAP
6000
3000
1800
0000
3C00
6600
C300
C300
FF00
C300
C300
C300
0000
0000
0000
ENDCHAR
STARTCHAR Aacute
ENCODING 193
SWIDTH 785 0
DWIDTH 9 0
BBX 9 15 0 -3
BITMAP
0600
0C00
1800
0000
3C00
6600
C300
C300
FF00
C300
C300
C300
0000
0000
0000
ENDCHAR
STARTCHAR Acircumflex
ENCODING 194
SWIDTH 785 0
DWIDTH 9 0
BBX 9 15 0 -3
BITMAP
1800
3C00
6600
0000
3C00
6600
C300
C300
FF00
C300
C300
C300
0000
0000
0000
ENDCHAR
STARTCHAR Atilde
ENCODING 195
SWIDTH 785 0
DWIDTH 9 0
BBX 9 15 0 -3
BITMAP
3200
7E00
4C00
0000
3C00
6600
C300
C300
FF00
C300
C300
C300
0000
0000
0000
ENDCHAR
STARTCHAR Adieresis
ENCODING 196
SWIDTH 785 0
DWIDTH 9 0
BBX 9 15 0 -3
BITMAP
0000
6600
6600
0000
3C00
6600
C300
C300
FF00
C300
C300
C300
0000
0000
0000
ENDCHAR
STARTCHAR Aring
ENCODING 197
SWIDTH 785 0
DWIDTH 9 0
BBX 9 15 0 -3
BITMAP
1800
2400
2400
1800
3C00
6600
C300
C300
FF00
C300
C300
C300
0000
0000
0000
ENDCHAR
STARTCHAR AE
ENCODING 198
SWIDTH 785 0
DWIDTH 9 0
BBX 9 15 0 -3
BITMAP
0000
0000
1F00
3C00
6C00
6C00
CC00
FF00
CC00
CC00
CC00
CF00
0000
0000
0000
ENDCHAR
STARTCHAR Ccedilla
ENCODING 199
SWIDTH 785 0
DWIDTH 9 0
BBX 9 15 0 -3
BITMAP
0000
0000
3E00
6300
C100
C000
C000
C000
C000
C100
6300
3E00
0C00
6C00
3800
ENDCHAR
STARTCHAR Egrave
ENCODING 200
SWIDTH 785 0
DWIDTH 9 0
BBX 9 15 0 -3
BITMAP
3000
1800
0C00
0000
7F00
6000
6000
7E00
6000
6000
6000
7F00
0000
0000
0000
ENDCHAR
STARTCHAR Eacute
ENCODING 201
SWIDTH 785 0
DWIDTH 9 0
BBX 9 15 0 -3
BITMAP
0600
0C00
1800
0000
7F00
6000
6000
7E00
6000
6000
6000
7F00
0000
0000
0000
ENDCHAR
STARTCHAR Ecircumflex
ENCODING 202
SWIDTH 785 0
DWIDTH 9 0
BBX 9 15 0 -3
BITMAP
0C00
1E00
3300
0000
7F00
6000
6000
7E00
6000
6000
6000
7F00
0000
0000
0000
ENDCHAR
STARTCHAR Edieresis
ENCODING 203
SWIDTH 785 0
DWIDTH 9 0
BBX 9 15 0 -3
BITMAP
0000
3300
3300
0000
7F00
6000
6000
7E00
6000
6000
6000
7F00
0000
0000
0000
ENDCHAR
STARTCHAR Igrave
ENCODING 204
SWIDTH 785 0
DWIDTH 9 0
BBX 9 15 0 -3
BITMAP
6000
3000
1800
0000
7E00
1800
1800
1800
1800
1800
1800
7E00
0000
0000
0000
ENDCHAR
STARTCHAR Iacute
ENCODING 205
SWIDTH 785 0
DWIDTH 9 0
BBX 9 15 0 -3
BITMAP
0C00
1800
3000
0000
7E00
1800
1800
1800
1800
1800
1800
7E00
0000
0000
0000
ENDCHAR
STARTCHAR Icircumflex
ENCODING 206
SWIDTH 785 0
DWIDTH 9 0
BBX 9 15 0 -3
BITMAP
1800
3C00
6600
0000
7E00
1800
1800
1800
1800
1800
1800
7E00
0000
0000
0000
ENDCHAR
STARTCHAR Idieresis
ENCODING 207
SWIDTH 785 0
DWIDTH 9 0
BBX 9 15 0 -3
BITMAP
0000
6600
6600
0000
7E00
1800
1800
1800
1800
1800
1800
7E00
0000
0000
0000
ENDCHAR
STARTCHAR Eth
ENCODING 208
SWIDTH 785 0
DWIDTH 9 0
BBX 9 15 0 -3
BITMAP
0000
0000
7E00
6300
6180
6180
F980
F980
6180
6180
6300
7E00
0000
0000
0000
ENDCHAR
STARTCHAR Ntilde
ENCODING 209
SWIDTH 785 0
DWIDTH 9 0
BBX 9 15 0 -3
BITMAP
3200
7E00
4C00
0000
C300
E300
F300
FB00
DF00
CF00
C700
C300
0000
0000
0000
ENDCHAR
STARTCHAR Ograve
ENCODING 210
SWIDTH 785 0
DWIDTH 9 0
BBX 9 15 0 -3
BITMAP
6000
3000
1800
0000
3C00
6600
C300
C300
C300
C300
6600
3C00
0000
0000
0000
ENDCHAR
STARTCHAR Oacute
ENCODING 211
SWIDTH 785 0
DWIDTH 9 0
BBX 9 15 0 -3
BITMAP
0600
0C00
1800
0000
3C00
6600
C300
C300
C300
C300
6600
3C00
0000
0000
0000
ENDCHAR
STARTCHAR Ocircumflex
ENCODING 212
SWIDTH 785 0
DWIDTH 9 0
BBX 9 15 0 -3
BITMAP
1800
3C00
6600
0000
3C00
6600
C300
C300
C300
C300
6600
3C00
0000
0000
0000
ENDCHAR
STARTCHAR Otilde
ENCODING 213
SWIDTH 785 0
DWIDTH 9 0
BBX 9 15 0 -3
BITMAP
3200
7E00
4C00
0000
3C00
6600
C300
C300
C300
C300
6600
3C00
0000
0000
0000
ENDCHAR
STARTCHAR Odieresis
ENCODING 214
SWIDTH 785 0
DWIDTH 9 0
BBX 9 15 0 -3
BITMAP
0000
6600
6600
0000
3C00
6600
C300
C300
C300
C300
6600
3C00
0000
0000
0000
ENDCHAR
STARTCHAR multiply
ENCODING 215
SWIDTH 785 0
DWIDTH 9 0
BBX 9 15 0 -3
BITMAP
0000
0000
0000
0000
4100
6300
3600
1C00
1C00
3600
6300
4100
0000
0000
0000
ENDCHAR
STARTCHAR Oslash
ENCODING 216
SWIDTH 785 0
DWIDTH 9 0
BBX 9 15 0 -3
BITMAP
0000
0100
3F00
6600
C700
CB00
CB00
D300
D300
E300
6600
FC00
8000
0000
0000
ENDCHAR
STARTCHAR Ugrave
ENCODING 217
SWIDTH 785 0
DWIDTH 9 0
BBX 9 15 0 -3
BITMAP
6000
3000
1800
0000
C300
C300
C300
C300
C300
C300
6600
3C00
0000
0000
0000
ENDCHAR
STARTCHAR Uacute
ENCODING 218
SWIDTH 785 0
DWIDTH 9 0
BBX 9 15 0 -3
BITMAP
0600
0C00
1800
0000
C300
C300
C300
C300
C300
C300
6600
3C00
0000
0000
0000
ENDCHAR
STARTCHAR Ucircumflex
ENCODING 219
SWIDTH 785 0
DWIDTH 9 0
BBX 9 15 0 -3
BITMAP
1800
3C00
6600
0000
C300
C300
C300
C300
C300
C300
6600
3C00
0000
0000
0000
ENDCHAR
STARTCHAR Udieresis
ENCODING 220
SWIDTH 785 0
DWIDTH 9 0
BBX 9 15 0 -3
BITMAP
0000
6600
6600
0000
C300
C300
C300
C300
C300
C300
6600
3C00
0000
0000
0000
ENDCHAR
STARTCHAR Yacute
ENCODING 221
SWIDTH 785 0
DWIDTH 9 0
BBX 9 15 0 -3
BITMAP
0600
0C00
1800
0000
C300
6600
3C00
1800
1800
1800
1800
1800
0000
0000
0000
ENDCHAR
STARTCHAR Thorn
ENCODING 222
SWIDTH 785 0
DWIDTH 9 0
BBX 9 15 0 -3
BITMAP
0000
0000
7800
3000
3E00
3300
3300
3300
3E00
3000
3000
7800
0000
0000
0000
ENDCHAR
STARTCHAR germandbls
ENCODING 223
SWIDTH 785 0
DWIDTH 9 0
BBX 9 15 0 -3
BITMAP
0000
0000
1E00
3300
6300
6600
6C00
6600
6300
6300
6300
6E00
0000
0000
0000
ENDCHAR
STARTCHAR agrave
ENCODING 224
SWIDTH 785 0
DWIDTH 9 0
BBX 9 15 0 -3
BITMAP
0000
6000
3000
1800
0000
3E00
4300
0300
7F00
C300
C700
7B00
0000
0000
0000
ENDCHAR
STARTCHAR aacute
ENCODING 225
SWIDTH 785 0
DWIDTH 9 0
BBX 9 15 0 -3
BITMAP
0000
0C00
1800
3000
0000
3E00
4300
0300
7F00
C300
C700
7B00
0000
0000
0000
ENDCHAR
STARTCHAR acircumflex
ENCODING 226
SWIDTH 785 0
DWIDTH 9 0
BBX 9 15 0 -3
BITMAP
0000
1800
3C00
6600
0000
3E00
4300
0300
7F00
C300
C700
7B00
0000
0000
0000
ENDCHAR
STARTCHAR atilde
ENCODING 227
SWIDTH 785 0
DWIDTH 9 0
BBX 9 15 0 -3
BITMAP
0000
3200
7E00
4C00
0000
3E00
4300
0300
7F00
C300
C700
7B00
0000
0000
0000
ENDCHAR
STARTCHAR adieresis
ENCODING 228
SWIDTH 785 0
DWIDTH 9 0
BBX 9 15 0 -3
BITMAP
0000
0000
6600
6600
0000
3E00
4300
0300
7F00
C300
C700
7B00
0000
0000
0000
ENDCHAR
STARTCHAR aring
ENCODING 229
SWIDTH 785 0
DWIDTH 9 0
BBX 9 15 0 -3
BITMAP
0000
1800
2400
2400
1800
3E00
4300
0300
7F00
C300
C700
7B00
0000
0000
0000
ENDCHAR
STARTCHAR ae
ENCODING 230
SWIDTH 785 0
DWIDTH 9 0
BBX 9 15 0 -3
BITMAP
0000
0000
0000
0000
0000
7600
9B00
1B00
7E00
D800
D900
6E00
0000
0000
0000
ENDCHAR
STARTCHAR ccedilla
ENCODING 231
SWIDTH 785 0
DWIDTH 9 0
BBX 9 15 0 -3
BITMAP
0000
0000
0000
0000
0000
3E00
6300
C000
C000
C000
6300
3E00
0C00
6C00
3800
ENDCHAR
STARTCHAR egrave
ENCODING 232
SWIDTH 785 0
DWIDTH 9 0
BBX 9 15 0 -3
BITMAP
0000
6000
3000
1800
0000
3C00
6600
C300
FF00
C000
6300
3E00
0000
0000
0000
ENDCHAR
STARTCHAR eacute
ENCODING 233
SWIDTH 785 0
DWIDTH 9 0
BBX 9 15 0 -3
BITMAP
0000
0C00
1800
3000
0000
3C00
6600
C300
FF00
C000
6300
3E00
0000
0000
0000
ENDCHAR
STARTCHAR ecircumflex
ENCODING 234
SWIDTH 785 0
DWIDTH 9 0
BBX 9 15 0 -3
BITMAP
0000
1800
3C00
6600
0000
3C00
6600
C300
FF00
C000
6300
3E00
0000
0000
0000
ENDCHAR
STARTCHAR edieresis
ENCODING 235
SWIDTH 785 0
DWIDTH 9 0
BBX 9 15 0 -3
BITMAP
0000
0000
6600
6600
0000
3C00
6600
C300
FF00
C000
6300
3E00
0000
0000
0000
ENDCHAR
STARTCHAR igrave
ENCODING 236
SWIDTH 785 0
DWIDTH 9 0
BBX 9 15 0 -3
BITMAP
0000
6000
3000
1800
0000
3800
1800
1800
1800
1800
1800
7E00
0000
0000
0000
ENDCHAR
STARTCHAR iacute
ENCODING 237
SWIDTH 785 0
DWIDTH 9 0
BBX 9 15 0 -3
BITMAP
0000
0C00
1800
3000
0000
3800
1800
1800
1800
1800
1800
7E00
0000
0000
0000
ENDCHAR
STARTCHAR icircumflex
ENCODING 238
SWIDTH 785 0
DWIDTH 9 0
BBX 9 15 0 -3
BITMAP
0000
1800
3C00
6600
0000
3800
1800
1800
1800
1800
1800
7E00
0000
0000
0000
ENDCHAR
STARTCHAR idieresis
ENCODING 239
SWIDTH 785 0
DWIDTH 9 0
BBX 9 15 0 -3
BITMAP
0000
0000
6600
6600
0000
3800
1800
1800
1800
1800
1800
7E00
0000
0000
0000
ENDCHAR
STARTCHAR eth
ENCODING 240
SWIDTH 785 0
DWIDTH 9 0
BBX 9 15 0 -3
BITMAP
8800
D800
7000
7000
D800
8C00
3E00
6700
C300
C300
6600
3C00
0000
0000
0000
ENDCHAR
STARTCHAR ntilde
ENCODING 241
SWIDTH 785 0
DWIDTH 9 0
BBX 9 15 0 -3
BITMAP
0000
3200
7E00
4C00
0000
DC00
E600
C300
C300
C300
C300
C300
0000
0000
0000
ENDCHAR
STARTCHAR ograve
ENCODING 242
SWIDTH 785 0
DWIDTH 9 0
BBX 9 15 0 -3
BITMAP
0000
6000
3000
1800
0000
3C00
6600
C300
C300
C300
6600
3C00
0000
0000
0000
ENDCHAR
STARTCHAR oacute
ENCODING 243
SWIDTH 785 0
DWIDTH 9 0
BBX 9 15 0 -3
BITMAP
0000
0C00
1800
3000
0000
3C00
6600
C300
C300
C300
6600
3C00
0000
0000
0000
ENDCHAR
STARTCHAR ocircumflex
ENCODING 244
SWIDTH 785 0
DWIDTH 9 0
BBX 9 15 0 -3
BITMAP
0000
1800
3C00
6600
0000
3C00
6600
C300
C300
C300
6600
3C00
0000
0000
0000
ENDCHAR
STARTCHAR otilde
ENCODING 245
SWIDTH 785 0
DWIDTH 9 0
BBX 9 15 0 -3
BITMAP
0000
3200
7E00
4C00
0000
3C00
6600
C300
C300
C300
6600
3C00
0000
0000
0000
ENDCHAR
STARTCHAR odieresis
ENCODING 246
SWIDTH 785 0
DWIDTH 9 0
BBX 9 15 0 -3
BITMAP
0000
0000
6600
6600
0000
3C00
6600
C300
C300
C300
6600
3C00
0000
0000
0000
ENDCHAR
STARTCHAR divide
ENCODING 247
SWIDTH 785 0
DWIDTH 9 0
BBX 9 15 0 -3
BITMAP
0000
0000
1800
1800
0000
0000
FF00
FF00
0000
0000
1800
1800
0000
0000
0000
ENDCHAR
STARTCHAR oslash
ENCODING 248
SWIDTH 785 0
DWIDTH 9 0
BBX 9 15 0 -3
BITMAP
0000
0000
0000
0000
0100
3F00
6600
CF00
DB00
F300
6600
FC00
8000
0000
0000
ENDCHAR
STARTCHAR ugrave
ENCODING 249
SWIDTH 785 0
DWIDTH 9 0
BBX 9 15 0 -3
BITMAP
0000
6000
3000
1800
0000
C300
C300
C300
C300
C300
6700
3B00
0000
0000
0000
ENDCHAR
STARTCHAR uacute
ENCODING 250
SWIDTH 785 0
DWIDTH 9 0
BBX 9 15 0 -3
BITMAP
0000
0C00
1800
3000
0000
C300
C300
C300
C300
C300
6700
3B00
0000
0000
0000
ENDCHAR
STARTCHAR ucircumflex
ENCODING 251
SWIDTH 785 0
DWIDTH 9 0
BBX 9 15 0 -3
BITMAP
0000
1800
3C00
6600
0000
C300
C300
C300
C300
C300
6700
3B00
0000
0000
0000
ENDCHAR
STARTCHAR udieresis
ENCODING 252
SWIDTH 785 0
DWIDTH 9 0
BBX 9 15 0 -3
BITMAP
0000
0000
6600
6600
0000
C300
C300
C300
C300
C300
6700
3B00
0000
0000
0000
ENDCHAR
STARTCHAR yacute
ENCODING 253
SWIDTH 785 0
DWIDTH 9 0
BBX 9 15 0 -3
BITMAP
0000
0C00
1800
3000
0000
C300
C300
C300
C300
C300
6700
3B00
0300
C600
7C00
ENDCHAR
STARTCHAR thorn
ENCODING 254
SWIDTH 785 0
DWIDTH 9 0
BBX 9 15 0 -3
BITMAP
0000
0000
0000
7000
3000
3000
3E00
3300
3300
3300
3300
3E00
3000
3000
7000
ENDCHAR
STARTCHAR ydieresis
ENCODING 255
SWIDTH 785 0
DWIDTH 9 0
BBX 9 15 0 -3
BITMAP
0000
0000
6600
6600
0000
C300
C300
C300
C300
C300
6700
3B00
0300
C600
7C00
ENDCHAR
STARTCHAR Amacron
ENCODING 256
SWIDTH 785 0
DWIDTH 9 0
BBX 9 15 0 -3
BITMAP
0000
7E00
0000
3C00
6600
C300
C300
C300
FF00
C300
C300
C300
0000
0000
0000
ENDCHAR
STARTCHAR amacron
ENCODING 257
SWIDTH 785 0
DWIDTH 9 0
BBX 9 15 0 -3
BITMAP
0000
0000
0000
7E00
0000
3E00
6300
0300
7F00
C300
C700
7B00
0000
0000
0000
ENDCHAR
STARTCHAR Abreve
ENCODING 258
SWIDTH 785 0
DWIDTH 9 0
BBX 9 15 0 -3
BITMAP
0000
4200
3C00
0000
3C00
6600
C300
C300
FF00
C300
C300
C300
0000
0000
0000
ENDCHAR
STARTCHAR abreve
ENCODING 259
SWIDTH 785 0
DWIDTH 9 0
BBX 9 15 0 -3
BITMAP
0000
0000
4200
3C00
0000
3E00
6300
0300
7F00
C300
C700
7B00
0000
0000
0000
ENDCHAR
STARTCHAR Aogonek
ENCODING 260
SWIDTH 785 0
DWIDTH 9 0
BBX 9 15 0 -3
BITMAP
0000
0000
1000
3800
6C00
C600
C600
C600
FE00
C600
C600
C600
0600
0700
0000
ENDCHAR
STARTCHAR aogonek
ENCODING 261
SWIDTH 785 0
DWIDTH 9 0
BBX 9 15 0 -3
BITMAP
0000
0000
0000
0000
0000
3C00
6600
0600
7E00
C600
CE00
7600
0600
0300
0000
ENDCHAR
STARTCHAR Cacute
ENCODING 262
SWIDTH 785 0
DWIDTH 9 0
BBX 9 15 0 -3
BITMAP
0600
0C00
1800
0000
3E00
6300
C100
C000
C000
C100
6300
3E00
0000
0000
0000
ENDCHAR
STARTCHAR cacute
ENCODING 263
SWIDTH 785 0
DWIDTH 9 0
BBX 9 15 0 -3
BITMAP
0000
0600
0C00
1800
0000
3E00
6300
C000
C000
C000
6300
3E00
0000
0000
0000
ENDCHAR
STARTCHAR Ccircumflex
ENCODING 264
SWIDTH 785 0
DWIDTH 9 0
BBX 9 15 0 -3
BITMAP
1800
3C00
6600
0000
3E00
6300
C100
C000
C000
C100
6300
3E00
0000
0000
0000
ENDCHAR
STARTCHAR ccircumflex
ENCODING 265
SWIDTH 785 0
DWIDTH 9 0
BBX 9 15 0 -3
BITMAP
0000
1800
3C00
6600
0000
3E00
6300
C000
C000
C000
6300
3E00
0000
0000
0000
ENDCHAR
STARTCHAR Cdotaccent
ENCODING 266
SWIDTH 785 0
DWIDTH 9 0
BBX 9 15 0 -3
BITMAP
1800
1800
0000
3E00
6300
C100
C000
C000
C000
C100
6300
3E00
0000
0000
0000
ENDCHAR
STARTCHAR cdotaccent
ENCODING 267
SWIDTH 785 0
DWIDTH 9 0
BBX 9 15 0 -3
BITMAP
0000
0000
1800
1800
0000
3E00
6300
C000
C000
C000
6300
3E00
0000
0000
0000
ENDCHAR
STARTCHAR Ccaron
ENCODING 268
SWIDTH 785 0
DWIDTH 9 0
BBX 9 15 0 -3
BITMAP
6600
3C00
1800
0000
3E00
6300
C100
C000
C000
C100
6300
3E00
0000
0000
0000
ENDCHAR
STARTCHAR ccaron
ENCODING 269
SWIDTH 785 0
DWIDTH 9 0
BBX 9 15 0 -3
BITMAP
0000
6600
3C00
1800
0000
3E00
6300
C000
C000
C000
6300
3E00
0000
0000
0000
ENDCHAR
STARTCHAR Dcaron
ENCODING 270
SWIDTH 785 0
DWIDTH 9 0
BBX 9 15 0 -3
BITMAP
0000
4800
3000
0000
FC00
C600
C300
C300
C300
C300
C600
FC00
0000
0000
0000
ENDCHAR
STARTCHAR dcaron
ENCODING 271
SWIDTH 785 0
DWIDTH 9 0
BBX 9 15 0 -3
BITMAP
0000
4800
3000
0300
0300
3B00
6700
C300
C300
C300
6700
3B00
0000
0000
0000
ENDCHAR
STARTCHAR Dcroat
ENCODING 272
SWIDTH 785 0
DWIDTH 9 0
BBX 9 15 0 -3
BITMAP
0000
0000
7E00
6300
6180
6180
F980
6180
6180
6180
6300
7E00
0000
0000
0000
ENDCHAR
STARTCHAR dcroat
ENCODING 273
SWIDTH 785 0
DWIDTH 9 0
BBX 9 15 0 -3
BITMAP
0000
0000
0600
1F00
0600
3600
6E00
C600
C600
C600
6E00
3600
0000
0000
0000
ENDCHAR
STARTCHAR Emacron
ENCODING 274
SWIDTH 785 0
DWIDTH 9 0
BBX 9 15 0 -3
BITMAP
0000
7F00
0000
7F00
6000
6000
6000
7C00
6000
6000
6000
7F00
0000
0000
0000
ENDCHAR
STARTCHAR emacron
ENCODING 275
SWIDTH 785 0
DWIDTH 9 0
BBX 9 15 0 -3
BITMAP
0000
0000
0000
7E00
0000
3C00
6600
C300
FF00
C000
6300
3E00
0000
0000
0000
ENDCHAR
STARTCHAR Ebreve
ENCODING 276
SWIDTH 785 0
DWIDTH 9 0
BBX 9 15 0 -3
BITMAP
0000
2200
1C00
0000
7F00
6000
6000
7C00
6000
6000
6000
7F00
0000
0000
0000
ENDCHAR
STARTCHAR ebreve
ENCODING 277
SWIDTH 785 0
DWIDTH 9 0
BBX 9 15 0 -3
BITMAP
0000
0000
2200
1C00
0000
3C00
6600
C100
FF00
C000
6300
3E00
0000
0000
0000
ENDCHAR
STARTCHAR Edotaccent
ENCODING 278
SWIDTH 785 0
DWIDTH 9 0
BBX 9 15 0 -3
BITMAP
0000
0C00
0C00
0000
7F00
6000
6000
7C00
6000
6000
6000
7F00
0000
0000
0000
ENDCHAR
STARTCHAR edotaccent
ENCODING 279
SWIDTH 785 0
DWIDTH 9 0
BBX 9 15 0 -3
BITMAP
0000
0000
1800
1800
0000
3C00
6600
C300
FF00
C000
6300
3E00
0000
0000
0000
ENDCHAR
STARTCHAR Eogonek
ENCODING 280
SWIDTH 785 0
DWIDTH 9 0
BBX 9 15 0 -3
BITMAP
0000
0000
7F00
6000
6000
6000
7C00
6000
6000
6000
6000
7F00
1800
1C00
0000
ENDCHAR
STARTCHAR eogonek
ENCODING 281
SWIDTH 785 0
DWIDTH 9 0
BBX 9 15 0 -3
BITMAP
0000
0000
0000
0000
0000
3C00
6600
C300
FF00
C000
6300
3E00
1800
1C00
0000
ENDCHAR
STARTCHAR Ecaron
ENCODING 282
SWIDTH 785 0
DWIDTH 9 0
BBX 9 15 0 -3
BITMAP
6600
3C00
1800
0000
7F00
6000
6000
7C00
6000
6000
6000
7F00
0000
0000
0000
ENDCHAR
STARTCHAR ecaron
ENCODING 283
SWIDTH 785 0
DWIDTH 9 0
BBX 9 15 0 -3
BITMAP
0000
6600
3C00
1800
0000
3C00
6600
C300
FF00
C000
6300
3E00
0000
0000
0000
ENDCHAR
STARTCHAR Gcircumflex
ENCODING 284
SWIDTH 785 0
DWIDTH 9 0
BBX 9 15 0 -3
BITMAP
1800
3C00
6600
0000
3E00
6300
C000
C000
CF00
C300
6300
3E00
0000
0000
0000
ENDCHAR
STARTCHAR gcircumflex
ENCODING 285
SWIDTH 785 0
DWIDTH 9 0
BBX 9 15 0 -3
BITMAP
0000
1800
3C00
6600
0000
7D00
C700
C600
C600
7C00
C000
7E00
C300
C300
7E00
ENDCHAR
STARTCHAR Gbreve
ENCODING 286
SWIDTH 785 0
DWIDTH 9 0
BBX 9 15 0 -3
BITMAP
0000
4200
3C00
0000
3E00
6300
C000
C000
CF00
C300
6300
3E00
0000
0000
0000
ENDCHAR
STARTCHAR gbreve
ENCODING 287
SWIDTH 785 0
DWIDTH 9 0
BBX 9 15 0 -3
BITMAP
0000
0000
4400
3800
0000
7D00
C700
C600
C600
7C00
C000
7E00
C300
C300
7E00
ENDCHAR
STARTCHAR Gdotaccent
ENCODING 288
SWIDTH 785 0
DWIDTH 9 0
BBX 9 15 0 -3
BITMAP
0000
1800
1800
0000
3E00
6300
C000
C000
C700
C300
6300
3E00
0000
0000
0000
ENDCHAR
STARTCHAR gdotaccent
ENCODING 289
SWIDTH 785 0
DWIDTH 9 0
BBX 9 15 0 -3
BITMAP
0000
0000
1800
1800
0000
7D00
C700
C600
C600
7C00
C000
7E00
C300
C300
7E00
ENDCHAR
STARTCHAR Gcommaaccent
ENCODING 290
SWIDTH 785 0
DWIDTH 9 0
BBX 9 15 0 -3
BITMAP
0000
0000
3E00
6300
C000
C000
C000
C700
C300
C300
6300
3E00
0C00
2400
1800
ENDCHAR
STARTCHAR gcommaaccent
ENCODING 291
SWIDTH 785 0
DWIDTH 9 0
BBX 9 15 0 -3
BITMAP
0800
1000
1800
1800
0000
7D00
C700
C600
C600
7C00
C000
7E00
C300
7E00
0000
ENDCHAR
STARTCHAR Hcircumflex
ENCODING 292
SWIDTH 785 0
DWIDTH 9 0
BBX 9 15 0 -3
BITMAP
1800
3C00
6600
0000
C300
C300
C300
FF00
C300
C300
C300
C300
0000
0000
0000
ENDCHAR
STARTCHAR hcircumflex
ENCODING 293
SWIDTH 785 0
DWIDTH 9 0
BBX 9 15 0 -3
BITMAP
1800
3C00
6600
0000
C000
C000
C000
DC00
E600
C300
C300
C300
0000
0000
0000
ENDCHAR
STARTCHAR Hbar
ENCODING 294
SWIDTH 785 0
DWIDTH 9 0
BBX 9 15 0 -3
BITMAP
0000
0000
6300
6300
FF80
6300
6300
7F00
6300
6300
6300
6300
0000
0000
0000
ENDCHAR
STARTCHAR hbar
ENCODING 295
SWIDTH 785 0
DWIDTH 9 0
BBX 9 15 0 -3
BITMAP
0000
0000
6000
F800
6000
6E00
7300
6180
6180
6180
6180
6180
0000
0000
0000
ENDCHAR
STARTCHAR Itilde
ENCODING 296
SWIDTH 785 0
DWIDTH 9 0
BBX 9 15 0 -3
BITMAP
3200
7E00
4C00
0000
7E00
1800
1800
1800
1800
1800
1800
7E00
0000
0000
0000
ENDCHAR
STARTCHAR itilde
ENCODING 297
SWIDTH 785 0
DWIDTH 9 0
BBX 9 15 0 -3
BITMAP
0000
3200
7E00
4C00
0000
7800
1800
1800
1800
1800
1800
7E00
0000
0000
0000
ENDCHAR
STARTCHAR Imacron
ENCODING 298
SWIDTH 785 0
DWIDTH 9 0
BBX 9 15 0 -3
BITMAP
0000
7E00
0000
7E00
1800
1800
1800
1800
1800
1800
1800
7E00
0000
0000
0000
ENDCHAR
STARTCHAR imacron
ENCODING 299
SWIDTH 785 0
DWIDTH 9 0
BBX 9 15 0 -3
BITMAP
0000
0000
0000
7E00
0000
7800
1800
1800
1800
1800
1800
7E00
0000
0000
0000
ENDCHAR
STARTCHAR Ibreve
ENCODING 300
SWIDTH 785 0
DWIDTH 9 0
BBX 9 15 0 -3
BITMAP
0000
4200
3C00
0000
7E00
1800
1800
1800
1800
1800
1800
7E00
0000
0000
0000
ENDCHAR
STARTCHAR ibreve
ENCODING 301
SWIDTH 785 0
DWIDTH 9 0
BBX 9 15 0 -3
BITMAP
0000
0000
4200
3C00
0000
7800
1800
1800
1800
1800
1800
7E00
0000
0000
0000
ENDCHAR
STARTCHAR Iogonek
ENCODING 302
SWIDTH 785 0
DWIDTH 9 0
BBX 9 15 0 -3
BITMAP
0000
0000
7E00
1800
1800
1800
1800
1800
1800
1800
1800
7E00
3000
3800
0000
ENDCHAR
STARTCHAR iogonek
ENCODING 303
SWIDTH 785 0
DWIDTH 9 0
BBX 9 15 0 -3
BITMAP
0000
0000
1800
1800
0000
7800
1800
1800
1800
1800
1800
7E00
3000
3800
0000
ENDCHAR
STARTCHAR Idotaccent
ENCODING 304
SWIDTH 785 0
DWIDTH 9 0
BBX 9 15 0 -3
BITMAP
0000
1800
1800
0000
7E00
1800
1800
1800
1800
1800
1800
7E00
0000
0000
0000
ENDCHAR
STARTCHAR dotlessi
ENCODING 305
SWIDTH 785 0
DWIDTH 9 0
BBX 9 15 0 -3
BITMAP
0000
0000
0000
0000
0000
7800
1800
1800
1800
1800
1800
7E00
0000
0000
0000
ENDCHAR
STARTCHAR IJ
ENCODING 306
SWIDTH 785 0
DWIDTH 9 0
BBX 9 15 0 -3
BITMAP
0000
0000
F700
6300
6300
6300
6300
6300
6300
6300
6B00
F600
0000
0000
0000
ENDCHAR
STARTCHAR ij
ENCODING 307
SWIDTH 785 0
DWIDTH 9 0
BBX 9 15 0 -3
BITMAP
0000
0000
6300
6300
0000
EF00
6300
6300
6300
6300
6300
F300
0300
1B00
0E00
ENDCHAR
STARTCHAR Jcircumflex
ENCODING 308
SWIDTH 785 0
DWIDTH 9 0
BBX 9 15 0 -3
BITMAP
0C00
1E00
3300
0000
1F00
0600
0600
0600
0600
0600
C600
7C00
0000
0000
0000
ENDCHAR
STARTCHAR jcircumflex
ENCODING 309
SWIDTH 785 0
DWIDTH 9 0
BBX 9 15 0 -3
BITMAP
0000
0C00
1E00
3300
0000
1E00
0600
0600
0600
0600
0600
C600
C600
C600
7C00
ENDCHAR
STARTCHAR Kcommaaccent
ENCODING 310
SWIDTH 785 0
DWIDTH 9 0
BBX 9 15 0 -3
BITMAP
0000
0000
C300
C600
CC00
D800
F000
F000
D800
CC00
C600
C300
3000
9000
6000
ENDCHAR
STARTCHAR kcommaaccent
ENCODING 311
SWIDTH 785 0
DWIDTH 9 0
BBX 9 15 0 -3
BITMAP
0000
0000
6000
6000
6000
6600
6C00
7800
7800
6C00
6600
6300
3000
9000
6000
ENDCHAR
STARTCHAR kgreenlandic
ENCODING 312
SWIDTH 785 0
DWIDTH 9 0
BBX 9 15 0 -3
BITMAP
0000
0000
0000
0000
0000
C300
C600
CC00
F800
CC00
C600
C300
0000
0000
0000
ENDCHAR
STARTCHAR Lacute
ENCODING 313
SWIDTH 785 0
DWIDTH 9 0
BBX 9 15 0 -3
BITMAP
0600
0C00
1800
0000
6000
6000
6000
6000
6000
6000
6000
7F00
0000
0000
0000
ENDCHAR
STARTCHAR lacute
ENCODING 314
SWIDTH 785 0
DWIDTH 9 0
BBX 9 15 0 -3
BITMAP
0C00
1800
3000
0000
7800
1800
1800
1800
1800
1800
1800
7E00
0000
0000
0000
ENDCHAR
STARTCHAR Lcommaaccent
ENCODING 315
SWIDTH 785 0
DWIDTH 9 0
BBX 9 15 0 -3
BITMAP
0000
0000
6000
6000
6000
6000
6000
6000
6000
6000
6000
7F00
0C00
2400
1800
ENDCHAR
STARTCHAR lcommaaccent
ENCODING 316
SWIDTH 785 0
DWIDTH 9 0
BBX 9 15 0 -3
BITMAP
0000
0000
7800
1800
1800
1800
1800
1800
1800
1800
1800
7E00
1800
4800
3000
ENDCHAR
STARTCHAR Lcaron
ENCODING 317
SWIDTH 785 0
DWIDTH 9 0
BBX 9 15 0 -3
BITMAP
6600
3C00
1800
0000
6000
6000
6000
6000
6000
6000
6000
7F00
0000
0000
0000
ENDCHAR
STARTCHAR lcaron
ENCODING 318
SWIDTH 785 0
DWIDTH 9 0
BBX 9 15 0 -3
BITMAP
6600
3C00
1800
0000
7800
1800
1800
1800
1800
1800
1800
7E00
0000
0000
0000
ENDCHAR
STARTCHAR Ldot
ENCODING 319
SWIDTH 785 0
DWIDTH 9 0
BBX 9 15 0 -3
BITMAP
0000
0000
6000
6000
6000
6600
6600
6000
6000
6000
6000
7F00
0000
0000
0000
ENDCHAR
STARTCHAR ldot
ENCODING 320
SWIDTH 785 0
DWIDTH 9 0
BBX 9 15 0 -3
BITMAP
0000
0000
F000
3000
3000
3300
3300
3000
3000
3000
3000
FC00
0000
0000
0000
ENDCHAR
STARTCHAR Lslash
ENCODING 321
SWIDTH 785 0
DWIDTH 9 0
BBX 9 15 0 -3
BITMAP
0000
0000
6000
6000
6800
7000
6000
E000
6000
6000
6000
7F00
0000
0000
0000
ENDCHAR
STARTCHAR lslash
ENCODING 322
SWIDTH 785 0
DWIDTH 9 0
BBX 9 15 0 -3
BITMAP
0000
0000
7800
1800
1A00
1C00
1800
3800
1800
1800
1800
7E00
0000
0000
0000
ENDCHAR
STARTCHAR Nacute
ENCODING 323
SWIDTH 785 0
DWIDTH 9 0
BBX 9 15 0 -3
BITMAP
0C00
1800
3000
0000
C300
C300
E300
E300
D300
CB00
C700
C300
0000
0000
0000
ENDCHAR
STARTCHAR nacute
ENCODING 324
SWIDTH 785 0
DWIDTH 9 0
BBX 9 15 0 -3
BITMAP
0000
0C00
1800
3000
0000
DC00
E600
C300
C300
C300
C300
C300
0000
0000
0000
ENDCHAR
STARTCHAR Ncommaaccent
ENCODING 325
SWIDTH 785 0
DWIDTH 9 0
BBX 9 15 0 -3
BITMAP
0000
0000
6180
7180
7980
7980
6D80
6D80
6780
6380
6380
6180
3000
9000
6000
ENDCHAR
STARTCHAR ncommaaccent
ENCODING 326
SWIDTH 785 0
DWIDTH 9 0
BBX 9 15 0 -3
BITMAP
0000
0000
0000
0000
0000
6E00
7300
6180
6180
6180
6180
6180
3000
9000
6000
ENDCHAR
STARTCHAR Ncaron
ENCODING 327
SWIDTH 785 0
DWIDTH 9 0
BBX 9 15 0 -3
BITMAP
6600
3C00
1800
C300
C300
E300
F300
DB00
CF00
C700
C300
C300
0000
0000
0000
ENDCHAR
STARTCHAR ncaron
ENCODING 328
SWIDTH 785 0
DWIDTH 9 0
BBX 9 15 0 -3
BITMAP
0000
6600
3C00
1800
0000
DC00
E600
C300
C300
C300
C300
C300
0000
0000
0000
ENDCHAR
STARTCHAR napostrophe
ENCODING 329
SWIDTH 785 0
DWIDTH 9 0
BBX 9 15 0 -3
BITMAP
0000
C000
4000
8000
0000
DC00
E600
C300
C300
C300
C300
C300
0000
0000
0000
ENDCHAR
STARTCHAR Eng
ENCODING 330
SWIDTH 785 0
DWIDTH 9 0
BBX 9 15 0 -3
BITMAP
0000
0000
C300
C300
E300
F300
DB00
CF00
C700
C300
C300
C300
1200
0C00
0000
ENDCHAR
STARTCHAR eng
ENCODING 331
SWIDTH 785 0
DWIDTH 9 0
BBX 9 15 0 -3
BITMAP
0000
0000
0000
0000
0000
DC00
E600
C300
C300
C300
C300
C300
1200
0C00
0000
ENDCHAR
STARTCHAR Omacron
ENCODING 332
SWIDTH 785 0
DWIDTH 9 0
BBX 9 15 0 -3
BITMAP
0000
7E00
0000
3C00
6600
C300
C300
C300
C300
C300
6600
3C00
0000
0000
0000
ENDCHAR
STARTCHAR omacron
ENCODING 333
SWIDTH 785 0
DWIDTH 9 0
BBX 9 15 0 -3
BITMAP
0000
0000
0000
7E00
0000
3C00
6600
C300
C300
C300
6600
3C00
0000
0000
0000
ENDCHAR
STARTCHAR Obreve
ENCODING 334
SWIDTH 785 0
DWIDTH 9 0
BBX 9 15 0 -3
BITMAP
0000
4200
3C00
0000
3C00
6600
C300
C300
C300
C300
6600
3C00
0000
0000
0000
ENDCHAR
STARTCHAR obreve
ENCODING 335
SWIDTH 785 0
DWIDTH 9 0
BBX 9 15 0 -3
BITMAP
0000
0000
4200
3C00
0000
3C00
6600
C300
C300
C300
6600
3C00
0000
0000
0000
ENDCHAR
STARTCHAR Ohungarumlaut
ENCODING 336
SWIDTH 785 0
DWIDTH 9 0
BBX 9 15 0 -3
BITMAP
0000
3300
6600
0000
3C00
6600
C300
C300
C300
C300
6600
3C00
0000
0000
0000
ENDCHAR
STARTCHAR ohungarumlaut
ENCODING 337
SWIDTH 785 0
DWIDTH 9 0
BBX 9 15 0 -3
BITMAP
0000
0000
3300
6600
0000
3C00
6600
C300
C300
C300
6600
3C00
0000
0000
0000
ENDCHAR
STARTCHAR OE
ENCODING 338
SWIDTH 785 0
DWIDTH 9 0
BBX 9 15 0 -3
BITMAP
0000
0000
7700
CC00
CC00
CC00
CF00
CC00
CC00
CC00
CC00
7700
0000
0000
0000
ENDCHAR
STARTCHAR oe
ENCODING 339
SWIDTH 785 0
DWIDTH 9 0
BBX 9 15 0 -3
BITMAP
0000
0000
0000
0000
0000
7700
DD80
C980
CF80
C800
DD80
7700
0000
0000
0000
ENDCHAR
STARTCHAR Racute
ENCODING 340
SWIDTH 785 0
DWIDTH 9 0
BBX 9 15 0 -3
BITMAP
0C00
1800
3000
0000
FE00
C300
C300
C300
FE00
CC00
C600
C300
0000
0000
0000
ENDCHAR
STARTCHAR racute
ENCODING 341
SWIDTH 785 0
DWIDTH 9 0
BBX 9 15 0 -3
BITMAP
0000
0C00
1800
3000
0000
DE00
7300
6100
6000
6000
6000
6000
0000
0000
0000
ENDCHAR
STARTCHAR Rcommaaccent
ENCODING 342
SWIDTH 785 0
DWIDTH 9 0
BBX 9 15 0 -3
BITMAP
0000
0000
7F00
6180
6180
6180
7F00
7C00
6600
6300
6180
6180
3000
9000
6000
ENDCHAR
STARTCHAR rcommaaccent
ENCODING 343
SWIDTH 785 0
DWIDTH 9 0
BBX 9 15 0 -3
BITMAP
0000
0000
0000
0000
0000
6F00
3980
3080
3000
3000
3000
3000
3000
9000
6000
ENDCHAR
STARTCHAR Rcaron
ENCODING 344
SWIDTH 785 0
DWIDTH 9 0
BBX 9 15 0 -3
BITMAP
6600
3C00
1800
0000
FE00
C300
C300
C300
FE00
FC00
C600
C300
0000
0000
0000
ENDCHAR
STARTCHAR rcaron
ENCODING 345
SWIDTH 785 0
DWIDTH 9 0
BBX 9 15 0 -3
BITMAP
6600
3C00
1800
0000
0000
DE00
7300
6000
6000
6000
6000
6000
0000
0000
0000
ENDCHAR
STARTCHAR Sacute
ENCODING 346
SWIDTH 785 0
DWIDTH 9 0
BBX 9 15 0 -3
BITMAP
0C00
1800
3000
0000
7E00
C300
C000
7E00
0300
0300
C300
7E00
0000
0000
0000
ENDCHAR
STARTCHAR sacute
ENCODING 347
SWIDTH 785 0
DWIDTH 9 0
BBX 9 15 0 -3
BITMAP
0000
0C00
1800
3000
0000
7E00
C300
C000
7E00
0300
C300
7E00
0000
0000
0000
ENDCHAR
STARTCHAR Scircumflex
ENCODING 348
SWIDTH 785 0
DWIDTH 9 0
BBX 9 15 0 -3
BITMAP
1800
3C00
6600
0000
7E00
C300
C000
7E00
0300
0300
C300
7E00
0000
0000
0000
ENDCHAR
STARTCHAR scircumflex
ENCODING 349
SWIDTH 785 0
DWIDTH 9 0
BBX 9 15 0 -3
BITMAP
0000
1800
3C00
6600
0000
7E00
C300
C000
7E00
0300
C300
7E00
0000
0000
0000
ENDCHAR
STARTCHAR Scedilla
ENCODING 350
SWIDTH 785 0
DWIDTH 9 0
BBX 9 15 0 -3
BITMAP
0000
0000
7E00
C300
C000
C000
7E00
0300
0300
0300
C300
7E00
1800
4800
3000
ENDCHAR
STARTCHAR scedilla
ENCODING 351
SWIDTH 785 0
DWIDTH 9 0
BBX 9 15 0 -3
BITMAP
0000
0000
0000
0000
0000
7E00
C300
C000
7E00
0300
C300
7E00
1800
4800
3000
ENDCHAR
STARTCHAR Scaron
ENCODING 352
SWIDTH 785 0
DWIDTH 9 0
BBX 9 15 0 -3
BITMAP
6600
3C00
1800
0000
7E00
C300
C000
7E00
0300
0300
C300
7E00
0000
0000
0000
ENDCHAR
STARTCHAR scaron
ENCODING 353
SWIDTH 785 0
DWIDTH 9 0
BBX 9 15 0 -3
BITMAP
0000
6600
3C00
1800
0000
7E00
C300
C000
7E00
0300
C300
7E00
0000
0000
0000
ENDCHAR
STARTCHAR Tcommaaccent
ENCODING 354
SWIDTH 785 0
DWIDTH 9 0
BBX 9 15 0 -3
BITMAP
0000
0000
FF00
1800
1800
1800
1800
1800
1800
1800
1800
1800
0C00
2400
1800
ENDCHAR
STARTCHAR tcommaaccent
ENCODING 355
SWIDTH 785 0
DWIDTH 9 0
BBX 9 15 0 -3
BITMAP
0000
0000
0000
3000
3000
FC00
3000
3000
3000
3000
3300
1E00
0C00
2400
1800
ENDCHAR
STARTCHAR Tcaron
ENCODING 356
SWIDTH 785 0
DWIDTH 9 0
BBX 9 15 0 -3
BITMAP
6600
3C00
1800
0000
FF00
1800
1800
1800
1800
1800
1800
1800
0000
0000
0000
ENDCHAR
STARTCHAR tcaron
ENCODING 357
SWIDTH 785 0
DWIDTH 9 0
BBX 9 15 0 -3
BITMAP
3300
1E00
0C00
3000
3000
FC00
3000
3000
3000
3000
3300
1E00
0000
0000
0000
ENDCHAR
STARTCHAR Tbar
ENCODING 358
SWIDTH 785 0
DWIDTH 9 0
BBX 9 15 0 -3
BITMAP
0000
0000
FF00
1800
1800
1800
1800
7E00
1800
1800
1800
1800
0000
0000
0000
ENDCHAR
STARTCHAR tbar
ENCODING 359
SWIDTH 785 0
DWIDTH 9 0
BBX 9 15 0 -3
BITMAP
0000
0000
0000
3000
3000
FE00
3000
3000
7800
3000
3300
1E00
0000
0000
0000
ENDCHAR
STARTCHAR Utilde
ENCODING 360
SWIDTH 785 0
DWIDTH 9 0
BBX 9 15 0 -3
BITMAP
3200
7E00
4C00
0000
C300
C300
C300
C300
C300
C300
6600
3C00
0000
0000
0000
ENDCHAR
STARTCHAR utilde
ENCODING 361
SWIDTH 785 0
DWIDTH 9 0
BBX 9 15 0 -3
BITMAP
0000
3200
7E00
4C00
0000
C600
C600
C600
C600
C600
6E00
3B00
0000
0000
0000
ENDCHAR
STARTCHAR Umacron
ENCODING 362
SWIDTH 785 0
DWIDTH 9 0
BBX 9 15 0 -3
BITMAP
0000
7E00
0000
C300
C300
C300
C300
C300
C300
C300
6600
3C00
0000
0000
0000
ENDCHAR
STARTCHAR umacron
ENCODING 363
SWIDTH 785 0
DWIDTH 9 0
BBX 9 15 0 -3
BITMAP
0000
0000
0000
7E00
0000
C600
C600
C600
C600
C600
6E00
3B00
0000
0000
0000
ENDCHAR
STARTCHAR Ubreve
ENCODING 364
SWIDTH 785 0
DWIDTH 9 0
BBX 9 15 0 -3
BITMAP
0000
4200
3C00
0000
C300
C300
C300
C300
C300
C300
6600
3C00
0000
0000
0000
ENDCHAR
STARTCHAR ubreve
ENCODING 365
SWIDTH 785 0
DWIDTH 9 0
BBX 9 15 0 -3
BITMAP
0000
0000
4400
3800
0000
C600
C600
C600
C600
C600
6E00
3B00
0000
0000
0000
ENDCHAR
STARTCHAR Uring
ENCODING 366
SWIDTH 785 0
DWIDTH 9 0
BBX 9 15 0 -3
BITMAP
0000
1800
2400
1800
C300
C300
C300
C300
C300
C300
6600
3C00
0000
0000
0000
ENDCHAR
STARTCHAR uring
ENCODING 367
SWIDTH 785 0
DWIDTH 9 0
BBX 9 15 0 -3
BITMAP
0000
1800
2400
1800
0000
C600
C600
C600
C600
C600
6E00
3B00
0000
0000
0000
ENDCHAR
STARTCHAR Uhungarumlaut
ENCODING 368
SWIDTH 785 0
DWIDTH 9 0
BBX 9 15 0 -3
BITMAP
0000
3300
6600
0000
C300
C300
C300
C300
C300
C300
6600
3C00
0000
0000
0000
ENDCHAR
STARTCHAR uhungarumlaut
ENCODING 369
SWIDTH 785 0
DWIDTH 9 0
BBX 9 15 0 -3
BITMAP
0000
0000
6600
CC00
0000
C600
C600
C600
C600
C600
6E00
3B00
0000
0000
0000
ENDCHAR
STARTCHAR Uogonek
ENCODING 370
SWIDTH 785 0
DWIDTH 9 0
BBX 9 15 0 -3
BITMAP
0000
0000
C300
C300
C300
C300
C300
C300
C300
C300
6600
3C00
1000
1800
0000
ENDCHAR
STARTCHAR uogonek
ENCODING 371
SWIDTH 785 0
DWIDTH 9 0
BBX 9 15 0 -3
BITMAP
0000
0000
0000
0000
0000
C600
C600
C600
C600
C600
6E00
3B00
1000
1800
0000
ENDCHAR
STARTCHAR Wcircumflex
ENCODING 372
SWIDTH 785 0
DWIDTH 9 0
BBX 9 15 0 -3
BITMAP
1800
3C00
6600
0000
C300
C300
C300
DB00
DB00
DB00
FF00
6600
0000
0000
0000
ENDCHAR
STARTCHAR wcircumflex
ENCODING 373
SWIDTH 785 0
DWIDTH 9 0
BBX 9 15 0 -3
BITMAP
0000
1800
3C00
6600
0000
C300
C300
DB00
DB00
DB00
FF00
6600
0000
0000
0000
ENDCHAR
STARTCHAR Ycircumflex
ENCODING 374
SWIDTH 785 0
DWIDTH 9 0
BBX 9 15 0 -3
BITMAP
1800
3C00
6600
0000
C300
C300
6600
3C00
1800
1800
1800
1800
0000
0000
0000
ENDCHAR
STARTCHAR ycircumflex
ENCODING 375
SWIDTH 785 0
DWIDTH 9 0
BBX 9 15 0 -3
BITMAP
0000
1800
3C00
6600
0000
C300
C300
C300
C300
C300
6700
3B00
0300
C600
7C00
ENDCHAR
STARTCHAR Ydieresis
ENCODING 376
SWIDTH 785 0
DWIDTH 9 0
BBX 9 15 0 -3
BITMAP
0000
6600
6600
0000
C300
C300
6600
3C00
1800
1800
1800
1800
0000
0000
0000
ENDCHAR
STARTCHAR Zacute
ENCODING 377
SWIDTH 785 0
DWIDTH 9 0
BBX 9 15 0 -3
BITMAP
0300
0600
0C00
0000
7F00
0300
0600
0C00
1800
3000
6000
7F00
0000
0000
0000
ENDCHAR
STARTCHAR zacute
ENCODING 378
SWIDTH 785 0
DWIDTH 9 0
BBX 9 15 0 -3
BITMAP
0000
0600
0C00
1800
0000
7E00
0600
0C00
1800
3000
6000
7E00
0000
0000
0000
ENDCHAR
STARTCHAR Zdotaccent
ENCODING 379
SWIDTH 785 0
DWIDTH 9 0
BBX 9 15 0 -3
BITMAP
0C00
0C00
0000
7F00
0300
0600
0C00
1800
3000
6000
6000
7F00
0000
0000
0000
ENDCHAR
STARTCHAR zdotaccent
ENCODING 380
SWIDTH 785 0
DWIDTH 9 0
BBX 9 15 0 -3
BITMAP
0000
0000
1800
1800
0000
7E00
0600
0C00
1800
3000
6000
7E00
0000
0000
0000
ENDCHAR
STARTCHAR Zcaron
ENCODING 381
SWIDTH 785 0
DWIDTH 9 0
BBX 9 15 0 -3
BITMAP
6600
3C00
1800
0000
7F00
0300
0600
0C00
1800
3000
6000
7F00
0000
0000
0000
ENDCHAR
STARTCHAR zcaron
ENCODING 382
SWIDTH 785 0
DWIDTH 9 0
BBX 9 15 0 -3
BITMAP
0000
6600
3C00
1800
0000
7E00
0600
0C00
1800
3000
6000
7E00
0000
0000
0000
ENDCHAR
STARTCHAR longs
ENCODING 383
SWIDTH 785 0
DWIDTH 9 0
BBX 9 15 0 -3
BITMAP
0000
0000
0F00
1980
3180
3000
F000
3000
3000
3000
3000
3000
0000
0000
0000
ENDCHAR
STARTCHAR uni0180
ENCODING 384
SWIDTH 785 0
DWIDTH 9 0
BBX 9 15 0 -3
BITMAP
0000
0000
6000
F800
6000
6C00
7600
6300
6300
6300
7600
6C00
0000
0000
0000
ENDCHAR
STARTCHAR uni0181
ENCODING 385
SWIDTH 785 0
DWIDTH 9 0
BBX 9 15 0 -3
BITMAP
0000
0000
FC00
B600
3300
3600
3C00
3600
3300
3300
3600
3C00
0000
0000
0000
ENDCHAR
STARTCHAR uni0182
ENCODING 386
SWIDTH 785 0
DWIDTH 9 0
BBX 9 15 0 -3
BITMAP
0000
0000
FE00
C000
C000
DC00
E600
C300
C300
C300
E600
DC00
0000
0000
0000
ENDCHAR
STARTCHAR uni0183
ENCODING 387
SWIDTH 785 0
DWIDTH 9 0
BBX 9 15 0 -3
BITMAP
0000
0000
FE00
C000
C000
DC00
E600
C300
C300
C300
6600
3C00
0000
0000
0000
ENDCHAR
STARTCHAR uni0184
ENCODING 388
SWIDTH 785 0
DWIDTH 9 0
BBX 9 15 0 -3
BITMAP
0000
0000
3000
7000
F000
3600
3B00
3180
3180
3180
3B00
3600
0000
0000
0000
ENDCHAR
STARTCHAR uni0185
ENCODING 389
SWIDTH 785 0
DWIDTH 9 0
BBX 9 15 0 -3
BITMAP
0000
0000
3000
7000
F000
3600
3B00
3180
3180
3180
1B00
0E00
0000
0000
0000
ENDCHAR
STARTCHAR uni0186
ENCODING 390
SWIDTH 785 0
DWIDTH 9 0
BBX 9 15 0 -3
BITMAP
0000
0000
7C00
C600
8300
0300
0300
0300
0300
8300
C600
7C00
0000
0000
0000
ENDCHAR
STARTCHAR uni0187
ENCODING 391
SWIDTH 785 0
DWIDTH 9 0
BBX 9 15 0 -3
BITMAP
0000
0700
3C00
6600
C200
C000
C000
C000
C000
C200
6600
3C00
0000
0000
0000
ENDCHAR
STARTCHAR uni0188
ENCODING 392
SWIDTH 785 0
DWIDTH 9 0
BBX 9 15 0 -3
BITMAP
0000
0000
0000
0300
0400
3C00
6600
C000
C000
C000
6600
3C00
0000
0000
0000
ENDCHAR
STARTCHAR uni0189
ENCODING 393
SWIDTH 785 0
DWIDTH 9 0
BBX 9 15 0 -3
BITMAP
0000
0000
7C00
6600
6300
6300
FB00
6300
6300
6300
6600
7C00
0000
0000
0000
ENDCHAR
STARTCHAR uni018A
ENCODING 394
SWIDTH 785 0
DWIDTH 9 0
BBX 9 15 0 -3
BITMAP
0000
0000
FC00
B600
B300
3300
3300
3300
3300
3300
3600
3C00
0000
0000
0000
ENDCHAR
STARTCHAR uni018B
ENCODING 395
SWIDTH 785 0
DWIDTH 9 0
BBX 9 15 0 -3
BITMAP
0000
0000
7F00
0300
0300
3B00
6700
C300
C300
C300
6700
3B00
0000
0000
0000
ENDCHAR
STARTCHAR uni018C
ENCODING 396
SWIDTH 785 0
DWIDTH 9 0
BBX 9 15 0 -3
BITMAP
0000
0000
7F00
0300
0300
3B00
6700
C300
C300
C300
6600
3C00
0000
0000
0000
ENDCHAR
STARTCHAR uni018D
ENCODING 397
SWIDTH 785 0
DWIDTH 9 0
BBX 9 15 0 -3
BITMAP
0000
0000
0000
0000
0000
3C00
6600
C300
C300
C300
6600
3C00
1800
7000
0000
ENDCHAR
STARTCHAR uni018E
ENCODING 398
SWIDTH 785 0
DWIDTH 9 0
BBX 9 15 0 -3
BITMAP
0000
0000
7F00
0300
0300
0300
3F00
0300
0300
0300
0300
7F00
0000
0000
0000
ENDCHAR
STARTCHAR uni018F
ENCODING 399
SWIDTH 785 0
DWIDTH 9 0
BBX 9 15 0 -3
BITMAP
0000
0000
3C00
6600
C300
0300
FF00
C300
C300
C300
6600
3C00
0000
0000
0000
ENDCHAR
STARTCHAR uni0190
ENCODING 400
SWIDTH 785 0
DWIDTH 9 0
BBX 9 15 0 -3
BITMAP
0000
0000
3E00
6300
C000
6000
3800
6000
C000
C000
6300
3E00
0000
0000
0000
ENDCHAR
STARTCHAR uni0191
ENCODING 401
SWIDTH 785 0
DWIDTH 9 0
BBX 9 15 0 -3
BITMAP
0000
0000
3F80
3000
3000
3000
3F00
3000
3000
3000
3000
3000
E000
0000
0000
ENDCHAR
STARTCHAR florin
ENCODING 402
SWIDTH 785 0
DWIDTH 9 0
BBX 9 15 0 -3
BITMAP
0000
0000
1E00
3300
3300
3000
3000
FC00
3000
3000
3000
3000
3000
E000
0000
ENDCHAR
STARTCHAR uni0193
ENCODING 403
SWIDTH 785 0
DWIDTH 9 0
BBX 9 15 0 -3
BITMAP
0000
0300
0400
3C00
6600
C000
C000
C000
CE00
C600
6600
3C00
0000
0000
0000
ENDCHAR
STARTCHAR uni0194
ENCODING 404
SWIDTH 785 0
DWIDTH 9 0
BBX 9 15 0 -3
BITMAP
0000
0000
0000
4100
6300
3600
1400
1C00
1C00
3600
3600
1C00
0000
0000
0000
ENDCHAR
STARTCHAR uni0195
ENCODING 405
SWIDTH 785 0
DWIDTH 9 0
BBX 9 15 0 -3
BITMAP
0000
0000
C000
C000
C000
F000
FB00
DB00
DB00
DB00
DB00
CE00
0000
0000
0000
ENDCHAR
STARTCHAR uni0196
ENCODING 406
SWIDTH 785 0
DWIDTH 9 0
BBX 9 15 0 -3
BITMAP
0000
1800
3800
7800
1800
1800
1800
1800
1800
1800
1800
1B00
0E00
0000
0000
ENDCHAR
STARTCHAR uni0197
ENCODING 407
SWIDTH 785 0
DWIDTH 9 0
BBX 9 15 0 -3
BITMAP
0000
0000
7E00
1800
1800
1800
FF00
1800
1800
1800
1800
7E00
0000
0000
0000
ENDCHAR
STARTCHAR uni0198
ENCODING 408
SWIDTH 785 0
DWIDTH 9 0
BBX 9 15 0 -3
BITMAP
0000
0000
C200
C500
CD00
D800
F000
F000
D800
CC00
C600
C200
0000
0000
0000
ENDCHAR
STARTCHAR uni0199
ENCODING 409
SWIDTH 785 0
DWIDTH 9 0
BBX 9 15 0 -3
BITMAP
0000
0000
3800
6C00
6000
6600
6C00
7800
7800
6C00
6600
6300
0000
0000
0000
ENDCHAR
STARTCHAR uni019A
ENCODING 410
SWIDTH 785 0
DWIDTH 9 0
BBX 9 15 0 -3
BITMAP
0000
0000
3800
1800
1800
1800
FF00
1800
1800
1800
1800
7E00
0000
0000
0000
ENDCHAR
STARTCHAR uni019B
ENCODING 411
SWIDTH 785 0
DWIDTH 9 0
BBX 9 15 0 -3
BITMAP
0000
0000
0000
6600
3C00
7800
4C00
1E00
3600
6300
6300
6300
0000
0000
0000
ENDCHAR
STARTCHAR uni019C
ENCODING 412
SWIDTH 785 0
DWIDTH 9 0
BBX 9 15 0 -3
BITMAP
0000
0000
DB00
DB00
DB00
DB00
DB00
DB00
DB00
DB00
DB00
6D00
0000
0000
0000
ENDCHAR
STARTCHAR uni019D
ENCODING 413
SWIDTH 785 0
DWIDTH 9 0
BBX 9 15 0 -3
BITMAP
0000
0000
6180
7180
7980
7980
6D80
6D80
6780
6380
6380
6180
6000
C000
0000
ENDCHAR
STARTCHAR uni019E
ENCODING 414
SWIDTH 785 0
DWIDTH 9 0
BBX 9 15 0 -3
BITMAP
0000
0000
0000
0000
0000
DC00
E600
C300
C300
C300
C300
C300
0300
0300
0300
ENDCHAR
STARTCHAR uni019F
ENCODING 415
SWIDTH 785 0
DWIDTH 9 0
BBX 9 15 0 -3
BITMAP
0000
0000
3C00
6600
C300
C300
FF00
C300
C300
C300
6600
3C00
0000
0000
0000
ENDCHAR
STARTCHAR Ohorn
ENCODING 416
SWIDTH 785 0
DWIDTH 9 0
BBX 9 15 0 -3
BITMAP
0000
0180
1F00
3600
6300
6300
6300
6300
6300
6300
3600
1C00
0000
0000
0000
ENDCHAR
STARTCHAR ohorn
ENCODING 417
SWIDTH 785 0
DWIDTH 9 0
BBX 9 15 0 -3
BITMAP
0000
0000
0000
0000
0180
1F00
3600
6300
6300
6300
3600
1C00
0000
0000
0000
ENDCHAR
STARTCHAR uni01A2
ENCODING 418
SWIDTH 785 0
DWIDTH 9 0
BBX 9 15 0 -3
BITMAP
0000
0000
7600
DB00
DB00
DB00
DB00
DB00
DB00
DB00
DB00
7300
0300
0300
0000
ENDCHAR
STARTCHAR uni01A3
ENCODING 419
SWIDTH 785 0
DWIDTH 9 0
BBX 9 15 0 -3
BITMAP
0000
0000
0000
0000
0000
0000
7600
DB00
DB00
DB00
DB00
7300
0300
0300
0000
ENDCHAR
STARTCHAR uni01A4
ENCODING 420
SWIDTH 785 0
DWIDTH 9 0
BBX 9 15 0 -3
BITMAP
0000
0000
FE00
B300
B300
3300
3E00
3000
3000
3000
3000
3000
0000
0000
0000
ENDCHAR
STARTCHAR uni01A5
ENCODING 421
SWIDTH 785 0
DWIDTH 9 0
BBX 9 15 0 -3
BITMAP
0000
0000
0000
0000
0300
DA00
EC00
C600
C600
C600
EC00
D800
C000
C000
C000
ENDCHAR
STARTCHAR uni01A6
ENCODING 422
SWIDTH 785 0
DWIDTH 9 0
BBX 9 15 0 -3
BITMAP
0000
0000
C000
C000
FC00
CE00
C600
CC00
F800
CC00
CC00
CC00
0C00
0700
0000
ENDCHAR
STARTCHAR uni01A7
ENCODING 423
SWIDTH 785 0
DWIDTH 9 0
BBX 9 15 0 -3
BITMAP
0000
0000
7E00
C300
0300
0300
0E00
7000
C000
C000
C300
7E00
0000
0000
0000
ENDCHAR
STARTCHAR uni01A8
ENCODING 424
SWIDTH 785 0
DWIDTH 9 0
BBX 9 15 0 -3
BITMAP
0000
0000
0000
0000
0000
7E00
C300
0300
7E00
C000
C300
7E00
0000
0000
0000
ENDCHAR
STARTCHAR uni01A9
ENCODING 425
SWIDTH 785 0
DWIDTH 9 0
BBX 9 15 0 -3
BITMAP
0000
0000
7F00
6100
3000
1800
0C00
0C00
1800
3000
6100
7F00
0000
0000
0000
ENDCHAR
STARTCHAR uni01AA
ENCODING 426
SWIDTH 785 0
DWIDTH 9 0
BBX 9 15 0 -3
BITMAP
0000
7000
D800
D800
D800
7800
1800
1800
1800
1800
1800
1B00
0E00
0000
0000
ENDCHAR
STARTCHAR uni01AB
ENCODING 427
SWIDTH 785 0
DWIDTH 9 0
BBX 9 15 0 -3
BITMAP
0000
0000
0000
3000
3000
FC00
3000
3000
3000
3000
3000
1E00
0300
0300
0E00
ENDCHAR
STARTCHAR uni01AC
ENCODING 428
SWIDTH 785 0
DWIDTH 9 0
BBX 9 15 0 -3
BITMAP
0000
0000
7F00
9800
9800
1800
1800
1800
1800
1800
1800
1800
0000
0000
0000
ENDCHAR
STARTCHAR uni01AD
ENCODING 429
SWIDTH 785 0
DWIDTH 9 0
BBX 9 15 0 -3
BITMAP
0000
0000
1E00
3300
3000
FC00
3000
3000
3000
3000
3300
1E00
0000
0000
0000
ENDCHAR
STARTCHAR uni01AE
ENCODING 430
SWIDTH 785 0
DWIDTH 9 0
BBX 9 15 0 -3
BITMAP
0000
0000
FF00
1800
1800
1800
1800
1800
1800
1800
1800
1B00
0E00
0000
0000
ENDCHAR
STARTCHAR Uhorn
ENCODING 431
SWIDTH 785 0
DWIDTH 9 0
BBX 9 15 0 -3
BITMAP
0000
0000
6680
6680
6700
6600
6600
6600
6600
6600
6600
3C00
0000
0000
0000
ENDCHAR
STARTCHAR uhorn
ENCODING 432
SWIDTH 785 0
DWIDTH 9 0
BBX 9 15 0 -3
BITMAP
0000
0000
0000
0000
0000
6680
6680
6700
6600
6600
6E00
3B00
0000
0000
0000
ENDCHAR
STARTCHAR uni01B1
ENCODING 433
SWIDTH 785 0
DWIDTH 9 0
BBX 9 15 0 -3
BITMAP
0000
0000
E700
6600
6600
C300
C300
C300
C300
C300
6600
3C00
0000
0000
0000
ENDCHAR
STARTCHAR uni01B2
ENCODING 434
SWIDTH 785 0
DWIDTH 9 0
BBX 9 15 0 -3
BITMAP
0000
0000
CC00
C600
C300
6600
6600
6600
3C00
3C00
1800
1800
0000
0000
0000
ENDCHAR
STARTCHAR uni01B3
ENCODING 435
SWIDTH 785 0
DWIDTH 9 0
BBX 9 15 0 -3
BITMAP
0000
0000
0180
6180
B300
9E00
0C00
0C00
0C00
0C00
0C00
0C00
0000
0000
0000
ENDCHAR
STARTCHAR uni01B4
ENCODING 436
SWIDTH 785 0
DWIDTH 9 0
BBX 9 15 0 -3
BITMAP
0000
0000
0000
0300
0600
C600
C600
C600
C600
C600
6E00
3600
0600
CC00
7800
ENDCHAR
STARTCHAR uni01B5
ENCODING 437
SWIDTH 785 0
DWIDTH 9 0
BBX 9 15 0 -3
BITMAP
0000
0000
7F00
0300
0300
0600
7F00
1800
3000
6000
6000
7F00
0000
0000
0000
ENDCHAR
STARTCHAR uni01B6
ENCODING 438
SWIDTH 785 0
DWIDTH 9 0
BBX 9 15 0 -3
BITMAP
0000
0000
0000
0000
0000
7E00
0600
0C00
7E00
3000
6000
7E00
0000
0000
0000
ENDCHAR
STARTCHAR uni01B7
ENCODING 439
SWIDTH 785 0
DWIDTH 9 0
BBX 9 15 0 -3
BITMAP
0000
0000
FF00
0300
0600
0C00
1C00
0600
0300
0300
C600
7C00
0000
0000
0000
ENDCHAR
STARTCHAR uni01B8
ENCODING 440
SWIDTH 785 0
DWIDTH 9 0
BBX 9 15 0 -3
BITMAP
0000
0000
FF00
C000
6000
3000
3800
6000
C000
C000
6300
3E00
0000
0000
0000
ENDCHAR
STARTCHAR uni01B9
ENCODING 441
SWIDTH 785 0
DWIDTH 9 0
BBX 9 15 0 -3
BITMAP
0000
0000
0000
0000
0000
FF00
C000
6000
3000
3800
6000
C000
C000
6300
3E00
ENDCHAR
STARTCHAR uni01BA
ENCODING 442
SWIDTH 785 0
DWIDTH 9 0
BBX 9 15 0 -3
BITMAP
0000
0000
0000
FF00
0300
0600
0C00
1C00
0600
0300
0300
0600
7C00
C000
7F00
ENDCHAR
STARTCHAR uni01BB
ENCODING 443
SWIDTH 785 0
DWIDTH 9 0
BBX 9 15 0 -3
BITMAP
0000
0000
3C00
6600
C300
0300
0600
0C00
FF00
3000
6000
FF00
0000
0000
0000
ENDCHAR
STARTCHAR uni01BC
ENCODING 444
SWIDTH 785 0
DWIDTH 9 0
BBX 9 15 0 -3
BITMAP
0000
0000
FF00
C100
C000
DC00
E600
0300
0300
C300
6600
3C00
0000
0000
0000
ENDCHAR
STARTCHAR uni01BD
ENCODING 445
SWIDTH 785 0
DWIDTH 9 0
BBX 9 15 0 -3
BITMAP
0000
0000
7F00
6000
6000
6C00
7600
0300
0300
6300
3600
1C00
0000
0000
0000
ENDCHAR
STARTCHAR uni01BE
ENCODING 446
SWIDTH 785 0
DWIDTH 9 0
BBX 9 15 0 -3
BITMAP
0000
0000
1800
1800
7E00
1800
1C00
0600
0300
0300
0600
1C00
0000
0000
0000
ENDCHAR
STARTCHAR uni01BF
ENCODING 447
SWIDTH 785 0
DWIDTH 9 0
BBX 9 15 0 -3
BITMAP
0000
0000
0000
0000
0000
1C00
3600
6300
6300
6300
7600
6C00
6000
6000
C000
ENDCHAR
STARTCHAR uni01C0
ENCODING 448
SWIDTH 785 0
DWIDTH 9 0
BBX 9 15 0 -3
BITMAP
0000
0000
1800
1800
1800
1800
1800
1800
1800
1800
1800
1800
0000
0000
0000
ENDCHAR
STARTCHAR uni01C1
ENCODING 449
SWIDTH 785 0
DWIDTH 9 0
BBX 9 15 0 -3
BITMAP
0000
0000
6600
6600
6600
6600
6600
6600
6600
6600
6600
6600
0000
0000
0000
ENDCHAR
STARTCHAR uni01C2
ENCODING 450
SWIDTH 785 0
DWIDTH 9 0
BBX 9 15 0 -3
BITMAP
0000
0000
1800
1800
7E00
1800
1800
7E00
1800
1800
1800
1800
0000
0000
0000
ENDCHAR
STARTCHAR uni01C3
ENCODING 451
SWIDTH 785 0
DWIDTH 9 0
BBX 9 15 0 -3
BITMAP
0000
0000
1800
1800
1800
1800
1800
1800
0000
0000
1800
1800
0000
0000
0000
ENDCHAR
STARTCHAR uni01C4
ENCODING 452
SWIDTH 785 0
DWIDTH 9 0
BBX 9 15 0 -3
BITMAP
0500
0200
0000
F700
D900
D900
DB00
DA00
DE00
DC00
DC00
F700
0000
0000
0000
ENDCHAR
STARTCHAR uni01C5
ENCODING 453
SWIDTH 785 0
DWIDTH 9 0
BBX 9 15 0 -3
BITMAP
0000
0500
F200
D800
D800
DF00
D900
DB00
DA00
DE00
DC00
F700
0000
0000
0000
ENDCHAR
STARTCHAR uni01C6
ENCODING 454
SWIDTH 785 0
DWIDTH 9 0
BBX 9 15 0 -3
BITMAP
0000
0500
1A00
1800
1800
7F00
D900
DB00
DA00
DE00
DC00
7F00
0000
0000
0000
ENDCHAR
STARTCHAR uni01C7
ENCODING 455
SWIDTH 785 0
DWIDTH 9 0
BBX 9 15 0 -3
BITMAP
0000
0000
C300
C300
C300
C300
C300
C300
C300
CB00
CB00
F600
0000
0000
0000
ENDCHAR
STARTCHAR uni01C8
ENCODING 456
SWIDTH 785 0
DWIDTH 9 0
BBX 9 15 0 -3
BITMAP
0000
0000
C300
C300
C000
CF00
C300
C300
C300
C300
C300
FB00
0300
1B00
0E00
ENDCHAR
STARTCHAR uni01C9
ENCODING 457
SWIDTH 785 0
DWIDTH 9 0
BBX 9 15 0 -3
BITMAP
0000
0000
C300
C300
C000
CF00
C300
C300
C300
C300
C300
6300
0300
1B00
0E00
ENDCHAR
STARTCHAR uni01CA
ENCODING 458
SWIDTH 785 0
DWIDTH 9 0
BBX 9 15 0 -3
BITMAP
0000
0000
DF00
DB00
DB00
FB00
FB00
FB00
FB00
DB00
DB00
DB00
0300
1B00
0E00
ENDCHAR
STARTCHAR uni01CB
ENCODING 459
SWIDTH 785 0
DWIDTH 9 0
BBX 9 15 0 -3
BITMAP
0000
0000
DB00
DB00
D800
FB00
FB00
FB00
FB00
DB00
DB00
DB00
0300
1B00
0E00
ENDCHAR
STARTCHAR uni01CC
ENCODING 460
SWIDTH 785 0
DWIDTH 9 0
BBX 9 15 0 -3
BITMAP
0000
0000
0300
0300
0000
B300
FB00
DB00
DB00
DB00
DB00
DB00
0300
1B00
0E00
ENDCHAR
STARTCHAR uni01CD
ENCODING 461
SWIDTH 785 0
DWIDTH 9 0
BBX 9 15 0 -3
BITMAP
6600
3C00
1800
0000
3C00
6600
C300
C300
FF00
C300
C300
C300
0000
0000
0000
ENDCHAR
STARTCHAR uni01CE
ENCODING 462
SWIDTH 785 0
DWIDTH 9 0
BBX 9 15 0 -3
BITMAP
0000
6600
3C00
1800
0000
3E00
4300
0300
7F00
C300
C700
7B00
0000
0000
0000
ENDCHAR
STARTCHAR uni01CF
ENCODING 463
SWIDTH 785 0
DWIDTH 9 0
BBX 9 15 0 -3
BITMAP
6600
3C00
1800
0000
7E00
1800
1800
1800
1800
1800
1800
7E00
0000
0000
0000
ENDCHAR
STARTCHAR uni01D0
ENCODING 464
SWIDTH 785 0
DWIDTH 9 0
BBX 9 15 0 -3
BITMAP
0000
6600
3C00
1800
0000
3800
1800
1800
1800
1800
1800
7E00
0000
0000
0000
ENDCHAR
STARTCHAR uni01D1
ENCODING 465
SWIDTH 785 0
DWIDTH 9 0
BBX 9 15 0 -3
BITMAP
6600
3C00
1800
0000
3C00
6600
C300
C300
C300
C300
6600
3C00
0000
0000
0000
ENDCHAR
STARTCHAR uni01D2
ENCODING 466
SWIDTH 785 0
DWIDTH 9 0
BBX 9 15 0 -3
BITMAP
0000
6600
3C00
1800
0000
3C00
6600
C300
C300
C300
6600
3C00
0000
0000
0000
ENDCHAR
STARTCHAR uni01D3
ENCODING 467
SWIDTH 785 0
DWIDTH 9 0
BBX 9 15 0 -3
BITMAP
6600
3C00
1800
0000
C300
C300
C300
C300
C300
C300
6600
3C00
0000
0000
0000
ENDCHAR
STARTCHAR uni01D4
ENCODING 468
SWIDTH 785 0
DWIDTH 9 0
BBX 9 15 0 -3
BITMAP
0000
6600
3C00
1800
0000
C300
C300
C300
C300
C300
6700
3B00
0000
0000
0000
ENDCHAR
STARTCHAR uni01D5
ENCODING 469
SWIDTH 785 0
DWIDTH 9 0
BBX 9 15 0 -3
BITMAP
7E00
0000
6600
6600
0000
C300
C300
C300
C300
C300
6600
3C00
0000
0000
0000
ENDCHAR
STARTCHAR uni01D6
ENCODING 470
SWIDTH 785 0
DWIDTH 9 0
BBX 9 15 0 -3
BITMAP
7E00
0000
6600
6600
0000
C300
C300
C300
C300
C300
6700
3B00
0000
0000
0000
ENDCHAR
STARTCHAR uni01D7
ENCODING 471
SWIDTH 785 0
DWIDTH 9 0
BBX 9 15 0 -3
BITMAP
0C00
1800
0000
6600
0000
C300
C300
C300
C300
C300
6600
3C00
0000
0000
0000
ENDCHAR
STARTCHAR uni01D8
ENCODING 472
SWIDTH 785 0
DWIDTH 9 0
BBX 9 15 0 -3
BITMAP
0C00
1800
0000
6600
0000
C300
C300
C300
C300
C300
6700
3B00
0000
0000
0000
ENDCHAR
STARTCHAR uni01D9
ENCODING 473
SWIDTH 785 0
DWIDTH 9 0
BBX 9 15 0 -3
BITMAP
2400
1800
0000
6600
0000
C300
C300
C300
C300
C300
6600
3C00
0000
0000
0000
ENDCHAR
STARTCHAR uni01DA
ENCODING 474
SWIDTH 785 0
DWIDTH 9 0
BBX 9 15 0 -3
BITMAP
2400
1800
0000
6600
0000
C300
C300
C300
C300
C300
6700
3B00
0000
0000
0000
ENDCHAR
STARTCHAR uni01DB
ENCODING 475
SWIDTH 785 0
DWIDTH 9 0
BBX 9 15 0 -3
BITMAP
3000
1800
0000
6600
0000
C300
C300
C300
C300
C300
6600
3C00
0000
0000
0000
ENDCHAR
STARTCHAR uni01DC
ENCODING 476
SWIDTH 785 0
DWIDTH 9 0
BBX 9 15 0 -3
BITMAP
3000
1800
0000
6600
0000
C300
C300
C300
C300
C300
6700
3B00
0000
0000
0000
ENDCHAR
STARTCHAR uni01DD
ENCODING 477
SWIDTH 785 0
DWIDTH 9 0
BBX 9 15 0 -3
BITMAP
0000
0000
0000
0000
0000
7C00
C600
0300
FF00
C300
6600
3C00
0000
0000
0000
ENDCHAR
STARTCHAR uni01DE
ENCODING 478
SWIDTH 785 0
DWIDTH 9 0
BBX 9 15 0 -3
BITMAP
7E00
0000
6600
6600
0000
3C00
6600
C300
C300
FF00
C300
C300
0000
0000
0000
ENDCHAR
STARTCHAR uni01DF
ENCODING 479
SWIDTH 785 0
DWIDTH 9 0
BBX 9 15 0 -3
BITMAP
7E00
0000
6600
6600
0000
3E00
4300
0300
7F00
C300
C700
7B00
0000
0000
0000
ENDCHAR
STARTCHAR uni01E0
ENCODING 480
SWIDTH 785 0
DWIDTH 9 0
BBX 9 15 0 -3
BITMAP
7E00
0000
1800
1800
0000
3C00
6600
C300
C300
FF00
C300
C300
0000
0000
0000
ENDCHAR
STARTCHAR uni01E1
ENCODING 481
SWIDTH 785 0
DWIDTH 9 0
BBX 9 15 0 -3
BITMAP
7E00
0000
1800
1800
0000
3E00
4300
0300
7F00
C300
C700
7B00
0000
0000
0000
ENDCHAR
STARTCHAR uni01E2
ENCODING 482
SWIDTH 785 0
DWIDTH 9 0
BBX 9 15 0 -3
BITMAP
0000
7E00
0000
1F00
3C00
6C00
CC00
FF00
CC00
CC00
CC00
CF00
0000
0000
0000
ENDCHAR
STARTCHAR uni01E3
ENCODING 483
SWIDTH 785 0
DWIDTH 9 0
BBX 9 15 0 -3
BITMAP
0000
0000
0000
7E00
0000
7600
9B00
1B00
7E00
D800
D900
6E00
0000
0000
0000
ENDCHAR
STARTCHAR uni01E4
ENCODING 484
SWIDTH 785 0
DWIDTH 9 0
BBX 9 15 0 -3
BITMAP
0000
0000
3C00
6600
C000
C000
CE00
C600
DF00
C600
6600
3C00
0000
0000
0000
ENDCHAR
STARTCHAR uni01E5
ENCODING 485
SWIDTH 785 0
DWIDTH 9 0
BBX 9 15 0 -3
BITMAP
0000
0000
0000
0000
0000
3D80
7700
6300
6300
6300
3700
1B00
0300
FF80
3C00
ENDCHAR
STARTCHAR Gcaron
ENCODING 486
SWIDTH 785 0
DWIDTH 9 0
BBX 9 15 0 -3
BITMAP
2400
1800
0000
3E00
6300
C000
C000
C700
C300
C300
6300
3E00
0000
0000
0000
ENDCHAR
STARTCHAR gcaron
ENCODING 487
SWIDTH 785 0
DWIDTH 9 0
BBX 9 15 0 -3
BITMAP
0000
6600
3C00
1800
0000
7D00
C700
C600
C600
7C00
C000
7E00
C300
C300
7E00
ENDCHAR
STARTCHAR uni01E8
ENCODING 488
SWIDTH 785 0
DWIDTH 9 0
BBX 9 15 0 -3
BITMAP
2400
1800
0000
C300
C600
CC00
D800
F000
D800
CC00
C600
C300
0000
0000
0000
ENDCHAR
STARTCHAR uni01E9
ENCODING 489
SWIDTH 785 0
DWIDTH 9 0
BBX 9 15 0 -3
BITMAP
1200
0C00
6000
6000
6000
6600
6C00
7800
7800
6C00
6600
6300
0000
0000
0000
ENDCHAR
STARTCHAR uni01EA
ENCODING 490
SWIDTH 785 0
DWIDTH 9 0
BBX 9 15 0 -3
BITMAP
0000
0000
3C00
6600
C300
C300
C300
C300
C300
C300
6600
3C00
1800
3000
1800
ENDCHAR
STARTCHAR uni01EB
ENCODING 491
SWIDTH 785 0
DWIDTH 9 0
BBX 9 15 0 -3
BITMAP
0000
0000
0000
0000
0000
3C00
6600
C300
C300
C300
6600
3C00
1800
3000
1800
ENDCHAR
STARTCHAR uni01EC
ENCODING 492
SWIDTH 785 0
DWIDTH 9 0
BBX 9 15 0 -3
BITMAP
0000
7E00
0000
3C00
6600
C300
C300
C300
C300
C300
6600
3C00
1800
3000
1800
ENDCHAR
STARTCHAR uni01ED
ENCODING 493
SWIDTH 785 0
DWIDTH 9 0
BBX 9 15 0 -3
BITMAP
0000
0000
0000
7E00
0000
3C00
6600
C300
C300
C300
6600
3C00
1800
3000
1800
ENDCHAR
STARTCHAR uni01EE
ENCODING 494
SWIDTH 785 0
DWIDTH 9 0
BBX 9 15 0 -3
BITMAP
2400
1800
0000
FF00
0600
0C00
1C00
0600
0300
0300
C600
7C00
0000
0000
0000
ENDCHAR
STARTCHAR uni01EF
ENCODING 495
SWIDTH 785 0
DWIDTH 9 0
BBX 9 15 0 -3
BITMAP
0000
6600
3C00
1800
0000
FF00
0300
0600
0C00
1C00
0600
0300
0300
C600
7C00
ENDCHAR
STARTCHAR uni01F0
ENCODING 496
SWIDTH 785 0
DWIDTH 9 0
BBX 9 15 0 -3
BITMAP
0000
3300
1E00
0C00
0000
1E00
0600
0600
0600
0600
0600
C600
C600
C600
7C00
ENDCHAR
STARTCHAR uni01F1
ENCODING 497
SWIDTH 785 0
DWIDTH 9 0
BBX 9 15 0 -3
BITMAP
0000
0000
F700
D900
D900
DB00
DA00
DA00
DE00
DC00
DC00
F700
0000
0000
0000
ENDCHAR
STARTCHAR uni01F2
ENCODING 498
SWIDTH 785 0
DWIDTH 9 0
BBX 9 15 0 -3
BITMAP
0000
0000
F000
D800
D800
DF00
D900
DB00
DA00
DE00
DC00
F700
0000
0000
0000
ENDCHAR
STARTCHAR uni01F3
ENCODING 499
SWIDTH 785 0
DWIDTH 9 0
BBX 9 15 0 -3
BITMAP
0000
0000
1800
1800
1800
7F00
D900
DB00
DA00
DE00
DC00
7F00
0000
0000
0000
ENDCHAR
STARTCHAR uni01F4
ENCODING 500
SWIDTH 785 0
DWIDTH 9 0
BBX 9 15 0 -3
BITMAP
0C00
1800
0000
3E00
6300
C000
C000
C700
C300
C300
6300
3E00
0000
0000
0000
ENDCHAR
STARTCHAR uni01F5
ENCODING 501
SWIDTH 785 0
DWIDTH 9 0
BBX 9 15 0 -3
BITMAP
0000
0C00
1800
3000
0000
7D00
C700
C600
C600
7C00
C000
7E00
C300
C300
7E00
ENDCHAR
STARTCHAR Aringacute
ENCODING 506
SWIDTH 785 0
DWIDTH 9 0
BBX 9 15 0 -3
BITMAP
0C00
1800
0000
1800
2400
1800
3C00
6600
C300
FF00
C300
C300
0000
0000
0000
ENDCHAR
STARTCHAR aringacute
ENCODING 507
SWIDTH 785 0
DWIDTH 9 0
BBX 9 15 0 -3
BITMAP
0C00
1800
0000
1800
2400
1800
7E00
0300
7F00
C300
C700
7B00
0000
0000
0000
ENDCHAR
STARTCHAR AEacute
ENCODING 508
SWIDTH 785 0
DWIDTH 9 0
BBX 9 15 0 -3
BITMAP
0600
0C00
0000
1F00
3C00
6C00
CC00
FF00
CC00
CC00
CC00
CF00
0000
0000
0000
ENDCHAR
STARTCHAR aeacute
ENCODING 509
SWIDTH 785 0
DWIDTH 9 0
BBX 9 15 0 -3
BITMAP
0000
0600
0C00
1800
0000
7600
9B00
1B00
7E00
D800
D900
6E00
0000
0000
0000
ENDCHAR
STARTCHAR Oslashacute
ENCODING 510
SWIDTH 785 0
DWIDTH 9 0
BBX 9 15 0 -3
BITMAP
0C00
1800
0100
3F00
6600
C700
CB00
D300
D300
E300
6600
FC00
8000
0000
0000
ENDCHAR
STARTCHAR oslashacute
ENCODING 511
SWIDTH 785 0
DWIDTH 9 0
BBX 9 15 0 -3
BITMAP
0000
0600
0C00
1800
0100
3F00
6600
CF00
DB00
F300
6600
FC00
8000
0000
0000
ENDCHAR
STARTCHAR uni0200
ENCODING 512
SWIDTH 785 0
DWIDTH 9 0
BBX 9 15 0 -3
BITMAP
0000
CC00
6600
0000
3C00
6600
C300
C300
FF00
C300
C300
C300
0000
0000
0000
ENDCHAR
STARTCHAR uni0201
ENCODING 513
SWIDTH 785 0
DWIDTH 9 0
BBX 9 15 0 -3
BITMAP
0000
0000
CC00
6600
0000
3E00
4300
0300
7F00
C300
C700
7B00
0000
0000
0000
ENDCHAR
STARTCHAR uni0202
ENCODING 514
SWIDTH 785 0
DWIDTH 9 0
BBX 9 15 0 -3
BITMAP
0000
3C00
4200
0000
3C00
6600
C300
C300
FF00
C300
C300
C300
0000
0000
0000
ENDCHAR
STARTCHAR uni0203
ENCODING 515
SWIDTH 785 0
DWIDTH 9 0
BBX 9 15 0 -3
BITMAP
0000
0000
3C00
4200
0000
3E00
4300
0300
7F00
C300
C700
7B00
0000
0000
0000
ENDCHAR
STARTCHAR uni0204
ENCODING 516
SWIDTH 785 0
DWIDTH 9 0
BBX 9 15 0 -3
BITMAP
0000
6600
3300
0000
7F00
6000
6000
7E00
6000
6000
6000
7F00
0000
0000
0000
ENDCHAR
STARTCHAR uni0205
ENCODING 517
SWIDTH 785 0
DWIDTH 9 0
BBX 9 15 0 -3
BITMAP
0000
0000
CC00
6600
0000
3C00
6600
C300
FF00
C000
6300
3E00
0000
0000
0000
ENDCHAR
STARTCHAR uni0206
ENCODING 518
SWIDTH 785 0
DWIDTH 9 0
BBX 9 15 0 -3
BITMAP
0000
1E00
2100
0000
7F00
6000
6000
7E00
6000
6000
6000
7F00
0000
0000
0000
ENDCHAR
STARTCHAR uni0207
ENCODING 519
SWIDTH 785 0
DWIDTH 9 0
BBX 9 15 0 -3
BITMAP
0000
0000
3C00
4200
0000
3C00
6600
C300
FF00
C000
6300
3E00
0000
0000
0000
ENDCHAR
STARTCHAR uni0208
ENCODING 520
SWIDTH 785 0
DWIDTH 9 0
BBX 9 15 0 -3
BITMAP
0000
6600
3300
0000
3F00
0C00
0C00
0C00
0C00
0C00
0C00
3F00
0000
0000
0000
ENDCHAR
STARTCHAR uni0209
ENCODING 521
SWIDTH 785 0
DWIDTH 9 0
BBX 9 15 0 -3
BITMAP
0000
0000
6600
3300
0000
1C00
0C00
0C00
0C00
0C00
0C00
3F00
0000
0000
0000
ENDCHAR
STARTCHAR uni020A
ENCODING 522
SWIDTH 785 0
DWIDTH 9 0
BBX 9 15 0 -3
BITMAP
0000
3C00
4200
0000
7E00
1800
1800
1800
1800
1800
1800
7E00
0000
0000
0000
ENDCHAR
STARTCHAR uni020B
ENCODING 523
SWIDTH 785 0
DWIDTH 9 0
BBX 9 15 0 -3
BITMAP
0000
0000
3C00
4200
0000
3800
1800
1800
1800
1800
1800
7E00
0000
0000
0000
ENDCHAR
STARTCHAR uni020C
ENCODING 524
SWIDTH 785 0
DWIDTH 9 0
BBX 9 15 0 -3
BITMAP
0000
CC00
6600
0000
3C00
6600
C300
C300
C300
C300
6600
3C00
0000
0000
0000
ENDCHAR
STARTCHAR uni020D
ENCODING 525
SWIDTH 785 0
DWIDTH 9 0
BBX 9 15 0 -3
BITMAP
0000
0000
CC00
6600
0000
3C00
6600
C300
C300
C300
6600
3C00
0000
0000
0000
ENDCHAR
STARTCHAR uni020E
ENCODING 526
SWIDTH 785 0
DWIDTH 9 0
BBX 9 15 0 -3
BITMAP
0000
3C00
4200
0000
3C00
6600
C300
C300
C300
C300
6600
3C00
0000
0000
0000
ENDCHAR
STARTCHAR uni020F
ENCODING 527
SWIDTH 785 0
DWIDTH 9 0
BBX 9 15 0 -3
BITMAP
0000
0000
3C00
4200
0000
3C00
6600
C300
C300
C300
6600
3C00
0000
0000
0000
ENDCHAR
STARTCHAR uni0210
ENCODING 528
SWIDTH 785 0
DWIDTH 9 0
BBX 9 15 0 -3
BITMAP
CC00
6600
0000
FE00
C300
C300
C300
FE00
F800
CC00
C600
C300
0000
0000
0000
ENDCHAR
STARTCHAR uni0211
ENCODING 529
SWIDTH 785 0
DWIDTH 9 0
BBX 9 15 0 -3
BITMAP
0000
0000
CC00
6600
0000
DE00
7300
6000
6000
6000
6000
6000
0000
0000
0000
ENDCHAR
STARTCHAR uni0212
ENCODING 530
SWIDTH 785 0
DWIDTH 9 0
BBX 9 15 0 -3
BITMAP
3C00
4200
0000
FE00
C300
C300
C300
FE00
F800
CC00
C600
C300
0000
0000
0000
ENDCHAR
STARTCHAR uni0213
ENCODING 531
SWIDTH 785 0
DWIDTH 9 0
BBX 9 15 0 -3
BITMAP
0000
0000
3C00
4200
0000
DE00
7300
6000
6000
6000
6000
6000
0000
0000
0000
ENDCHAR
STARTCHAR uni0214
ENCODING 532
SWIDTH 785 0
DWIDTH 9 0
BBX 9 15 0 -3
BITMAP
0000
CC00
6600
0000
C300
C300
C300
C300
C300
C300
6600
3C00
0000
0000
0000
ENDCHAR
STARTCHAR uni0215
ENCODING 533
SWIDTH 785 0
DWIDTH 9 0
BBX 9 15 0 -3
BITMAP
0000
0000
CC00
6600
0000
C300
C300
C300
C300
C300
6700
3B00
0000
0000
0000
ENDCHAR
STARTCHAR uni0216
ENCODING 534
SWIDTH 785 0
DWIDTH 9 0
BBX 9 15 0 -3
BITMAP
0000
3C00
4200
0000
C300
C300
C300
C300
C300
C300
6600
3C00
0000
0000
0000
ENDCHAR
STARTCHAR uni0217
ENCODING 535
SWIDTH 785 0
DWIDTH 9 0
BBX 9 15 0 -3
BITMAP
0000
0000
3C00
4200
0000
C300
C300
C300
C300
C300
6700
3B00
0000
0000
0000
ENDCHAR
STARTCHAR Scommaaccent
ENCODING 536
SWIDTH 785 0
DWIDTH 9 0
BBX 9 15 0 -3
BITMAP
0000
0000
7E00
C300
C000
C000
7E00
0300
0300
0300
C300
7E00
1C00
0C00
1800
ENDCHAR
STARTCHAR scommaaccent
ENCODING 537
SWIDTH 785 0
DWIDTH 9 0
BBX 9 15 0 -3
BITMAP
0000
0000
0000
0000
0000
7E00
C300
C000
7E00
0300
C300
7E00
1C00
0C00
1800
ENDCHAR
STARTCHAR Tcommaaccent
ENCODING 538
SWIDTH 785 0
DWIDTH 9 0
BBX 9 15 0 -3
BITMAP
0000
0000
FF00
1800
1800
1800
1800
1800
1800
1800
1800
1800
0C00
0C00
1800
ENDCHAR
STARTCHAR tcommaaccent
ENCODING 539
SWIDTH 785 0
DWIDTH 9 0
BBX 9 15 0 -3
BITMAP
0000
0000
0000
3000
3000
FC00
3000
3000
3000
3000
3300
1E00
0C00
0C00
1800
ENDCHAR
STARTCHAR uni2010
ENCODING 8208
SWIDTH 785 0
DWIDTH 9 0
BBX 9 15 0 -3
BITMAP
0000
0000
0000
0000
0000
0000
0000
7E00
0000
0000
0000
0000
0000
0000
0000
ENDCHAR
STARTCHAR uni2011
ENCODING 8209
SWIDTH 785 0
DWIDTH 9 0
BBX 9 15 0 -3
BITMAP
0000
0000
0000
0000
0000
0000
0000
7E00
0000
0000
0000
0000
0000
0000
0000
ENDCHAR
STARTCHAR figuredash
ENCODING 8210
SWIDTH 785 0
DWIDTH 9 0
BBX 9 15 0 -3
BITMAP
0000
0000
0000
0000
0000
0000
0000
7F00
0000
0000
0000
0000
0000
0000
0000
ENDCHAR
STARTCHAR endash
ENCODING 8211
SWIDTH 785 0
DWIDTH 9 0
BBX 9 15 0 -3
BITMAP
0000
0000
0000
0000
0000
0000
0000
FF00
0000
0000
0000
0000
0000
0000
0000
ENDCHAR
STARTCHAR emdash
ENCODING 8212
SWIDTH 785 0
DWIDTH 9 0
BBX 9 15 0 -3
BITMAP
0000
0000
0000
0000
0000
0000
0000
FF80
0000
0000
0000
0000
0000
0000
0000
ENDCHAR
STARTCHAR afii00208
ENCODING 8213
SWIDTH 785 0
DWIDTH 9 0
BBX 9 15 0 -3
BITMAP
0000
0000
0000
0000
0000
0000
0000
FF80
0000
0000
0000
0000
0000
0000
0000
ENDCHAR
STARTCHAR uni2016
ENCODING 8214
SWIDTH 785 0
DWIDTH 9 0
BBX 9 15 0 -3
BITMAP
0000
0000
3600
3600
3600
3600
3600
3600
3600
3600
3600
3600
0000
0000
0000
ENDCHAR
STARTCHAR underscoredbl
ENCODING 8215
SWIDTH 785 0
DWIDTH 9 0
BBX 9 15 0 -3
BITMAP
0000
0000
0000
0000
0000
0000
0000
0000
0000
0000
0000
0000
7F00
0000
7F00
ENDCHAR
STARTCHAR quoteleft
ENCODING 8216
SWIDTH 785 0
DWIDTH 9 0
BBX 9 15 0 -3
BITMAP
0000
0000
0C00
1800
1C00
1C00
0000
0000
0000
0000
0000
0000
0000
0000
0000
ENDCHAR
STARTCHAR quoteright
ENCODING 8217
SWIDTH 785 0
DWIDTH 9 0
BBX 9 15 0 -3
BITMAP
0000
0000
1C00
1C00
0C00
1800
0000
0000
0000
0000
0000
0000
0000
0000
0000
ENDCHAR
STARTCHAR quotesinglbase
ENCODING 8218
SWIDTH 785 0
DWIDTH 9 0
BBX 9 15 0 -3
BITMAP
0000
0000
0000
0000
0000
0000
0000
0000
0000
3800
3800
1800
3000
0000
0000
ENDCHAR
STARTCHAR quotereversed
ENCODING 8219
SWIDTH 785 0
DWIDTH 9 0
BBX 9 15 0 -3
BITMAP
0000
0000
3800
3800
3000
1800
0000
0000
0000
0000
0000
0000
0000
0000
0000
ENDCHAR
STARTCHAR quotedblleft
ENCODING 8220
SWIDTH 785 0
DWIDTH 9 0
BBX 9 15 0 -3
BITMAP
0000
0000
3300
6600
7700
7700
0000
0000
0000
0000
0000
0000
0000
0000
0000
ENDCHAR
STARTCHAR quotedblright
ENCODING 8221
SWIDTH 785 0
DWIDTH 9 0
BBX 9 15 0 -3
BITMAP
0000
0000
7700
7700
3300
6600
0000
0000
0000
0000
0000
0000
0000
0000
0000
ENDCHAR
STARTCHAR quotedblbase
ENCODING 8222
SWIDTH 785 0
DWIDTH 9 0
BBX 9 15 0 -3
BITMAP
0000
0000
0000
0000
0000
0000
0000
0000
0000
7700
7700
3300
6600
0000
0000
ENDCHAR
STARTCHAR uni201F
ENCODING 8223
SWIDTH 785 0
DWIDTH 9 0
BBX 9 15 0 -3
BITMAP
0000
0000
7700
7700
6600
3300
0000
0000
0000
0000
0000
0000
0000
0000
0000
ENDCHAR
STARTCHAR dagger
ENCODING 8224
SWIDTH 785 0
DWIDTH 9 0
BBX 9 15 0 -3
BITMAP
0000
1800
3C00
1800
5A00
FF00
5A00
1800
3C00
1800
1800
1800
1800
1800
0000
ENDCHAR
STARTCHAR daggerdbl
ENCODING 8225
SWIDTH 785 0
DWIDTH 9 0
BBX 9 15 0 -3
BITMAP
0000
1800
3C00
1800
5A00
FF00
5A00
1800
5A00
FF00
5A00
1800
3C00
1800
0000
ENDCHAR
STARTCHAR bullet
ENCODING 8226
SWIDTH 785 0
DWIDTH 9 0
BBX 9 15 0 -3
BITMAP
0000
0000
0000
0000
0000
1800
3C00
3C00
1800
0000
0000
0000
0000
0000
0000
ENDCHAR
STARTCHAR uni2023
ENCODING 8227
SWIDTH 785 0
DWIDTH 9 0
BBX 9 15 0 -3
BITMAP
0000
0000
0000
2000
3000
3800
3C00
3800
3000
2000
0000
0000
0000
0000
0000
ENDCHAR
STARTCHAR onedotenleader
ENCODING 8228
SWIDTH 785 0
DWIDTH 9 0
BBX 9 15 0 -3
BITMAP
0000
0000
0000
0000
0000
0000
0000
0000
0000
0000
6000
6000
0000
0000
0000
ENDCHAR
STARTCHAR twodotenleader
ENCODING 8229
SWIDTH 785 0
DWIDTH 9 0
BBX 9 15 0 -3
BITMAP
0000
0000
0000
0000
0000
0000
0000
0000
0000
0000
6C00
6C00
0000
0000
0000
ENDCHAR
STARTCHAR ellipsis
ENCODING 8230
SWIDTH 785 0
DWIDTH 9 0
BBX 9 15 0 -3
BITMAP
0000
0000
0000
0000
0000
0000
0000
0000
0000
0000
DB00
DB00
0000
0000
0000
ENDCHAR
STARTCHAR uni2027
ENCODING 8231
SWIDTH 785 0
DWIDTH 9 0
BBX 9 15 0 -3
BITMAP
0000
0000
0000
0000
0000
0800
1C00
0800
0000
0000
0000
0000
0000
0000
0000
ENDCHAR
STARTCHAR perthousand
ENCODING 8240
SWIDTH 785 0
DWIDTH 9 0
BBX 9 15 0 -3
BITMAP
0000
0000
4300
E600
E600
4C00
1800
1800
3500
6F80
6F80
C500
0000
0000
0000
ENDCHAR
STARTCHAR minute
ENCODING 8242
SWIDTH 785 0
DWIDTH 9 0
BBX 9 15 0 -3
BITMAP
0000
0000
1800
1800
1800
3000
0000
0000
0000
0000
0000
0000
0000
0000
0000
ENDCHAR
STARTCHAR second
ENCODING 8243
SWIDTH 785 0
DWIDTH 9 0
BBX 9 15 0 -3
BITMAP
0000
0000
3600
3600
3600
6C00
0000
0000
0000
0000
0000
0000
0000
0000
0000
ENDCHAR
STARTCHAR uni2034
ENCODING 8244
SWIDTH 785 0
DWIDTH 9 0
BBX 9 15 0 -3
BITMAP
0000
0000
6D80
6D80
6D80
DB00
0000
0000
0000
0000
0000
0000
0000
0000
0000
ENDCHAR
STARTCHAR uni2035
ENCODING 8245
SWIDTH 785 0
DWIDTH 9 0
BBX 9 15 0 -3
BITMAP
0000
0000
3000
3000
3000
1800
0000
0000
0000
0000
0000
0000
0000
0000
0000
ENDCHAR
STARTCHAR uni2036
ENCODING 8246
SWIDTH 785 0
DWIDTH 9 0
BBX 9 15 0 -3
BITMAP
0000
0000
6C00
6C00
6C00
3600
0000
0000
0000
0000
0000
0000
0000
0000
0000
ENDCHAR
STARTCHAR uni2037
ENCODING 8247
SWIDTH 785 0
DWIDTH 9 0
BBX 9 15 0 -3
BITMAP
0000
0000
DB00
DB00
DB00
6D80
0000
0000
0000
0000
0000
0000
0000
0000
0000
ENDCHAR
STARTCHAR guilsinglleft
ENCODING 8249
SWIDTH 785 0
DWIDTH 9 0
BBX 9 15 0 -3
BITMAP
0000
0000
0000
0000
0C00
1800
3000
3000
1800
0C00
0000
0000
0000
0000
0000
ENDCHAR
STARTCHAR guilsinglright
ENCODING 8250
SWIDTH 785 0
DWIDTH 9 0
BBX 9 15 0 -3
BITMAP
0000
0000
0000
0000
3000
1800
0C00
0C00
1800
3000
0000
0000
0000
0000
0000
ENDCHAR
STARTCHAR exclamdbl
ENCODING 8252
SWIDTH 785 0
DWIDTH 9 0
BBX 9 15 0 -3
BITMAP
0000
3600
3600
3600
3600
3600
3600
3600
0000
0000
3600
3600
0000
0000
0000
ENDCHAR
STARTCHAR uni203E
ENCODING 8254
SWIDTH 785 0
DWIDTH 9 0
BBX 9 15 0 -3
BITMAP
0000
FF80
0000
0000
0000
0000
0000
0000
0000
0000
0000
0000
0000
0000
0000
ENDCHAR
STARTCHAR fraction
ENCODING 8260
SWIDTH 785 0
DWIDTH 9 0
BBX 9 15 0 -3
BITMAP
0000
0000
0300
0600
0600
0C00
1800
1800
3000
6000
6000
C000
0000
0000
0000
ENDCHAR
STARTCHAR Euro
ENCODING 8364
SWIDTH 785 0
DWIDTH 9 0
BBX 9 15 0 -3
BITMAP
0000
0000
0E00
1B00
3000
7800
3000
7800
3000
3000
1B00
0E00
0000
0000
0000
ENDCHAR
STARTCHAR arrowleft
ENCODING 8592
SWIDTH 785 0
DWIDTH 9 0
BBX 9 15 0 -3
BITMAP
0000
0000
0000
0800
1800
3000
7F00
7F00
3000
1800
0800
0000
0000
0000
0000
ENDCHAR
STARTCHAR arrowup
ENCODING 8593
SWIDTH 785 0
DWIDTH 9 0
BBX 9 15 0 -3
BITMAP
0000
0000
1800
3C00
7E00
DB00
1800
1800
1800
1800
1800
1800
0000
0000
0000
ENDCHAR
STARTCHAR arrowright
ENCODING 8594
SWIDTH 785 0
DWIDTH 9 0
BBX 9 15 0 -3
BITMAP
0000
0000
0000
0800
0C00
0600
7F00
7F00
0600
0C00
0800
0000
0000
0000
0000
ENDCHAR
STARTCHAR arrowdown
ENCODING 8595
SWIDTH 785 0
DWIDTH 9 0
BBX 9 15 0 -3
BITMAP
0000
0000
1800
1800
1800
1800
1800
1800
DB00
7E00
3C00
1800
0000
0000
0000
ENDCHAR
STARTCHAR SF100000
ENCODING 9472
SWIDTH 785 0
DWIDTH 9 0
BBX 9 15 0 -3
BITMAP
0000
0000
0000
0000
0000
0000
FF80
FF80
0000
0000
0000
0000
0000
0000
0000
ENDCHAR
STARTCHAR SF110000
ENCODING 9474
SWIDTH 785 0
DWIDTH 9 0
BBX 9 15 0 -3
BITMAP
0C00
0C00
0C00
0C00
0C00
0C00
0C00
0C00
0C00
0C00
0C00
0C00
0C00
0C00
0C00
ENDCHAR
STARTCHAR SF010000
ENCODING 9484
SWIDTH 785 0
DWIDTH 9 0
BBX 9 15 0 -3
BITMAP
0000
0000
0000
0000
0000
0000
0F80
0F80
0C00
0C00
0C00
0C00
0C00
0C00
0C00
ENDCHAR
STARTCHAR SF030000
ENCODING 9488
SWIDTH 785 0
DWIDTH 9 0
BBX 9 15 0 -3
BITMAP
0000
0000
0000
0000
0000
0000
FC00
FC00
0C00
0C00
0C00
0C00
0C00
0C00
0C00
ENDCHAR
STARTCHAR SF020000
ENCODING 9492
SWIDTH 785 0
DWIDTH 9 0
BBX 9 15 0 -3
BITMAP
0C00
0C00
0C00
0C00
0C00
0C00
0F80
0F80
0000
0000
0000
0000
0000
0000
0000
ENDCHAR
STARTCHAR SF040000
ENCODING 9496
SWIDTH 785 0
DWIDTH 9 0
BBX 9 15 0 -3
BITMAP
0C00
0C00
0C00
0C00
0C00
0C00
FC00
FC00
0000
0000
0000
0000
0000
0000
0000
ENDCHAR
STARTCHAR SF080000
ENCODING 9500
SWIDTH 785 0
DWIDTH 9 0
BBX 9 15 0 -3
BITMAP
0C00
0C00
0C00
0C00
0C00
0C00
0F80
0F80
0C00
0C00
0C00
0C00
0C00
0C00
0C00
ENDCHAR
STARTCHAR SF090000
ENCODING 9508
SWIDTH 785 0
DWIDTH 9 0
BBX 9 15 0 -3
BITMAP
0C00
0C00
0C00
0C00
0C00
0C00
FC00
FC00
0C00
0C00
0C00
0C00
0C00
0C00
0C00
ENDCHAR
STARTCHAR SF060000
ENCODING 9516
SWIDTH 785 0
DWIDTH 9 0
BBX 9 15 0 -3
BITMAP
0000
0000
0000
0000
0000
0000
FF80
FF80
0C00
0C00
0C00
0C00
0C00
0C00
0C00
ENDCHAR
STARTCHAR SF070000
ENCODING 9524
SWIDTH 785 0
DWIDTH 9 0
BBX 9 15 0 -3
BITMAP
0C00
0C00
0C00
0C00
0C00
0C00
FF80
FF80
0000
0000
0000
0000
0000
0000
0000
ENDCHAR
STARTCHAR SF050000
ENCODING 9532
SWIDTH 785 0
DWIDTH 9 0
BBX 9 15 0 -3
BITMAP
0C00
0C00
0C00
0C00
0C00
0C00
FF80
FF80
0C00
0C00
0C00
0C00
0C00
0C00
0C00
ENDCHAR
STARTCHAR uni254C
ENCODING 9548
SWIDTH 785 0
DWIDTH 9 0
BBX 9 15 0 -3
BITMAP
0000
0000
0000
0000
0000
0000
7700
7700
0000
0000
0000
0000
0000
0000
0000
ENDCHAR
STARTCHAR uni254E
ENCODING 9550
SWIDTH 785 0
DWIDTH 9 0
BBX 9 15 0 -3
BITMAP
0000
0000
0C00
0C00
0C00
0C00
0C00
0000
0C00
0C00
0C00
0C00
0000
0000
0000
ENDCHAR
STARTCHAR uni256D
ENCODING 9581
SWIDTH 785 0
DWIDTH 9 0
BBX 9 15 0 -3
BITMAP
0000
0000
0000
0000
0000
0000
0380
0780
0E00
0C00
0C00
0C00
0C00
0C00
0C00
ENDCHAR
STARTCHAR uni256E
ENCODING 9582
SWIDTH 785 0
DWIDTH 9 0
BBX 9 15 0 -3
BITMAP
0000
0000
0000
0000
0000
0000
E000
F800
1800
0C00
0C00
0C00
0C00
0C00
0C00
ENDCHAR
STARTCHAR uni256F
ENCODING 9583
SWIDTH 785 0
DWIDTH 9 0
BBX 9 15 0 -3
BITMAP
0C00
0C00
0C00
0C00
0C00
1C00
F800
F000
0000
0000
0000
0000
0000
0000
0000
ENDCHAR
STARTCHAR uni2570
ENCODING 9584
SWIDTH 785 0
DWIDTH 9 0
BBX 9 15 0 -3
BITMAP
0C00
0C00
0C00
0C00
0C00
0E00
0780
0380
0000
0000
0000
0000
0000
0000
0000
ENDCHAR
STARTCHAR uni2571
ENCODING 9585
SWIDTH 785 0
DWIDTH 9 0
BBX 9 15 0 -3
BITMAP
0180
0180
0300
0300
0600
0600
0C00
1C00
1800
3000
3000
6000
6000
C000
C000
ENDCHAR
STARTCHAR uni2572
ENCODING 9586
SWIDTH 785 0
DWIDTH 9 0
BBX 9 15 0 -3
BITMAP
C000
C000
6000
6000
3000
3000
1800
1C00
0C00
0600
0600
0300
0300
0180
0180
ENDCHAR
STARTCHAR uni2573
ENCODING 9587
SWIDTH 785 0
DWIDTH 9 0
BBX 9 15 0 -3
BITMAP
C180
C180
6300
6300
3600
3600
1C00
1C00
1C00
3600
3600
6300
6300
C180
C180
ENDCHAR
STARTCHAR uni2574
ENCODING 9588
SWIDTH 785 0
DWIDTH 9 0
BBX 9 15 0 -3
BITMAP
0000
0000
0000
0000
0000
0000
FC00
FC00
0000
0000
0000
0000
0000
0000
0000
ENDCHAR
STARTCHAR uni2575
ENCODING 9589
SWIDTH 785 0
DWIDTH 9 0
BBX 9 15 0 -3
BITMAP
0C00
0C00
0C00
0C00
0C00
0C00
0C00
0C00
0000
0000
0000
0000
0000
0000
0000
ENDCHAR
STARTCHAR uni2576
ENCODING 9590
SWIDTH 785 0
DWIDTH 9 0
BBX 9 15 0 -3
BITMAP
0000
0000
0000
0000
0000
0000
0F80
0F80
0000
0000
0000
0000
0000
0000
0000
ENDCHAR
STARTCHAR uni2577
ENCODING 9591
SWIDTH 785 0
DWIDTH 9 0
BBX 9 15 0 -3
BITMAP
0000
0000
0000
0000
0000
0000
0C00
0C00
0C00
0C00
0C00
0C00
0C00
0C00
0C00
ENDCHAR
STARTCHAR shade
ENCODING 9618
SWIDTH 785 0
DWIDTH 9 0
BBX 9 15 0 -3
BITMAP
AA80
5500
AA80
5500
AA80
5500
AA80
5500
AA80
5500
AA80
5500
AA80
5500
AA80
ENDCHAR
STARTCHAR uni25AE
ENCODING 9646
SWIDTH 785 0
DWIDTH 9 0
BBX 9 15 0 -3
BITMAP
0000
0000
0000
7E00
7E00
7E00
7E00
7E00
7E00
7E00
7E00
7E00
0000
0000
0000
ENDCHAR
STARTCHAR uni25C6
ENCODING 9670
SWIDTH 785 0
DWIDTH 9 0
BBX 9 15 0 -3
BITMAP
0000
0000
0000
0800
1C00
3E00
7F00
FF80
7F00
3E00
1C00
0800
0000
0000
0000
ENDCHAR
ENDFONT
